<svg xmlns="http://www.w3.org/2000/svg" xmlns:xlink="http://www.w3.org/1999/xlink" contentStyleType="text/css" data-diagram-type="ACTIVITY" height="499px" preserveAspectRatio="none" style="width:1133px;height:499px;background:#FFFFFF;" version="1.1" viewBox="0 0 1133 499" width="1133px" zoomAndPan="magnify"><defs/><g><ellipse cx="561.1763" cy="20" fill="#222222" rx="10" ry="10" style="stroke:#222222;stroke-width:1;"/><polygon fill="#F1F1F1" points="503.3552,50,618.9973,50,630.9973,62,618.9973,74,503.3552,74,491.3552,62,503.3552,50" style="stroke:#181818;stroke-width:0.5;"/><text fill="#000000" font-family="arial" font-size="15" lengthAdjust="spacing" textLength="115.6421" x="503.3552" y="67.1929">Exception Type</text><rect fill="#B33A3A" height="306.2671" style="stroke:#000000;stroke-width:1.5;" width="393.8403" x="11" y="104.4985"/><path d="M124.7476,104.4985 L124.7476,114.9595 L114.7476,124.9595 L11,124.9595" fill="none" style="stroke:#000000;stroke-width:1.5;"/><text fill="#000000" font-family="arial" font-size="15" lengthAdjust="spacing" textLength="103.7476" x="14" y="119.4219">Non-retryable</text><rect fill="#F1F1F1" height="37.4609" rx="12.5" ry="12.5" style="stroke:#181818;stroke-width:0.5;" width="89.5581" x="163.1411" y="141.9595"/><text fill="#000000" font-family="arial" font-size="15" lengthAdjust="spacing" textLength="64.79" x="177.9092" y="165.8828">Error log</text><rect fill="#F1F1F1" height="37.4609" rx="12.5" ry="12.5" style="stroke:#181818;stroke-width:0.5;" width="373.8403" x="21" y="208.3828"/><text fill="#000000" font-family="arial" font-size="15" lengthAdjust="spacing" textLength="349.0723" x="35.7681" y="232.3062">Update status of process in database (FAILED)</text><rect fill="#F1F1F1" height="37.4609" rx="12.5" ry="12.5" style="stroke:#181818;stroke-width:0.5;" width="212.9126" x="101.4639" y="280.8438"/><text fill="#000000" font-family="arial" font-size="15" lengthAdjust="spacing" textLength="188.1445" x="116.2319" y="304.7671">Output file in error folder</text><rect fill="#F1F1F1" height="37.4609" rx="12.5" ry="12.5" style="stroke:#181818;stroke-width:0.5;" width="220.4272" x="97.7065" y="353.3047"/><text fill="#000000" font-family="arial" font-size="15" lengthAdjust="spacing" textLength="195.6592" x="112.4746" y="377.228">Push in Dead letter queue</text><rect fill="#8C5E3C" height="233.8062" style="stroke:#000000;stroke-width:1.5;" width="408.064" x="414.8403" y="104.4985"/><path d="M521.6665,104.4985 L521.6665,114.9595 L511.6665,124.9595 L414.8403,124.9595" fill="none" style="stroke:#000000;stroke-width:1.5;"/><text fill="#000000" font-family="arial" font-size="15" lengthAdjust="spacing" textLength="96.8262" x="417.8403" y="119.4219">Unsupported</text><rect fill="#F1F1F1" height="37.4609" rx="12.5" ry="12.5" style="stroke:#181818;stroke-width:0.5;" width="115.2954" x="561.2246" y="141.9595"/><text fill="#000000" font-family="arial" font-size="15" lengthAdjust="spacing" textLength="90.5273" x="575.9927" y="165.8828">Warning log</text><rect fill="#F1F1F1" height="37.4609" rx="12.5" ry="12.5" style="stroke:#181818;stroke-width:0.5;" width="388.064" x="424.8403" y="208.3828"/><text fill="#000000" font-family="arial" font-size="15" lengthAdjust="spacing" textLength="363.2959" x="439.6084" y="232.3062">Update status of process in database (#8c5e3c)</text><rect fill="#F1F1F1" height="37.4609" rx="12.5" ry="12.5" style="stroke:#181818;stroke-width:0.5;" width="271.3599" x="483.1924" y="280.8438"/><text fill="#000000" font-family="arial" font-size="15" lengthAdjust="spacing" textLength="246.5918" x="497.9604" y="304.7671">Output file in unsupported folder</text><rect fill="#D9A441" height="178.3452" style="stroke:#000000;stroke-width:1.5;" width="231.748" x="842.9043" y="104.4985"/><path d="M925.5898,104.4985 L925.5898,114.9595 L915.5898,124.9595 L842.9043,124.9595" fill="none" style="stroke:#000000;stroke-width:1.5;"/><text fill="#000000" font-family="arial" font-size="15" lengthAdjust="spacing" textLength="72.6855" x="845.9043" y="119.4219">Retryable</text><rect fill="#F1F1F1" height="37.4609" rx="12.5" ry="12.5" style="stroke:#181818;stroke-width:0.5;" width="166.748" x="876.9043" y="201.3828"/><text fill="#000000" font-family="arial" font-size="15" lengthAdjust="spacing" textLength="146.748" x="886.9043" y="225.3062">Retry the operation</text><polygon fill="#F1F1F1" points="909.0051,141.9595,1011.5515,141.9595,1023.5515,153.9595,1011.5515,165.9595,909.0051,165.9595,897.0051,153.9595,909.0051,141.9595" style="stroke:#181818;stroke-width:0.5;"/><text fill="#000000" font-family="arial" font-size="15" lengthAdjust="spacing" textLength="102.4146" x="964.2783" y="179.8828">not exceeded</text><text fill="#000000" font-family="arial" font-size="15" lengthAdjust="spacing" textLength="102.5464" x="909.0051" y="159.1523">Rety iteration</text><text fill="#000000" font-family="arial" font-size="15" lengthAdjust="spacing" textLength="73.0811" x="823.9241" y="150.4219">exceeded</text><rect fill="#B33A3A" height="37.4609" rx="12.5" ry="12.5" style="stroke:#181818;stroke-width:0.5;" width="207.3682" x="856.5942" y="317.8438"/><text fill="#000000" font-family="arial" font-size="15" lengthAdjust="spacing" textLength="182.6001" x="871.3623" y="341.7671">Non-retryable Exception</text><ellipse cx="960.2783" cy="401.3047" fill="none" rx="11" ry="11" style="stroke:#222222;stroke-width:1;"/><ellipse cx="960.2783" cy="401.3047" fill="#222222" rx="6" ry="6" style="stroke:#222222;stroke-width:1;"/><polygon fill="#F1F1F1" points="561.1763,422.3047,561.1763,422.3047,573.1763,434.3047,561.1763,446.3047,561.1763,446.3047,549.1763,434.3047,561.1763,422.3047" style="stroke:#181818;stroke-width:0.5;"/><ellipse cx="561.1763" cy="477.3047" fill="none" rx="11" ry="11" style="stroke:#222222;stroke-width:1;"/><ellipse cx="561.1763" cy="477.3047" fill="#222222" rx="6" ry="6" style="stroke:#222222;stroke-width:1;"/><line style="stroke:#181818;stroke-width:1;" x1="207.9202" x2="207.9202" y1="179.4204" y2="208.3828"/><polygon fill="#181818" points="203.9202,198.3828,207.9202,208.3828,211.9202,198.3828,207.9202,202.3828" style="stroke:#181818;stroke-width:1;"/><line style="stroke:#181818;stroke-width:1;" x1="207.9202" x2="207.9202" y1="245.8438" y2="280.8438"/><polygon fill="#181818" points="203.9202,270.8438,207.9202,280.8438,211.9202,270.8438,207.9202,274.8438" style="stroke:#181818;stroke-width:1;"/><line style="stroke:#181818;stroke-width:1;" x1="207.9202" x2="207.9202" y1="318.3047" y2="353.3047"/><polygon fill="#181818" points="203.9202,343.3047,207.9202,353.3047,211.9202,343.3047,207.9202,347.3047" style="stroke:#181818;stroke-width:1;"/><line style="stroke:#181818;stroke-width:1;" x1="618.8723" x2="618.8723" y1="179.4204" y2="208.3828"/><polygon fill="#181818" points="614.8723,198.3828,618.8723,208.3828,622.8723,198.3828,618.8723,202.3828" style="stroke:#181818;stroke-width:1;"/><line style="stroke:#181818;stroke-width:1;" x1="618.8723" x2="618.8723" y1="245.8438" y2="280.8438"/><polygon fill="#181818" points="614.8723,270.8438,618.8723,280.8438,622.8723,270.8438,618.8723,274.8438" style="stroke:#181818;stroke-width:1;"/><line style="stroke:#181818;stroke-width:1;" x1="960.2783" x2="960.2783" y1="165.9595" y2="201.3828"/><polygon fill="#181818" points="956.2783,191.3828,960.2783,201.3828,964.2783,191.3828,960.2783,195.3828" style="stroke:#181818;stroke-width:1;"/><line style="stroke:#181818;stroke-width:1;" x1="960.2783" x2="960.2783" y1="238.8438" y2="250.8438"/><line style="stroke:#181818;stroke-width:1;" x1="960.2783" x2="1055.6523" y1="250.8438" y2="250.8438"/><polygon fill="#181818" points="1051.6523,209.3828,1055.6523,199.3828,1059.6523,209.3828,1055.6523,205.3828" style="stroke:#181818;stroke-width:1;"/><line style="stroke:#181818;stroke-width:1;" x1="1055.6523" x2="1055.6523" y1="153.9595" y2="250.8438"/><line style="stroke:#181818;stroke-width:1;" x1="1055.6523" x2="1023.5515" y1="153.9595" y2="153.9595"/><polygon fill="#181818" points="1033.5515,149.9595,1023.5515,153.9595,1033.5515,157.9595,1029.5515,153.9595" style="stroke:#181818;stroke-width:1;"/><line style="stroke:#181818;stroke-width:1;" x1="897.0051" x2="864.9043" y1="153.9595" y2="153.9595"/><polygon fill="#181818" points="860.9043,195.3828,864.9043,205.3828,868.9043,195.3828,864.9043,199.3828" style="stroke:#181818;stroke-width:1;"/><line style="stroke:#181818;stroke-width:1;" x1="864.9043" x2="864.9043" y1="153.9595" y2="262.8438"/><line style="stroke:#181818;stroke-width:1;" x1="864.9043" x2="960.2783" y1="262.8438" y2="262.8438"/><line style="stroke:#181818;stroke-width:1;" x1="960.2783" x2="960.2783" y1="262.8438" y2="317.8438"/><polygon fill="#181818" points="956.2783,307.8438,960.2783,317.8438,964.2783,307.8438,960.2783,311.8438" style="stroke:#181818;stroke-width:1;"/><line style="stroke:#181818;stroke-width:1;" x1="960.2783" x2="960.2783" y1="355.3047" y2="390.3047"/><polygon fill="#181818" points="956.2783,380.3047,960.2783,390.3047,964.2783,380.3047,960.2783,384.3047" style="stroke:#181818;stroke-width:1;"/><line style="stroke:#181818;stroke-width:1;" x1="491.3552" x2="207.9202" y1="62" y2="62"/><line style="stroke:#181818;stroke-width:1;" x1="207.9202" x2="207.9202" y1="62" y2="141.9595"/><polygon fill="#181818" points="203.9202,131.9595,207.9202,141.9595,211.9202,131.9595,207.9202,135.9595" style="stroke:#181818;stroke-width:1;"/><text fill="#000000" font-family="arial" font-size="15" lengthAdjust="spacing" textLength="182.6001" x="212.6882" y="99.9609">Non-retryable Exception</text><line style="stroke:#181818;stroke-width:1;" x1="630.9973" x2="960.2783" y1="62" y2="62"/><line style="stroke:#181818;stroke-width:1;" x1="960.2783" x2="960.2783" y1="62" y2="141.9595"/><polygon fill="#181818" points="956.2783,131.9595,960.2783,141.9595,964.2783,131.9595,960.2783,135.9595" style="stroke:#181818;stroke-width:1;"/><text fill="#000000" font-family="arial" font-size="15" lengthAdjust="spacing" textLength="151.5381" x="965.0464" y="99.9609">Retryable Exception</text><line style="stroke:#181818;stroke-width:1;" x1="561.1763" x2="561.1763" y1="74" y2="87.0376"/><line style="stroke:#181818;stroke-width:1;" x1="561.1763" x2="618.8723" y1="87.0376" y2="87.0376"/><line style="stroke:#181818;stroke-width:1;" x1="618.8723" x2="618.8723" y1="87.0376" y2="141.9595"/><polygon fill="#181818" points="614.8723,131.9595,618.8723,141.9595,622.8723,131.9595,618.8723,135.9595" style="stroke:#181818;stroke-width:1;"/><text fill="#000000" font-family="arial" font-size="15" lengthAdjust="spacing" textLength="175.6787" x="565.9443" y="100.9609">Unsupported Exception</text><line style="stroke:#181818;stroke-width:1;" x1="207.9202" x2="207.9202" y1="390.7656" y2="434.3047"/><line style="stroke:#181818;stroke-width:1;" x1="207.9202" x2="549.1763" y1="434.3047" y2="434.3047"/><polygon fill="#181818" points="539.1763,430.3047,549.1763,434.3047,539.1763,438.3047,543.1763,434.3047" style="stroke:#181818;stroke-width:1;"/><line style="stroke:#181818;stroke-width:1;" x1="618.8723" x2="618.8723" y1="318.3047" y2="434.3047"/><line style="stroke:#181818;stroke-width:1;" x1="618.8723" x2="573.1763" y1="434.3047" y2="434.3047"/><polygon fill="#181818" points="583.1763,430.3047,573.1763,434.3047,583.1763,438.3047,579.1763,434.3047" style="stroke:#181818;stroke-width:1;"/><line style="stroke:#181818;stroke-width:1;" x1="561.1763" x2="561.1763" y1="30" y2="50"/><polygon fill="#181818" points="557.1763,40,561.1763,50,565.1763,40,561.1763,44" style="stroke:#181818;stroke-width:1;"/><line style="stroke:#181818;stroke-width:1;" x1="561.1763" x2="561.1763" y1="446.3047" y2="466.3047"/><polygon fill="#181818" points="557.1763,456.3047,561.1763,466.3047,565.1763,456.3047,561.1763,460.3047" style="stroke:#181818;stroke-width:1;"/><!--SRC=[dLFRZjCm47ttLmpg0-t34afRBcM5jD2iXBHggsuhn1EQ9jF68hMDFI4R4F-Eayqs5yH5-2Nnp9dZCsViIyT5Icy4HYo_IYuM4eyMJ_1T05nhnUzqgYtiKum-rv4bdWZGIaphmAtyHZ2UYH_YCgZPnEE4sRXv4EHv_YGgEIuIklD_f-1-Pp0bPWh6JvzFPo-UYKSn7QGYMAu-RSBjvYCCzfC9Jl2Ss2rlT-lrQhCD5p1u6Sre4frpLSNLsviG1l4hd4x7GZX6o_wJIuuI68Pt4HcMMi6sC3JooW4YT0H3M6frOObjWVkKe07UWyfrj3epZR9EmHbKhZc4rdgxKdrytKliJ8nCu6Lnva0Vm5WTaNCW5VWCxYinrrVlRyB5g5-yojXa30Vf1NeyLOSST1gJxKFNcKjAp88mXifY2ryoogW1aehhba2qZTWfbncZBLFy1nlQSsXLz6HyGAkaElw_4wrZ_cP7rjBTDwNfjTFgvX_ctLog1jqHaYUbWA7F5Y2zprZIZ40w62hDG9wPOef7dQAgWueGE27GfgxhzkXbr-o_ihJ7zn1xk9lptztcXjwnDa9ualffb4-bZFm4]--></g></svg>