<svg xmlns="http://www.w3.org/2000/svg" xmlns:xlink="http://www.w3.org/1999/xlink" contentStyleType="text/css" data-diagram-type="ACTIVITY" height="498px" preserveAspectRatio="none" style="width:1024px;height:498px;background:#FFFFFF;" version="1.1" viewBox="0 0 1024 498" width="1024px" zoomAndPan="magnify"><defs/><g><ellipse cx="506.772" cy="20" fill="#222222" rx="10" ry="10" style="stroke:#222222;stroke-width:1;"/><polygon fill="#F1F1F1" points="455.0776,50,558.4663,50,570.4663,62,558.4663,74,455.0776,74,443.0776,62,455.0776,50" style="stroke:#181818;stroke-width:0.5;"/><text fill="#000000" font-family="arial" font-size="15" lengthAdjust="spacing" textLength="103.3887" x="455.0776" y="67.4456">Exception Type</text><rect fill="#B33A3A" height="305.564" style="stroke:#000000;stroke-width:1.5;" width="358.4937" x="11" y="103.9272"/><path d="M111.8716,103.9272 L111.8716,114.1758 L101.8716,124.1758 L11,124.1758" fill="none" style="stroke:#000000;stroke-width:1.5;"/><text fill="#000000" font-family="arial" font-size="15" lengthAdjust="spacing" textLength="90.8716" x="14" y="118.9971">Non-retryable</text><rect fill="#F1F1F1" height="37.2485" rx="12.5" ry="12.5" style="stroke:#181818;stroke-width:0.5;" width="81.6846" x="149.4045" y="141.1758"/><text fill="#000000" font-family="arial" font-size="15" lengthAdjust="spacing" textLength="57.5171" x="163.572" y="165.2456">Error log</text><rect fill="#F1F1F1" height="37.2485" rx="12.5" ry="12.5" style="stroke:#181818;stroke-width:0.5;" width="338.4937" x="21" y="207.7456"/><text fill="#000000" font-family="arial" font-size="15" lengthAdjust="spacing" textLength="314.3262" x="35.1675" y="231.8154">Update status of process in database (FAILED)</text><rect fill="#F1F1F1" height="37.2485" rx="12.5" ry="12.5" style="stroke:#181818;stroke-width:0.5;" width="185.9082" x="97.2927" y="279.9941"/><text fill="#000000" font-family="arial" font-size="15" lengthAdjust="spacing" textLength="161.7407" x="111.4602" y="304.064">Output file in error folder</text><rect fill="#F1F1F1" height="37.2485" rx="12.5" ry="12.5" style="stroke:#181818;stroke-width:0.5;" width="197.6196" x="91.437" y="352.2427"/><text fill="#000000" font-family="arial" font-size="15" lengthAdjust="spacing" textLength="173.4521" x="105.6045" y="376.3125">Push in Dead letter queue</text><rect fill="#8C5E3C" height="233.3154" style="stroke:#000000;stroke-width:1.5;" width="362.6904" x="379.4937" y="103.9272"/><path d="M475.3848,103.9272 L475.3848,114.1758 L465.3848,124.1758 L379.4937,124.1758" fill="none" style="stroke:#000000;stroke-width:1.5;"/><text fill="#000000" font-family="arial" font-size="15" lengthAdjust="spacing" textLength="85.8911" x="382.4937" y="118.9971">Unsupported</text><rect fill="#F1F1F1" height="37.2485" rx="12.5" ry="12.5" style="stroke:#181818;stroke-width:0.5;" width="104.2065" x="508.7356" y="141.1758"/><text fill="#000000" font-family="arial" font-size="15" lengthAdjust="spacing" textLength="80.0391" x="522.9031" y="165.2456">Warning log</text><rect fill="#F1F1F1" height="37.2485" rx="12.5" ry="12.5" style="stroke:#181818;stroke-width:0.5;" width="342.6904" x="389.4937" y="207.7456"/><text fill="#000000" font-family="arial" font-size="15" lengthAdjust="spacing" textLength="318.5229" x="403.6611" y="231.8154">Update status of process in database (#8c5e3c)</text><rect fill="#F1F1F1" height="37.2485" rx="12.5" ry="12.5" style="stroke:#181818;stroke-width:0.5;" width="237.6392" x="442.0193" y="279.9941"/><text fill="#000000" font-family="arial" font-size="15" lengthAdjust="spacing" textLength="213.4717" x="456.1868" y="304.064">Output file in unsupported folder</text><rect fill="#D9A441" height="178.0669" style="stroke:#000000;stroke-width:1.5;" width="212.5732" x="762.1841" y="103.9272"/><path d="M836.3809,103.9272 L836.3809,114.1758 L826.3809,124.1758 L762.1841,124.1758" fill="none" style="stroke:#000000;stroke-width:1.5;"/><text fill="#000000" font-family="arial" font-size="15" lengthAdjust="spacing" textLength="64.1968" x="765.1841" y="118.9971">Retryable</text><rect fill="#F1F1F1" height="37.2485" rx="12.5" ry="12.5" style="stroke:#181818;stroke-width:0.5;" width="147.5732" x="796.1841" y="200.7456"/><text fill="#000000" font-family="arial" font-size="15" lengthAdjust="spacing" textLength="127.5732" x="806.1841" y="224.8154">Retry the operation</text><polygon fill="#F1F1F1" points="825.7837,141.1758,914.1577,141.1758,926.1577,153.1758,914.1577,165.1758,825.7837,165.1758,813.7837,153.1758,825.7837,141.1758" style="stroke:#181818;stroke-width:0.5;"/><text fill="#000000" font-family="arial" font-size="15" lengthAdjust="spacing" textLength="90.0732" x="873.9707" y="179.2456">not exceeded</text><text fill="#000000" font-family="arial" font-size="15" lengthAdjust="spacing" textLength="88.374" x="825.7837" y="158.6213">Rety iteration</text><text fill="#000000" font-family="arial" font-size="15" lengthAdjust="spacing" textLength="65.0537" x="748.73" y="149.9971">exceeded</text><rect fill="#B33A3A" height="37.2485" rx="12.5" ry="12.5" style="stroke:#181818;stroke-width:0.5;" width="185.0806" x="777.4304" y="316.9941"/><text fill="#000000" font-family="arial" font-size="15" lengthAdjust="spacing" textLength="160.9131" x="791.5979" y="341.064">Non-retryable Exception</text><ellipse cx="869.9707" cy="400.2427" fill="none" rx="11" ry="11" style="stroke:#222222;stroke-width:1;"/><ellipse cx="869.9707" cy="400.2427" fill="#222222" rx="6" ry="6" style="stroke:#222222;stroke-width:1;"/><polygon fill="#F1F1F1" points="506.772,421.2427,506.772,421.2427,518.772,433.2427,506.772,445.2427,506.772,445.2427,494.772,433.2427,506.772,421.2427" style="stroke:#181818;stroke-width:0.5;"/><ellipse cx="506.772" cy="476.2427" fill="none" rx="11" ry="11" style="stroke:#222222;stroke-width:1;"/><ellipse cx="506.772" cy="476.2427" fill="#222222" rx="6" ry="6" style="stroke:#222222;stroke-width:1;"/><line style="stroke:#181818;stroke-width:1;" x1="190.2468" x2="190.2468" y1="178.4243" y2="207.7456"/><polygon fill="#181818" points="186.2468,197.7456,190.2468,207.7456,194.2468,197.7456,190.2468,201.7456" style="stroke:#181818;stroke-width:1;"/><line style="stroke:#181818;stroke-width:1;" x1="190.2468" x2="190.2468" y1="244.9941" y2="279.9941"/><polygon fill="#181818" points="186.2468,269.9941,190.2468,279.9941,194.2468,269.9941,190.2468,273.9941" style="stroke:#181818;stroke-width:1;"/><line style="stroke:#181818;stroke-width:1;" x1="190.2468" x2="190.2468" y1="317.2427" y2="352.2427"/><polygon fill="#181818" points="186.2468,342.2427,190.2468,352.2427,194.2468,342.2427,190.2468,346.2427" style="stroke:#181818;stroke-width:1;"/><line style="stroke:#181818;stroke-width:1;" x1="560.8389" x2="560.8389" y1="178.4243" y2="207.7456"/><polygon fill="#181818" points="556.8389,197.7456,560.8389,207.7456,564.8389,197.7456,560.8389,201.7456" style="stroke:#181818;stroke-width:1;"/><line style="stroke:#181818;stroke-width:1;" x1="560.8389" x2="560.8389" y1="244.9941" y2="279.9941"/><polygon fill="#181818" points="556.8389,269.9941,560.8389,279.9941,564.8389,269.9941,560.8389,273.9941" style="stroke:#181818;stroke-width:1;"/><line style="stroke:#181818;stroke-width:1;" x1="869.9707" x2="869.9707" y1="165.1758" y2="200.7456"/><polygon fill="#181818" points="865.9707,190.7456,869.9707,200.7456,873.9707,190.7456,869.9707,194.7456" style="stroke:#181818;stroke-width:1;"/><line style="stroke:#181818;stroke-width:1;" x1="869.9707" x2="869.9707" y1="237.9941" y2="249.9941"/><line style="stroke:#181818;stroke-width:1;" x1="869.9707" x2="955.7573" y1="249.9941" y2="249.9941"/><polygon fill="#181818" points="951.7573,208.7456,955.7573,198.7456,959.7573,208.7456,955.7573,204.7456" style="stroke:#181818;stroke-width:1;"/><line style="stroke:#181818;stroke-width:1;" x1="955.7573" x2="955.7573" y1="153.1758" y2="249.9941"/><line style="stroke:#181818;stroke-width:1;" x1="955.7573" x2="926.1577" y1="153.1758" y2="153.1758"/><polygon fill="#181818" points="936.1577,149.1758,926.1577,153.1758,936.1577,157.1758,932.1577,153.1758" style="stroke:#181818;stroke-width:1;"/><line style="stroke:#181818;stroke-width:1;" x1="813.7837" x2="784.1841" y1="153.1758" y2="153.1758"/><polygon fill="#181818" points="780.1841,194.7456,784.1841,204.7456,788.1841,194.7456,784.1841,198.7456" style="stroke:#181818;stroke-width:1;"/><line style="stroke:#181818;stroke-width:1;" x1="784.1841" x2="784.1841" y1="153.1758" y2="261.9941"/><line style="stroke:#181818;stroke-width:1;" x1="784.1841" x2="869.9707" y1="261.9941" y2="261.9941"/><line style="stroke:#181818;stroke-width:1;" x1="869.9707" x2="869.9707" y1="261.9941" y2="316.9941"/><polygon fill="#181818" points="865.9707,306.9941,869.9707,316.9941,873.9707,306.9941,869.9707,310.9941" style="stroke:#181818;stroke-width:1;"/><line style="stroke:#181818;stroke-width:1;" x1="869.9707" x2="869.9707" y1="354.2427" y2="389.2427"/><polygon fill="#181818" points="865.9707,379.2427,869.9707,389.2427,873.9707,379.2427,869.9707,383.2427" style="stroke:#181818;stroke-width:1;"/><line style="stroke:#181818;stroke-width:1;" x1="443.0776" x2="190.2468" y1="62" y2="62"/><line style="stroke:#181818;stroke-width:1;" x1="190.2468" x2="190.2468" y1="62" y2="141.1758"/><polygon fill="#181818" points="186.2468,131.1758,190.2468,141.1758,194.2468,131.1758,190.2468,135.1758" style="stroke:#181818;stroke-width:1;"/><text fill="#000000" font-family="arial" font-size="15" lengthAdjust="spacing" textLength="160.9131" x="194.4143" y="99.7485">Non-retryable Exception</text><line style="stroke:#181818;stroke-width:1;" x1="570.4663" x2="869.9707" y1="62" y2="62"/><line style="stroke:#181818;stroke-width:1;" x1="869.9707" x2="869.9707" y1="62" y2="141.1758"/><polygon fill="#181818" points="865.9707,131.1758,869.9707,141.1758,873.9707,131.1758,869.9707,135.1758" style="stroke:#181818;stroke-width:1;"/><text fill="#000000" font-family="arial" font-size="15" lengthAdjust="spacing" textLength="134.2383" x="874.1382" y="99.7485">Retryable Exception</text><line style="stroke:#181818;stroke-width:1;" x1="506.772" x2="506.772" y1="74" y2="86.6787"/><line style="stroke:#181818;stroke-width:1;" x1="506.772" x2="560.8389" y1="86.6787" y2="86.6787"/><line style="stroke:#181818;stroke-width:1;" x1="560.8389" x2="560.8389" y1="86.6787" y2="141.1758"/><polygon fill="#181818" points="556.8389,131.1758,560.8389,141.1758,564.8389,131.1758,560.8389,135.1758" style="stroke:#181818;stroke-width:1;"/><text fill="#000000" font-family="arial" font-size="15" lengthAdjust="spacing" textLength="155.9326" x="510.9395" y="100.7485">Unsupported Exception</text><line style="stroke:#181818;stroke-width:1;" x1="190.2468" x2="190.2468" y1="389.4912" y2="433.2427"/><line style="stroke:#181818;stroke-width:1;" x1="190.2468" x2="494.772" y1="433.2427" y2="433.2427"/><polygon fill="#181818" points="484.772,429.2427,494.772,433.2427,484.772,437.2427,488.772,433.2427" style="stroke:#181818;stroke-width:1;"/><line style="stroke:#181818;stroke-width:1;" x1="560.8389" x2="560.8389" y1="317.2427" y2="433.2427"/><line style="stroke:#181818;stroke-width:1;" x1="560.8389" x2="518.772" y1="433.2427" y2="433.2427"/><polygon fill="#181818" points="528.772,429.2427,518.772,433.2427,528.772,437.2427,524.772,433.2427" style="stroke:#181818;stroke-width:1;"/><line style="stroke:#181818;stroke-width:1;" x1="506.772" x2="506.772" y1="30" y2="50"/><polygon fill="#181818" points="502.772,40,506.772,50,510.772,40,506.772,44" style="stroke:#181818;stroke-width:1;"/><line style="stroke:#181818;stroke-width:1;" x1="506.772" x2="506.772" y1="445.2427" y2="465.2427"/><polygon fill="#181818" points="502.772,455.2427,506.772,465.2427,510.772,455.2427,506.772,459.2427" style="stroke:#181818;stroke-width:1;"/><!--SRC=[dLFRZjCm47ttLmpg0-t34afRBcM5jD2iXBHggsuhn1EQ9jF68hMDFI4R4F-Eayqs5yH5-2Nnp9dZCsViIyT5Icy4HYo_IYuM4eyMJ_1T05nhnUzqgYtiKum-rv4bdWZGIaphmAtyHZ2UYH_YCgZPnEE4sRXv4EHv_YGgEIuIklD_f-1-Pp0bPWh6JvzFPo-UYKSn7QGYMAu-RSBjvYCCzfC9Jl2Ss2rlT-lrQhCD5p1u6Sre4frpLSNLsviG1l4hd4x7GZX6o_wJIuuI68Pt4HcMMi6sC3JooW4YT0H3M6frOObjWVkKe07UWyfrj3epZR9EmHbKhZc4rdgxKdrytKliJ8nCu6Lnva0Vm5WTaNCW5VWCxYinrrVlRyB5g5-yojXa30Vf1NeyLOSST1gJxKFNcKjAp88mXifY2ryoogW1aehhba2qZTWfbncZBLFy1nlQSsXLz6HyGAkaElw_4wrZ_cP7rjBTDwNfjTFgvX_ctLog1jqHaYUbWA7F5Y2zprZIZ40w62hDG9wPOef7dQAgWueGE27GfgxhzkXbr-o_ihJ7zn1xk9lptztcXjwnDa9ualffb4-bZFm4]--></g></svg>