<svg xmlns="http://www.w3.org/2000/svg" xmlns:xlink="http://www.w3.org/1999/xlink" contentStyleType="text/css" data-diagram-type="SEQUENCE" height="1972px" preserveAspectRatio="none" style="width:1519px;height:1972px;background:#FFFFFF;" version="1.1" viewBox="0 0 1519 1972" width="1519px" zoomAndPan="magnify"><defs/><g><rect fill="#D3D3D3" height="1953.6719" style="stroke:#181818;stroke-width:0.5;" width="112.4058" x="11" y="6"/><text fill="#000000" font-family="sans-serif" font-size="13" font-weight="bold" lengthAdjust="spacing" textLength="106.4058" x="14" y="18.5684">External Service</text><rect fill="#FFFFFF" height="1953.6719" style="stroke:#181818;stroke-width:0.5;" width="1286.145" x="190.3462" y="6"/><text fill="#000000" font-family="sans-serif" font-size="13" font-weight="bold" lengthAdjust="spacing" textLength="103.7651" x="781.5361" y="18.5684">Internal Service</text><g><title>Postgres</title><rect fill="#FFFFFF" height="29.3105" style="stroke:#181818;stroke-width:1;" width="10" x="990.1152" y="547.4121"/></g><rect fill="none" height="252.4395" style="stroke:#000000;stroke-width:1.5;" width="788.7163" x="184.3462" y="177.4199"/><rect fill="#90EE90" height="133.1973" style="stroke:#000000;stroke-width:1.5;" width="460.771" x="502.2915" y="289.6621"/><rect fill="#FFC0CB" height="44.2656" style="stroke:none;stroke-width:1;" width="460.771" x="502.2915" y="378.5938"/><rect fill="#90EE90" height="244.0605" style="stroke:#000000;stroke-width:1.5;" width="851.9048" x="492.2915" y="676.3438"/><rect fill="#FFFFFF" height="61.9316" style="stroke:#000000;stroke-width:1.5;" width="628.9702" x="502.2915" y="700.6543"/><rect fill="#FFC0CB" height="150.8184" style="stroke:none;stroke-width:1;" width="851.9048" x="492.2915" y="769.5859"/><rect fill="#FFFFFF" height="121.8633" style="stroke:#000000;stroke-width:1.5;" width="831.9048" x="502.2915" y="791.541"/><rect fill="none" height="588.7422" style="stroke:#000000;stroke-width:1.5;" width="1040.1997" x="462.2915" y="1022.3359"/><rect fill="#90EE90" height="515.1211" style="stroke:#000000;stroke-width:1.5;" width="1020.1997" x="472.2915" y="1088.957"/><rect fill="#FFFFFF" height="288.3711" style="stroke:#000000;stroke-width:1.5;" width="668.9702" x="482.2915" y="1113.2676"/><rect fill="#90EE90" height="257.0605" style="stroke:#000000;stroke-width:1.5;" width="648.9702" x="492.2915" y="1137.5781"/><rect fill="#FFFFFF" height="137.1738" style="stroke:#000000;stroke-width:1.5;" width="628.9702" x="502.2915" y="1161.8887"/><rect fill="#FFC0CB" height="88.5762" style="stroke:none;stroke-width:1;" width="648.9702" x="492.2915" y="1306.0625"/><rect fill="#FFFFFF" height="59.6211" style="stroke:#000000;stroke-width:1.5;" width="339.7212" x="502.2915" y="1328.0176"/><rect fill="#FFC0CB" height="195.4395" style="stroke:none;stroke-width:1;" width="1020.1997" x="472.2915" y="1408.6387"/><rect fill="#FFFFFF" height="166.4844" style="stroke:#000000;stroke-width:1.5;" width="980.1997" x="502.2915" y="1430.5938"/><rect fill="none" height="164.1738" style="stroke:#000000;stroke-width:1.5;" width="702.4419" x="334.7261" y="1713.0098"/><g><title>Client</title><rect fill="#000000" fill-opacity="0.00000" height="1806.3848" width="8" x="63.2029" y="87.7988"/><line style="stroke:#181818;stroke-width:0.5;stroke-dasharray:5,5;" x1="66.4504" x2="66.4504" y1="87.7988" y2="1894.1836"/></g><g><title>Input Folder</title><rect fill="#000000" fill-opacity="0.00000" height="1806.3848" width="8" x="260.5361" y="87.7988"/><line style="stroke:#181818;stroke-width:0.5;stroke-dasharray:5,5;" x1="264.3462" x2="264.3462" y1="87.7988" y2="1894.1836"/></g><g><title>Success Folder</title><rect fill="#000000" fill-opacity="0.00000" height="1806.3848" width="8" x="419.5088" y="87.7988"/><line style="stroke:#181818;stroke-width:0.5;stroke-dasharray:5,5;" x1="422.7261" x2="422.7261" y1="87.7988" y2="1894.1836"/></g><g><title>Spring SWIFT Exchange</title><rect fill="#000000" fill-opacity="0.00000" height="1806.3848" width="8" x="613.939" y="87.7988"/><line style="stroke:#181818;stroke-width:0.5;stroke-dasharray:5,5;" x1="617.2915" x2="617.2915" y1="87.7988" y2="1894.1836"/></g><g><title>Redis</title><rect fill="#000000" fill-opacity="0.00000" height="1806.3848" width="8" x="927.7388" y="87.7988"/><line style="stroke:#181818;stroke-width:0.5;stroke-dasharray:5,5;" x1="931.415" x2="931.415" y1="87.7988" y2="1894.1836"/></g><g><title>Postgres</title><rect fill="#000000" fill-opacity="0.00000" height="1806.3848" width="8" x="991.1152" y="87.7988"/><line style="stroke:#181818;stroke-width:0.5;stroke-dasharray:5,5;" x1="995.0625" x2="995.0625" y1="87.7988" y2="1894.1836"/></g><g><title>ActiveMQ</title><rect fill="#000000" fill-opacity="0.00000" height="1806.3848" width="8" x="1075.2148" y="87.7988"/><line style="stroke:#181818;stroke-width:0.5;stroke-dasharray:5,5;" x1="1079.168" x2="1079.168" y1="87.7988" y2="1894.1836"/></g><g><title>Unsupported Folder</title><rect fill="#000000" fill-opacity="0.00000" height="1806.3848" width="8" x="1223.729" y="87.7988"/><line style="stroke:#181818;stroke-width:0.5;stroke-dasharray:5,5;" x1="1227.2617" x2="1227.2617" y1="87.7988" y2="1894.1836"/></g><g><title>Error Folder</title><rect fill="#000000" fill-opacity="0.00000" height="1806.3848" width="8" x="1399.3438" y="87.7988"/><line style="stroke:#181818;stroke-width:0.5;stroke-dasharray:5,5;" x1="1403.1963" x2="1403.1963" y1="87.7988" y2="1894.1836"/></g><g class="participant participant-head" data-participant="Client"><rect fill="#E2E2F0" height="30.4883" rx="2.5" ry="2.5" style="stroke:#181818;stroke-width:0.5;" width="53.5049" x="40.4504" y="56.3105"/><text fill="#000000" font-family="sans-serif" font-size="14" lengthAdjust="spacing" textLength="39.5049" x="47.4504" y="76.8457">Client</text></g><g class="participant participant-tail" data-participant="Client"><rect fill="#E2E2F0" height="30.4883" rx="2.5" ry="2.5" style="stroke:#181818;stroke-width:0.5;" width="53.5049" x="40.4504" y="1893.1836"/><text fill="#000000" font-family="sans-serif" font-size="14" lengthAdjust="spacing" textLength="39.5049" x="47.4504" y="1913.7188">Client</text></g><g class="participant participant-head" data-participant="Input"><rect fill="#E2E2F0" height="30.4883" style="stroke:#181818;stroke-width:0.5;" width="96.3799" x="218.3462" y="52.3105"/><rect fill="#E2E2F0" height="30.4883" style="stroke:#181818;stroke-width:0.5;" width="96.3799" x="214.3462" y="56.3105"/><text fill="#000000" font-family="sans-serif" font-size="14" lengthAdjust="spacing" textLength="82.3799" x="221.3462" y="76.8457">Input Folder</text></g><g class="participant participant-tail" data-participant="Input"><rect fill="#E2E2F0" height="30.4883" style="stroke:#181818;stroke-width:0.5;" width="96.3799" x="218.3462" y="1893.1836"/><rect fill="#E2E2F0" height="30.4883" style="stroke:#181818;stroke-width:0.5;" width="96.3799" x="214.3462" y="1897.1836"/><text fill="#000000" font-family="sans-serif" font-size="14" lengthAdjust="spacing" textLength="82.3799" x="221.3462" y="1917.7188">Input Folder</text></g><g class="participant participant-head" data-participant="Success"><rect fill="#E2E2F0" height="30.4883" style="stroke:#181818;stroke-width:0.5;" width="113.5654" x="368.7261" y="52.3105"/><rect fill="#E2E2F0" height="30.4883" style="stroke:#181818;stroke-width:0.5;" width="113.5654" x="364.7261" y="56.3105"/><text fill="#000000" font-family="sans-serif" font-size="14" lengthAdjust="spacing" textLength="99.5654" x="371.7261" y="76.8457">Success Folder</text></g><g class="participant participant-tail" data-participant="Success"><rect fill="#E2E2F0" height="30.4883" style="stroke:#181818;stroke-width:0.5;" width="113.5654" x="368.7261" y="1893.1836"/><rect fill="#E2E2F0" height="30.4883" style="stroke:#181818;stroke-width:0.5;" width="113.5654" x="364.7261" y="1897.1836"/><text fill="#000000" font-family="sans-serif" font-size="14" lengthAdjust="spacing" textLength="99.5654" x="371.7261" y="1917.7188">Success Folder</text></g><g class="participant participant-head" data-participant="App"><rect fill="#E2E2F0" height="30.4883" rx="2.5" ry="2.5" style="stroke:#181818;stroke-width:0.5;" width="171.2949" x="532.2915" y="56.3105"/><text fill="#000000" font-family="sans-serif" font-size="14" lengthAdjust="spacing" textLength="157.2949" x="539.2915" y="76.8457">Spring SWIFT Exchange</text></g><g class="participant participant-tail" data-participant="App"><rect fill="#E2E2F0" height="30.4883" rx="2.5" ry="2.5" style="stroke:#181818;stroke-width:0.5;" width="171.2949" x="532.2915" y="1893.1836"/><text fill="#000000" font-family="sans-serif" font-size="14" lengthAdjust="spacing" textLength="157.2949" x="539.2915" y="1913.7188">Spring SWIFT Exchange</text></g><g class="participant participant-head" data-participant="Redis"><text fill="#000000" font-family="sans-serif" font-size="14" lengthAdjust="spacing" textLength="36.6475" x="910.415" y="84.8457">Redis</text><path d="M913.7388,35.3105 C913.7388,25.3105 931.7388,25.3105 931.7388,25.3105 C931.7388,25.3105 949.7388,25.3105 949.7388,35.3105 L949.7388,61.3105 C949.7388,71.3105 931.7388,71.3105 931.7388,71.3105 C931.7388,71.3105 913.7388,71.3105 913.7388,61.3105 L913.7388,35.3105" fill="#FF0000" style="stroke:#181818;stroke-width:0.5;"/><path d="M913.7388,35.3105 C913.7388,45.3105 931.7388,45.3105 931.7388,45.3105 C931.7388,45.3105 949.7388,45.3105 949.7388,35.3105" fill="none" style="stroke:#181818;stroke-width:0.5;"/></g><g class="participant participant-tail" data-participant="Redis"><text fill="#000000" font-family="sans-serif" font-size="14" lengthAdjust="spacing" textLength="36.6475" x="910.415" y="1906.7188">Redis</text><path d="M913.7388,1919.6719 C913.7388,1909.6719 931.7388,1909.6719 931.7388,1909.6719 C931.7388,1909.6719 949.7388,1909.6719 949.7388,1919.6719 L949.7388,1945.6719 C949.7388,1955.6719 931.7388,1955.6719 931.7388,1955.6719 C931.7388,1955.6719 913.7388,1955.6719 913.7388,1945.6719 L913.7388,1919.6719" fill="#FF0000" style="stroke:#181818;stroke-width:0.5;"/><path d="M913.7388,1919.6719 C913.7388,1929.6719 931.7388,1929.6719 931.7388,1929.6719 C931.7388,1929.6719 949.7388,1929.6719 949.7388,1919.6719" fill="none" style="stroke:#181818;stroke-width:0.5;"/></g><g class="participant participant-head" data-participant="PG"><text fill="#000000" font-family="sans-serif" font-size="14" lengthAdjust="spacing" textLength="58.1055" x="963.0625" y="84.8457">Postgres</text><path d="M977.1152,35.3105 C977.1152,25.3105 995.1152,25.3105 995.1152,25.3105 C995.1152,25.3105 1013.1152,25.3105 1013.1152,35.3105 L1013.1152,61.3105 C1013.1152,71.3105 995.1152,71.3105 995.1152,71.3105 C995.1152,71.3105 977.1152,71.3105 977.1152,61.3105 L977.1152,35.3105" fill="#FFFFFF" style="stroke:#181818;stroke-width:0.5;"/><path d="M977.1152,35.3105 C977.1152,45.3105 995.1152,45.3105 995.1152,45.3105 C995.1152,45.3105 1013.1152,45.3105 1013.1152,35.3105" fill="none" style="stroke:#181818;stroke-width:0.5;"/></g><g class="participant participant-tail" data-participant="PG"><text fill="#000000" font-family="sans-serif" font-size="14" lengthAdjust="spacing" textLength="58.1055" x="963.0625" y="1906.7188">Postgres</text><path d="M977.1152,1919.6719 C977.1152,1909.6719 995.1152,1909.6719 995.1152,1909.6719 C995.1152,1909.6719 1013.1152,1909.6719 1013.1152,1919.6719 L1013.1152,1945.6719 C1013.1152,1955.6719 995.1152,1955.6719 995.1152,1955.6719 C995.1152,1955.6719 977.1152,1955.6719 977.1152,1945.6719 L977.1152,1919.6719" fill="#FFFFFF" style="stroke:#181818;stroke-width:0.5;"/><path d="M977.1152,1919.6719 C977.1152,1929.6719 995.1152,1929.6719 995.1152,1929.6719 C995.1152,1929.6719 1013.1152,1929.6719 1013.1152,1919.6719" fill="none" style="stroke:#181818;stroke-width:0.5;"/></g><g class="participant participant-head" data-participant="MQ"><path d="M1042.168,61.3105 L1116.2617,61.3105 C1121.2617,61.3105 1121.2617,74.5547 1121.2617,74.5547 C1121.2617,74.5547 1121.2617,87.7988 1116.2617,87.7988 L1042.168,87.7988 C1037.168,87.7988 1037.168,74.5547 1037.168,74.5547 C1037.168,74.5547 1037.168,61.3105 1042.168,61.3105" fill="#FFA500" style="stroke:#181818;stroke-width:0.5;"/><path d="M1116.2617,61.3105 C1111.2617,61.3105 1111.2617,74.5547 1111.2617,74.5547 C1111.2617,87.7988 1116.2617,87.7988 1116.2617,87.7988" fill="none" style="stroke:#181818;stroke-width:0.5;"/><text fill="#000000" font-family="sans-serif" font-size="14" lengthAdjust="spacing" textLength="64.0938" x="1042.168" y="79.8457">ActiveMQ</text></g><g class="participant participant-tail" data-participant="MQ"><path d="M1042.168,1893.1836 L1116.2617,1893.1836 C1121.2617,1893.1836 1121.2617,1906.4277 1121.2617,1906.4277 C1121.2617,1906.4277 1121.2617,1919.6719 1116.2617,1919.6719 L1042.168,1919.6719 C1037.168,1919.6719 1037.168,1906.4277 1037.168,1906.4277 C1037.168,1906.4277 1037.168,1893.1836 1042.168,1893.1836" fill="#FFA500" style="stroke:#181818;stroke-width:0.5;"/><path d="M1116.2617,1893.1836 C1111.2617,1893.1836 1111.2617,1906.4277 1111.2617,1906.4277 C1111.2617,1919.6719 1116.2617,1919.6719 1116.2617,1919.6719" fill="none" style="stroke:#181818;stroke-width:0.5;"/><text fill="#000000" font-family="sans-serif" font-size="14" lengthAdjust="spacing" textLength="64.0938" x="1042.168" y="1911.7188">ActiveMQ</text></g><g class="participant participant-head" data-participant="Unsupported"><rect fill="#E2E2F0" height="30.4883" style="stroke:#181818;stroke-width:0.5;" width="148.9346" x="1155.2617" y="52.3105"/><rect fill="#E2E2F0" height="30.4883" style="stroke:#181818;stroke-width:0.5;" width="148.9346" x="1151.2617" y="56.3105"/><text fill="#000000" font-family="sans-serif" font-size="14" lengthAdjust="spacing" textLength="134.9346" x="1158.2617" y="76.8457">Unsupported Folder</text></g><g class="participant participant-tail" data-participant="Unsupported"><rect fill="#E2E2F0" height="30.4883" style="stroke:#181818;stroke-width:0.5;" width="148.9346" x="1155.2617" y="1893.1836"/><rect fill="#E2E2F0" height="30.4883" style="stroke:#181818;stroke-width:0.5;" width="148.9346" x="1151.2617" y="1897.1836"/><text fill="#000000" font-family="sans-serif" font-size="14" lengthAdjust="spacing" textLength="134.9346" x="1158.2617" y="1917.7188">Unsupported Folder</text></g><g class="participant participant-head" data-participant="Error"><rect fill="#E2E2F0" height="30.4883" style="stroke:#181818;stroke-width:0.5;" width="94.2949" x="1358.1963" y="52.3105"/><rect fill="#E2E2F0" height="30.4883" style="stroke:#181818;stroke-width:0.5;" width="94.2949" x="1354.1963" y="56.3105"/><text fill="#000000" font-family="sans-serif" font-size="14" lengthAdjust="spacing" textLength="80.2949" x="1361.1963" y="76.8457">Error Folder</text></g><g class="participant participant-tail" data-participant="Error"><rect fill="#E2E2F0" height="30.4883" style="stroke:#181818;stroke-width:0.5;" width="94.2949" x="1358.1963" y="1893.1836"/><rect fill="#E2E2F0" height="30.4883" style="stroke:#181818;stroke-width:0.5;" width="94.2949" x="1354.1963" y="1897.1836"/><text fill="#000000" font-family="sans-serif" font-size="14" lengthAdjust="spacing" textLength="80.2949" x="1361.1963" y="1917.7188">Error Folder</text></g><g><title>Postgres</title><rect fill="#FFFFFF" height="29.3105" style="stroke:#181818;stroke-width:1;" width="10" x="990.1152" y="547.4121"/></g><rect fill="#EEEEEE" height="3" style="stroke:#EEEEEE;stroke-width:1;" width="1512.4912" x="0" y="118.4541"/><line style="stroke:#000000;stroke-width:1;" x1="0" x2="1512.4912" y1="118.4541" y2="118.4541"/><line style="stroke:#000000;stroke-width:1;" x1="0" x2="1512.4912" y1="121.4541" y2="121.4541"/><rect fill="#EEEEEE" height="23.3105" style="stroke:#000000;stroke-width:2;" width="178.8486" x="666.8213" y="107.7988"/><text fill="#000000" font-family="sans-serif" font-size="13" font-weight="bold" lengthAdjust="spacing" textLength="160.564" x="672.8213" y="124.3672">File reception: FileRoute</text><g class="message" data-participant-1="Client" data-participant-2="Input"><polygon fill="#181818" points="252.5361,158.4199,262.5361,162.4199,252.5361,166.4199,256.5361,162.4199" style="stroke:#181818;stroke-width:1;"/><line style="stroke:#181818;stroke-width:1;" x1="67.2029" x2="258.5361" y1="162.4199" y2="162.4199"/><text fill="#000000" font-family="sans-serif" font-size="13" lengthAdjust="spacing" textLength="167.8828" x="74.2029" y="157.6777">Deliver SWIFT message file</text></g><path d="M184.3462,177.4199 L356.896,177.4199 L356.896,184.7305 L346.896,194.7305 L184.3462,194.7305 L184.3462,177.4199" fill="#EEEEEE" style="stroke:#000000;stroke-width:1.5;"/><rect fill="none" height="252.4395" style="stroke:#000000;stroke-width:1.5;" width="788.7163" x="184.3462" y="177.4199"/><text fill="#000000" font-family="sans-serif" font-size="13" font-weight="bold" lengthAdjust="spacing" textLength="127.5498" x="199.3462" y="190.9883">Camel File Listener</text><g class="message" data-participant-1="App" data-participant-2="Input"><polygon fill="#181818" points="275.5361,212.041,265.5361,216.041,275.5361,220.041,271.5361,216.041" style="stroke:#181818;stroke-width:1;"/><line style="stroke:#181818;stroke-width:1;" x1="269.5361" x2="616.939" y1="216.041" y2="216.041"/><text fill="#000000" font-family="sans-serif" font-size="13" lengthAdjust="spacing" textLength="59.1855" x="281.5361" y="211.2988">Scan files</text></g><g class="message" data-participant-1="Input" data-participant-2="App"><polygon fill="#181818" points="605.939,241.3516,615.939,245.3516,605.939,249.3516,609.939,245.3516" style="stroke:#181818;stroke-width:1;"/><line style="stroke:#181818;stroke-width:1;stroke-dasharray:2,2;" x1="264.5361" x2="611.939" y1="245.3516" y2="245.3516"/><text fill="#000000" font-family="sans-serif" font-size="13" lengthAdjust="spacing" textLength="80.0693" x="271.5361" y="240.6094">Find new file</text></g><g class="message" data-participant-1="App" data-participant-2="Redis"><polygon fill="#181818" points="919.7388,270.6621,929.7388,274.6621,919.7388,278.6621,923.7388,274.6621" style="stroke:#181818;stroke-width:1;"/><line style="stroke:#181818;stroke-width:1;" x1="617.939" x2="925.7388" y1="274.6621" y2="274.6621"/><text fill="#000000" font-family="sans-serif" font-size="13" lengthAdjust="spacing" textLength="97.1255" x="624.939" y="269.9199">Ask lock on file</text></g><path d="M502.2915,289.6621 L564.4302,289.6621 L564.4302,296.9727 L554.4302,306.9727 L502.2915,306.9727 L502.2915,289.6621" fill="#EEEEEE" style="stroke:#000000;stroke-width:1.5;"/><rect fill="none" height="133.1973" style="stroke:#000000;stroke-width:1.5;" width="460.771" x="502.2915" y="289.6621"/><text fill="#000000" font-family="sans-serif" font-size="13" font-weight="bold" lengthAdjust="spacing" textLength="17.1387" x="517.2915" y="303.2305">alt</text><text fill="#000000" font-family="sans-serif" font-size="11" font-weight="bold" lengthAdjust="spacing" textLength="136.4634" x="579.4302" y="302.2969">[File not already locked]</text><g class="message" data-participant-1="Redis" data-participant-2="App"><polygon fill="#181818" points="628.939,324.2832,618.939,328.2832,628.939,332.2832,624.939,328.2832" style="stroke:#181818;stroke-width:1;"/><line style="stroke:#181818;stroke-width:1;stroke-dasharray:2,2;" x1="622.939" x2="930.7388" y1="328.2832" y2="328.2832"/><text fill="#000000" font-family="sans-serif" font-size="13" lengthAdjust="spacing" textLength="77.1113" x="634.939" y="323.541">Lock the file</text></g><g class="message" data-participant-1="App" data-participant-2="App"><line style="stroke:#181818;stroke-width:1;" x1="617.939" x2="659.939" y1="357.5938" y2="357.5938"/><line style="stroke:#181818;stroke-width:1;" x1="659.939" x2="659.939" y1="357.5938" y2="370.5938"/><line style="stroke:#181818;stroke-width:1;" x1="618.939" x2="659.939" y1="370.5938" y2="370.5938"/><polygon fill="#181818" points="628.939,366.5938,618.939,370.5938,628.939,374.5938,624.939,370.5938" style="stroke:#181818;stroke-width:1;"/><text fill="#000000" font-family="sans-serif" font-size="13" lengthAdjust="spacing" textLength="200.3193" x="624.939" y="352.8516">Move file to ".inprogress" folder</text></g><line style="stroke:#000000;stroke-width:1;stroke-dasharray:2,2;" x1="502.2915" x2="963.0625" y1="379.5938" y2="379.5938"/><text fill="#000000" font-family="sans-serif" font-size="11" font-weight="bold" lengthAdjust="spacing" textLength="114.1304" x="507.2915" y="390.2285">[File already locked]</text><g class="message" data-participant-1="Redis" data-participant-2="App"><polygon fill="#181818" points="628.939,410.8594,618.939,414.8594,628.939,418.8594,624.939,414.8594" style="stroke:#181818;stroke-width:1;"/><line style="stroke:#181818;stroke-width:1;stroke-dasharray:2,2;" x1="622.939" x2="930.7388" y1="414.8594" y2="414.8594"/><text fill="#000000" font-family="sans-serif" font-size="13" lengthAdjust="spacing" textLength="112.9058" x="634.939" y="410.1172">Lock not acquired</text></g><rect fill="#EEEEEE" height="3" style="stroke:#EEEEEE;stroke-width:1;" width="1512.4912" x="0" y="457.5146"/><line style="stroke:#000000;stroke-width:1;" x1="0" x2="1512.4912" y1="457.5146" y2="457.5146"/><line style="stroke:#000000;stroke-width:1;" x1="0" x2="1512.4912" y1="460.5146" y2="460.5146"/><rect fill="#EEEEEE" height="23.3105" style="stroke:#000000;stroke-width:2;" width="165.1821" x="673.6545" y="446.8594"/><text fill="#000000" font-family="sans-serif" font-size="13" font-weight="bold" lengthAdjust="spacing" textLength="146.8975" x="679.6545" y="463.4277">Process file: FileRoute</text><g class="message" data-participant-1="App" data-participant-2="PG"><polygon fill="#181818" points="978.1152,543.4121,988.1152,547.4121,978.1152,551.4121,982.1152,547.4121" style="stroke:#181818;stroke-width:1;"/><line style="stroke:#181818;stroke-width:1;" x1="617.939" x2="984.1152" y1="547.4121" y2="547.4121"/><text fill="#000000" font-family="sans-serif" font-size="13" lengthAdjust="spacing" textLength="123.0366" x="624.939" y="496.7383">Create new process</text><text fill="#000000" font-family="sans-serif" font-size="13" font-weight="bold" lengthAdjust="spacing" textLength="62.0864" x="624.939" y="512.0488">Database</text><text fill="#000000" font-family="sans-serif" font-size="13" lengthAdjust="spacing" textLength="54.6343" x="687.0254" y="512.0488">: swiftdb</text><text fill="#000000" font-family="sans-serif" font-size="13" font-weight="bold" lengthAdjust="spacing" textLength="37.0703" x="624.939" y="527.3594">Table</text><text fill="#000000" font-family="sans-serif" font-size="13" lengthAdjust="spacing" textLength="56.8687" x="662.0093" y="527.3594">: process</text><text fill="#000000" font-family="sans-serif" font-size="13" font-weight="bold" lengthAdjust="spacing" textLength="41.4946" x="624.939" y="542.6699">Status</text><text fill="#000000" font-family="sans-serif" font-size="13" lengthAdjust="spacing" textLength="66.46" x="666.4336" y="542.6699">: CREATED</text></g><g class="message" data-participant-1="PG" data-participant-2="App"><polygon fill="#181818" points="628.939,572.7227,618.939,576.7227,628.939,580.7227,624.939,576.7227" style="stroke:#181818;stroke-width:1;"/><line style="stroke:#181818;stroke-width:1;stroke-dasharray:2,2;" x1="622.939" x2="994.1152" y1="576.7227" y2="576.7227"/><text fill="#000000" font-family="sans-serif" font-size="13" lengthAdjust="spacing" textLength="65.2412" x="634.939" y="571.9805">Process ID</text></g><g class="message" data-participant-1="App" data-participant-2="App"><line style="stroke:#181818;stroke-width:1;" x1="617.939" x2="659.939" y1="606.0332" y2="606.0332"/><line style="stroke:#181818;stroke-width:1;" x1="659.939" x2="659.939" y1="606.0332" y2="619.0332"/><line style="stroke:#181818;stroke-width:1;" x1="618.939" x2="659.939" y1="619.0332" y2="619.0332"/><polygon fill="#181818" points="628.939,615.0332,618.939,619.0332,628.939,623.0332,624.939,619.0332" style="stroke:#181818;stroke-width:1;"/><text fill="#000000" font-family="sans-serif" font-size="13" lengthAdjust="spacing" textLength="299.7998" x="624.939" y="601.291">Rename file with Process ID prefix (uniqueness)</text></g><g class="message" data-participant-1="App" data-participant-2="App"><line style="stroke:#181818;stroke-width:1;" x1="617.939" x2="659.939" y1="648.3438" y2="648.3438"/><line style="stroke:#181818;stroke-width:1;" x1="659.939" x2="659.939" y1="648.3438" y2="661.3438"/><line style="stroke:#181818;stroke-width:1;" x1="618.939" x2="659.939" y1="661.3438" y2="661.3438"/><polygon fill="#181818" points="628.939,657.3438,618.939,661.3438,628.939,665.3438,624.939,661.3438" style="stroke:#181818;stroke-width:1;"/><text fill="#000000" font-family="sans-serif" font-size="13" lengthAdjust="spacing" textLength="207.4287" x="624.939" y="643.6016">Encrich Camel Exchange headers</text></g><path d="M492.2915,676.3438 L554.4302,676.3438 L554.4302,683.6543 L544.4302,693.6543 L492.2915,693.6543 L492.2915,676.3438" fill="#EEEEEE" style="stroke:#000000;stroke-width:1.5;"/><rect fill="none" height="244.0605" style="stroke:#000000;stroke-width:1.5;" width="851.9048" x="492.2915" y="676.3438"/><text fill="#000000" font-family="sans-serif" font-size="13" font-weight="bold" lengthAdjust="spacing" textLength="17.1387" x="507.2915" y="689.9121">alt</text><text fill="#000000" font-family="sans-serif" font-size="11" font-weight="bold" lengthAdjust="spacing" textLength="137.2583" x="569.4302" y="688.9785">[File extension is ".xml"]</text><path d="M502.2915,700.6543 L599.4121,700.6543 L599.4121,707.9648 L589.4121,717.9648 L502.2915,717.9648 L502.2915,700.6543" fill="#EEEEEE" style="stroke:#000000;stroke-width:1.5;"/><rect fill="none" height="61.9316" style="stroke:#000000;stroke-width:1.5;" width="628.9702" x="502.2915" y="700.6543"/><text fill="#000000" font-family="sans-serif" font-size="13" font-weight="bold" lengthAdjust="spacing" textLength="52.1206" x="517.2915" y="714.2227">Success</text><g class="message" data-participant-1="App" data-participant-2="MQ"><polygon fill="#181818" points="1067.2148,750.5859,1077.2148,754.5859,1067.2148,758.5859,1071.2148,754.5859" style="stroke:#181818;stroke-width:1;"/><line style="stroke:#181818;stroke-width:1;" x1="617.939" x2="1073.2148" y1="754.5859" y2="754.5859"/><text fill="#000000" font-family="sans-serif" font-size="13" lengthAdjust="spacing" textLength="173.7227" x="624.939" y="734.5332">Send to the validator queue</text><text fill="#000000" font-family="sans-serif" font-size="13" font-weight="bold" lengthAdjust="spacing" textLength="43.0181" x="624.939" y="749.8438">Queue</text><text fill="#000000" font-family="sans-serif" font-size="13" lengthAdjust="spacing" textLength="100.7437" x="667.957" y="749.8438">: swift-validator</text></g><line style="stroke:#000000;stroke-width:1;stroke-dasharray:2,2;" x1="492.2915" x2="1344.1963" y1="770.5859" y2="770.5859"/><text fill="#000000" font-family="sans-serif" font-size="11" font-weight="bold" lengthAdjust="spacing" textLength="99.0806" x="497.2915" y="781.2207">[Other extension]</text><path d="M502.2915,791.541 L699.2036,791.541 L699.2036,798.8516 L689.2036,808.8516 L502.2915,808.8516 L502.2915,791.541" fill="#EEEEEE" style="stroke:#000000;stroke-width:1.5;"/><rect fill="none" height="121.8633" style="stroke:#000000;stroke-width:1.5;" width="831.9048" x="502.2915" y="791.541"/><text fill="#000000" font-family="sans-serif" font-size="13" font-weight="bold" lengthAdjust="spacing" textLength="151.9121" x="517.2915" y="805.1094">UnsupportedException</text><g class="message" data-participant-1="App" data-participant-2="PG"><polygon fill="#181818" points="983.1152,872.0938,993.1152,876.0938,983.1152,880.0938,987.1152,876.0938" style="stroke:#181818;stroke-width:1;"/><line style="stroke:#181818;stroke-width:1;" x1="617.939" x2="989.1152" y1="876.0938" y2="876.0938"/><text fill="#000000" font-family="sans-serif" font-size="13" lengthAdjust="spacing" textLength="86.9946" x="624.939" y="825.4199">Update status</text><text fill="#000000" font-family="sans-serif" font-size="13" font-weight="bold" lengthAdjust="spacing" textLength="62.0864" x="624.939" y="840.7305">Database</text><text fill="#000000" font-family="sans-serif" font-size="13" lengthAdjust="spacing" textLength="54.6343" x="687.0254" y="840.7305">: swiftdb</text><text fill="#000000" font-family="sans-serif" font-size="13" font-weight="bold" lengthAdjust="spacing" textLength="37.0703" x="624.939" y="856.041">Table</text><text fill="#000000" font-family="sans-serif" font-size="13" lengthAdjust="spacing" textLength="56.8687" x="662.0093" y="856.041">: process</text><text fill="#000000" font-family="sans-serif" font-size="13" font-weight="bold" lengthAdjust="spacing" textLength="41.4946" x="624.939" y="871.3516">Status</text><text fill="#000000" font-family="sans-serif" font-size="13" lengthAdjust="spacing" textLength="100.5405" x="666.4336" y="871.3516">: UNSUPPORTED</text></g><g class="message" data-participant-1="App" data-participant-2="Unsupported"><polygon fill="#181818" points="1215.729,901.4043,1225.729,905.4043,1215.729,909.4043,1219.729,905.4043" style="stroke:#181818;stroke-width:1;"/><line style="stroke:#181818;stroke-width:1;" x1="617.939" x2="1221.729" y1="905.4043" y2="905.4043"/><text fill="#000000" font-family="sans-serif" font-size="13" lengthAdjust="spacing" textLength="139.4326" x="624.939" y="900.6621">Move file to the folder</text></g><rect fill="#EEEEEE" height="3" style="stroke:#EEEEEE;stroke-width:1;" width="1512.4912" x="0" y="948.0596"/><line style="stroke:#000000;stroke-width:1;" x1="0" x2="1512.4912" y1="948.0596" y2="948.0596"/><line style="stroke:#000000;stroke-width:1;" x1="0" x2="1512.4912" y1="951.0596" y2="951.0596"/><rect fill="#EEEEEE" height="23.3105" style="stroke:#000000;stroke-width:2;" width="200.0244" x="656.2334" y="937.4043"/><text fill="#000000" font-family="sans-serif" font-size="13" font-weight="bold" lengthAdjust="spacing" textLength="181.7397" x="662.2334" y="953.9727">Validation: ValidationRoute</text><g class="message" data-participant-1="MQ" data-participant-2="App"><polygon fill="#181818" points="628.939,1003.3359,618.939,1007.3359,628.939,1011.3359,624.939,1007.3359" style="stroke:#181818;stroke-width:1;"/><ellipse cx="1078.7148" cy="1006.5859" fill="#000000" rx="4" ry="4" style="stroke:#181818;stroke-width:1.5;"/><line style="stroke:#181818;stroke-width:1;" x1="622.939" x2="1074.2148" y1="1007.3359" y2="1007.3359"/><text fill="#000000" font-family="sans-serif" font-size="13" lengthAdjust="spacing" textLength="106.3677" x="634.939" y="987.2832">Receive message</text><text fill="#000000" font-family="sans-serif" font-size="13" font-weight="bold" lengthAdjust="spacing" textLength="43.0181" x="634.939" y="1002.5938">Queue</text><text fill="#000000" font-family="sans-serif" font-size="13" lengthAdjust="spacing" textLength="100.7437" x="677.957" y="1002.5938">: swift-validator</text></g><path d="M462.2915,1022.3359 L543.7842,1022.3359 L543.7842,1029.6465 L533.7842,1039.6465 L462.2915,1039.6465 L462.2915,1022.3359" fill="#EEEEEE" style="stroke:#000000;stroke-width:1.5;"/><rect fill="none" height="588.7422" style="stroke:#000000;stroke-width:1.5;" width="1040.1997" x="462.2915" y="1022.3359"/><text fill="#000000" font-family="sans-serif" font-size="13" font-weight="bold" lengthAdjust="spacing" textLength="36.4927" x="477.2915" y="1035.9043">Parse</text><g class="message" data-participant-1="App" data-participant-2="App"><line style="stroke:#181818;stroke-width:1;" x1="617.939" x2="659.939" y1="1060.957" y2="1060.957"/><line style="stroke:#181818;stroke-width:1;" x1="659.939" x2="659.939" y1="1060.957" y2="1073.957"/><line style="stroke:#181818;stroke-width:1;" x1="618.939" x2="659.939" y1="1073.957" y2="1073.957"/><polygon fill="#181818" points="628.939,1069.957,618.939,1073.957,628.939,1077.957,624.939,1073.957" style="stroke:#181818;stroke-width:1;"/><text fill="#000000" font-family="sans-serif" font-size="13" lengthAdjust="spacing" textLength="129.3081" x="624.939" y="1056.2148">Validate well formed</text></g><path d="M472.2915,1088.957 L534.4302,1088.957 L534.4302,1096.2676 L524.4302,1106.2676 L472.2915,1106.2676 L472.2915,1088.957" fill="#EEEEEE" style="stroke:#000000;stroke-width:1.5;"/><rect fill="none" height="515.1211" style="stroke:#000000;stroke-width:1.5;" width="1020.1997" x="472.2915" y="1088.957"/><text fill="#000000" font-family="sans-serif" font-size="13" font-weight="bold" lengthAdjust="spacing" textLength="17.1387" x="487.2915" y="1102.5254">alt</text><text fill="#000000" font-family="sans-serif" font-size="11" font-weight="bold" lengthAdjust="spacing" textLength="76.3071" x="549.4302" y="1101.5918">[Well formed]</text><path d="M482.2915,1113.2676 L606.3706,1113.2676 L606.3706,1120.5781 L596.3706,1130.5781 L482.2915,1130.5781 L482.2915,1113.2676" fill="#EEEEEE" style="stroke:#000000;stroke-width:1.5;"/><rect fill="none" height="288.3711" style="stroke:#000000;stroke-width:1.5;" width="668.9702" x="482.2915" y="1113.2676"/><text fill="#000000" font-family="sans-serif" font-size="13" font-weight="bold" lengthAdjust="spacing" textLength="79.0791" x="497.2915" y="1126.8359">Validate MX</text><path d="M492.2915,1137.5781 L554.4302,1137.5781 L554.4302,1144.8887 L544.4302,1154.8887 L492.2915,1154.8887 L492.2915,1137.5781" fill="#EEEEEE" style="stroke:#000000;stroke-width:1.5;"/><rect fill="none" height="257.0605" style="stroke:#000000;stroke-width:1.5;" width="648.9702" x="492.2915" y="1137.5781"/><text fill="#000000" font-family="sans-serif" font-size="13" font-weight="bold" lengthAdjust="spacing" textLength="17.1387" x="507.2915" y="1151.1465">alt</text><text fill="#000000" font-family="sans-serif" font-size="11" font-weight="bold" lengthAdjust="spacing" textLength="115.6772" x="569.4302" y="1150.2129">[Valid &amp; 008.001.08]</text><path d="M502.2915,1161.8887 L622.3208,1161.8887 L622.3208,1169.1992 L612.3208,1179.1992 L502.2915,1179.1992 L502.2915,1161.8887" fill="#EEEEEE" style="stroke:#000000;stroke-width:1.5;"/><rect fill="none" height="137.1738" style="stroke:#000000;stroke-width:1.5;" width="628.9702" x="502.2915" y="1161.8887"/><text fill="#000000" font-family="sans-serif" font-size="13" font-weight="bold" lengthAdjust="spacing" textLength="75.0293" x="517.2915" y="1175.457">008.001.08</text><g class="message" data-participant-1="App" data-participant-2="PG"><polygon fill="#181818" points="983.1152,1242.4414,993.1152,1246.4414,983.1152,1250.4414,987.1152,1246.4414" style="stroke:#181818;stroke-width:1;"/><line style="stroke:#181818;stroke-width:1;" x1="617.939" x2="989.1152" y1="1246.4414" y2="1246.4414"/><text fill="#000000" font-family="sans-serif" font-size="13" lengthAdjust="spacing" textLength="86.9946" x="624.939" y="1195.7676">Update status</text><text fill="#000000" font-family="sans-serif" font-size="13" font-weight="bold" lengthAdjust="spacing" textLength="62.0864" x="624.939" y="1211.0781">Database</text><text fill="#000000" font-family="sans-serif" font-size="13" lengthAdjust="spacing" textLength="54.6343" x="687.0254" y="1211.0781">: swiftdb</text><text fill="#000000" font-family="sans-serif" font-size="13" font-weight="bold" lengthAdjust="spacing" textLength="37.0703" x="624.939" y="1226.3887">Table</text><text fill="#000000" font-family="sans-serif" font-size="13" lengthAdjust="spacing" textLength="56.8687" x="662.0093" y="1226.3887">: process</text><text fill="#000000" font-family="sans-serif" font-size="13" font-weight="bold" lengthAdjust="spacing" textLength="41.4946" x="624.939" y="1241.6992">Status</text><text fill="#000000" font-family="sans-serif" font-size="13" lengthAdjust="spacing" textLength="80.082" x="666.4336" y="1241.6992">: VALIDATED</text></g><g class="message" data-participant-1="App" data-participant-2="MQ"><polygon fill="#181818" points="1067.2148,1287.0625,1077.2148,1291.0625,1067.2148,1295.0625,1071.2148,1291.0625" style="stroke:#181818;stroke-width:1;"/><line style="stroke:#181818;stroke-width:1;" x1="617.939" x2="1073.2148" y1="1291.0625" y2="1291.0625"/><text fill="#000000" font-family="sans-serif" font-size="13" lengthAdjust="spacing" textLength="166.4355" x="624.939" y="1271.0098">Send to the specific queue</text><text fill="#000000" font-family="sans-serif" font-size="13" font-weight="bold" lengthAdjust="spacing" textLength="43.0181" x="624.939" y="1286.3203">Queue</text><text fill="#000000" font-family="sans-serif" font-size="13" lengthAdjust="spacing" textLength="152.5405" x="667.957" y="1286.3203">: swift-pacs.008.001.08</text></g><line style="stroke:#000000;stroke-width:1;stroke-dasharray:2,2;" x1="492.2915" x2="1141.2617" y1="1307.0625" y2="1307.0625"/><text fill="#000000" font-family="sans-serif" font-size="11" font-weight="bold" lengthAdjust="spacing" textLength="46.46" x="497.2915" y="1317.6973">[Invalid]</text><path d="M502.2915,1328.0176 L699.2036,1328.0176 L699.2036,1335.3281 L689.2036,1345.3281 L502.2915,1345.3281 L502.2915,1328.0176" fill="#EEEEEE" style="stroke:#000000;stroke-width:1.5;"/><rect fill="none" height="59.6211" style="stroke:#000000;stroke-width:1.5;" width="339.7212" x="502.2915" y="1328.0176"/><text fill="#000000" font-family="sans-serif" font-size="13" font-weight="bold" lengthAdjust="spacing" textLength="151.9121" x="517.2915" y="1341.5859">UnsupportedException</text><g class="message" data-participant-1="App" data-participant-2="App"><line style="stroke:#181818;stroke-width:1;" x1="617.939" x2="659.939" y1="1366.6387" y2="1366.6387"/><line style="stroke:#181818;stroke-width:1;" x1="659.939" x2="659.939" y1="1366.6387" y2="1379.6387"/><line style="stroke:#181818;stroke-width:1;" x1="618.939" x2="659.939" y1="1379.6387" y2="1379.6387"/><polygon fill="#181818" points="628.939,1375.6387,618.939,1379.6387,628.939,1383.6387,624.939,1379.6387" style="stroke:#181818;stroke-width:1;"/><text fill="#000000" font-family="sans-serif" font-size="13" lengthAdjust="spacing" textLength="205.0737" x="624.939" y="1361.8965">UnsupportedException workflow</text></g><line style="stroke:#000000;stroke-width:1;stroke-dasharray:2,2;" x1="472.2915" x2="1492.4912" y1="1409.6387" y2="1409.6387"/><text fill="#000000" font-family="sans-serif" font-size="11" font-weight="bold" lengthAdjust="spacing" textLength="69.1689" x="477.2915" y="1420.2734">[Malformed]</text><path d="M502.2915,1430.5938 L709.8804,1430.5938 L709.8804,1437.9043 L699.8804,1447.9043 L502.2915,1447.9043 L502.2915,1430.5938" fill="#EEEEEE" style="stroke:#000000;stroke-width:1.5;"/><rect fill="none" height="166.4844" style="stroke:#000000;stroke-width:1.5;" width="980.1997" x="502.2915" y="1430.5938"/><text fill="#000000" font-family="sans-serif" font-size="13" font-weight="bold" lengthAdjust="spacing" textLength="162.5889" x="517.2915" y="1444.1621">MalformedXmlException</text><g class="message" data-participant-1="App" data-participant-2="PG"><polygon fill="#181818" points="983.1152,1511.1465,993.1152,1515.1465,983.1152,1519.1465,987.1152,1515.1465" style="stroke:#181818;stroke-width:1;"/><line style="stroke:#181818;stroke-width:1;" x1="617.939" x2="989.1152" y1="1515.1465" y2="1515.1465"/><text fill="#000000" font-family="sans-serif" font-size="13" lengthAdjust="spacing" textLength="86.9946" x="624.939" y="1464.4727">Update status</text><text fill="#000000" font-family="sans-serif" font-size="13" font-weight="bold" lengthAdjust="spacing" textLength="62.0864" x="624.939" y="1479.7832">Database</text><text fill="#000000" font-family="sans-serif" font-size="13" lengthAdjust="spacing" textLength="54.6343" x="687.0254" y="1479.7832">: swiftdb</text><text fill="#000000" font-family="sans-serif" font-size="13" font-weight="bold" lengthAdjust="spacing" textLength="37.0703" x="624.939" y="1495.0938">Table</text><text fill="#000000" font-family="sans-serif" font-size="13" lengthAdjust="spacing" textLength="56.8687" x="662.0093" y="1495.0938">: process</text><text fill="#000000" font-family="sans-serif" font-size="13" font-weight="bold" lengthAdjust="spacing" textLength="41.4946" x="624.939" y="1510.4043">Status</text><text fill="#000000" font-family="sans-serif" font-size="13" lengthAdjust="spacing" textLength="51.6255" x="666.4336" y="1510.4043">: FAILED</text></g><g class="message" data-participant-1="App" data-participant-2="MQ"><polygon fill="#181818" points="1067.2148,1555.7676,1077.2148,1559.7676,1067.2148,1563.7676,1071.2148,1559.7676" style="stroke:#181818;stroke-width:1;"/><line style="stroke:#181818;stroke-width:1;" x1="617.939" x2="1073.2148" y1="1559.7676" y2="1559.7676"/><text fill="#000000" font-family="sans-serif" font-size="13" lengthAdjust="spacing" textLength="169.3174" x="624.939" y="1539.7148">Send to Dead Letter Queue</text><text fill="#000000" font-family="sans-serif" font-size="13" font-weight="bold" lengthAdjust="spacing" textLength="43.0181" x="624.939" y="1555.0254">Queue</text><text fill="#000000" font-family="sans-serif" font-size="13" lengthAdjust="spacing" textLength="117.3872" x="667.957" y="1555.0254">: swift-dead-letter</text></g><g class="message" data-participant-1="App" data-participant-2="Error"><polygon fill="#181818" points="1391.3438,1585.0781,1401.3438,1589.0781,1391.3438,1593.0781,1395.3438,1589.0781" style="stroke:#181818;stroke-width:1;"/><line style="stroke:#181818;stroke-width:1;" x1="617.939" x2="1397.3438" y1="1589.0781" y2="1589.0781"/><text fill="#000000" font-family="sans-serif" font-size="13" lengthAdjust="spacing" textLength="139.4326" x="624.939" y="1584.3359">Move file to the folder</text></g><rect fill="#EEEEEE" height="3" style="stroke:#EEEEEE;stroke-width:1;" width="1512.4912" x="0" y="1638.7334"/><line style="stroke:#000000;stroke-width:1;" x1="0" x2="1512.4912" y1="1638.7334" y2="1638.7334"/><line style="stroke:#000000;stroke-width:1;" x1="0" x2="1512.4912" y1="1641.7334" y2="1641.7334"/><rect fill="#EEEEEE" height="23.3105" style="stroke:#000000;stroke-width:2;" width="306.5254" x="602.9829" y="1628.0781"/><text fill="#000000" font-family="sans-serif" font-size="13" font-weight="bold" lengthAdjust="spacing" textLength="288.2407" x="608.9829" y="1644.6465">Specific Workflow: PACS_XXX_XXX_XXRoute</text><g class="message" data-participant-1="MQ" data-participant-2="App"><polygon fill="#181818" points="628.939,1694.0098,618.939,1698.0098,628.939,1702.0098,624.939,1698.0098" style="stroke:#181818;stroke-width:1;"/><ellipse cx="1078.7148" cy="1697.2598" fill="#000000" rx="4" ry="4" style="stroke:#181818;stroke-width:1.5;"/><line style="stroke:#181818;stroke-width:1;" x1="622.939" x2="1074.2148" y1="1698.0098" y2="1698.0098"/><text fill="#000000" font-family="sans-serif" font-size="13" lengthAdjust="spacing" textLength="106.3677" x="634.939" y="1677.957">Receive message</text><text fill="#000000" font-family="sans-serif" font-size="13" font-weight="bold" lengthAdjust="spacing" textLength="43.0181" x="634.939" y="1693.2676">Queue</text><text fill="#000000" font-family="sans-serif" font-size="13" lengthAdjust="spacing" textLength="151.8804" x="677.957" y="1693.2676">: swift-pacs.XXX.XXX.XX</text></g><path d="M334.7261,1713.0098 L530.248,1713.0098 L530.248,1720.3203 L520.248,1730.3203 L334.7261,1730.3203 L334.7261,1713.0098" fill="#EEEEEE" style="stroke:#000000;stroke-width:1.5;"/><rect fill="none" height="164.1738" style="stroke:#000000;stroke-width:1.5;" width="702.4419" x="334.7261" y="1713.0098"/><text fill="#000000" font-family="sans-serif" font-size="13" font-weight="bold" lengthAdjust="spacing" textLength="150.522" x="349.7261" y="1726.5781">swift-pacs.008.001.08</text><g class="message" data-participant-1="App" data-participant-2="App"><line style="stroke:#181818;stroke-width:1;" x1="617.939" x2="659.939" y1="1751.6309" y2="1751.6309"/><line style="stroke:#181818;stroke-width:1;" x1="659.939" x2="659.939" y1="1751.6309" y2="1764.6309"/><line style="stroke:#181818;stroke-width:1;" x1="618.939" x2="659.939" y1="1764.6309" y2="1764.6309"/><polygon fill="#181818" points="628.939,1760.6309,618.939,1764.6309,628.939,1768.6309,624.939,1764.6309" style="stroke:#181818;stroke-width:1;"/><text fill="#000000" font-family="sans-serif" font-size="13" lengthAdjust="spacing" textLength="134.0308" x="624.939" y="1746.8887">Implement your logic</text></g><g class="message" data-participant-1="App" data-participant-2="PG"><polygon fill="#181818" points="983.1152,1835.873,993.1152,1839.873,983.1152,1843.873,987.1152,1839.873" style="stroke:#181818;stroke-width:1;"/><line style="stroke:#181818;stroke-width:1;" x1="617.939" x2="989.1152" y1="1839.873" y2="1839.873"/><text fill="#000000" font-family="sans-serif" font-size="13" lengthAdjust="spacing" textLength="86.9946" x="624.939" y="1789.1992">Update status</text><text fill="#000000" font-family="sans-serif" font-size="13" font-weight="bold" lengthAdjust="spacing" textLength="62.0864" x="624.939" y="1804.5098">Database</text><text fill="#000000" font-family="sans-serif" font-size="13" lengthAdjust="spacing" textLength="54.6343" x="687.0254" y="1804.5098">: swiftdb</text><text fill="#000000" font-family="sans-serif" font-size="13" font-weight="bold" lengthAdjust="spacing" textLength="37.0703" x="624.939" y="1819.8203">Table</text><text fill="#000000" font-family="sans-serif" font-size="13" lengthAdjust="spacing" textLength="56.8687" x="662.0093" y="1819.8203">: process</text><text fill="#000000" font-family="sans-serif" font-size="13" font-weight="bold" lengthAdjust="spacing" textLength="41.4946" x="624.939" y="1835.1309">Status</text><text fill="#000000" font-family="sans-serif" font-size="13" lengthAdjust="spacing" textLength="84.6841" x="666.4336" y="1835.1309">: COMPLETED</text></g><g class="message" data-participant-1="App" data-participant-2="Success"><polygon fill="#181818" points="434.5088,1865.1836,424.5088,1869.1836,434.5088,1873.1836,430.5088,1869.1836" style="stroke:#181818;stroke-width:1;"/><line style="stroke:#181818;stroke-width:1;" x1="428.5088" x2="616.939" y1="1869.1836" y2="1869.1836"/><text fill="#000000" font-family="sans-serif" font-size="13" lengthAdjust="spacing" textLength="139.4326" x="440.5088" y="1864.4414">Move file to the folder</text></g><!--SRC=[jLPTRoet47tthnY1LBMHWhXzka9A9GeaGe9c0yaD3vKgPtS02sFljRs1_FkElP-G1QbNlIkHx7fcZiTppioktGcLSiFt477ZH2nIhbp4aqIe3VpUPxQo_wcFvVgNFcDl-WYToT6XKLp24isxYB43tPdORDs3mGy6TAKrA8oaGFe7t1Qt35K2X5E0JTKdiDUjS1Y0OYqbnavePVsZzqup1_TQ9cWwS7BH1i7Q7hZCuXYjRGkbmCBwAVayD3N- -ClNwVqpJ8xnbgiDTihGOPg6i8Gx_iOjbgWBJ8I5zel2AdFNOD8A46dhDWRj1O3eeRZl7gfoVSymmuRRa2hmZlEd2n2LeQkDFrDxvLwKpT9K6uV9UVK8es5j3vyOeyr5neArLiJT7TmBYM0mnjI33CBpGcSEuUwEiK9Djt_aN0zWZ9AEQ0fszaGYto2iAOYnZT5P2YE-Hvd3peHrgD24J8cu1iuovYg4vIB8TNPBTdBpIL262WyvS2Cwq3Y0eTs1rF4EjAfTmXykNTqTgF8yb7PaCCYJZn1MrAwMJRNnp8EwBTQeZSs3nro_vrPm6ZezwbkZlMni1zQXw24A9Gch6mcropFu3xk7PEFlcIY5IcnvnW9RaT6XhNm2vrmLMKOF0nZHRhJgAvZc4N-hcvjneVYRcm7OWrYxvCqlF_Ct6TOQhal7NMRzucWn6JvFni2u5xT7ZHuODKELT9dITCmIR3gnPjaMg4WNUU4EmcqRORGlhiKHVisKe8vIjFhRQV14nKR4sq9QvKY0BPKKZMMibNIagQaiQHgen9tUSIyxePovIlEXTpA86apFdqYXlak8Ow-6Tou5pGjghD3ola9F_gQgv6tbKL766Xfu911JP_GvZqPRq_7oNZnFoXFxaYQ-kZRGyyESllorV8cYnqNWzMoNHYPdOWzjqP1uBai8kloM7pzCaFg-rYQDFbrB8KQQ8UNmk5hCOgRGMzEUp840L6n4Wa8fAJMpfuvfdGAl3OVol2Vrhw3cAtOoCi-0WX_y0lt-rrw__wNN_yhE1_q9xXM_dyBij-5iEXwUyDgotxcyROgnM8luehfJ7jlUbRC4lPyirDgVga3dzJfTrN_B2GB_RK5mq6QtblhGckEbvoh_HjvpBgyffZAlzh8zvV-TtFlXT7RER0kZOngBC4D7ttdmT85GcjJ9hGm-RN3XC-5w-pTBc8-1yXsrBDNqMb11xuZXQFdFQhKgVZyw5u8C2QBubTFXiaQRQfdkKubx_pNpeJD3R-ADYDbFuMdqE8zcawe92_pYLNEvgg5-_m80]--></g></svg>