<svg xmlns="http://www.w3.org/2000/svg" xmlns:xlink="http://www.w3.org/1999/xlink" contentStyleType="text/css" data-diagram-type="SEQUENCE" height="2052px" preserveAspectRatio="none" style="width:1623px;height:2052px;background:#FFFFFF;" version="1.1" viewBox="0 0 1623 2052" width="1623px" zoomAndPan="magnify"><defs/><g><rect fill="#D3D3D3" height="2033.9766" style="stroke:#181818;stroke-width:0.5;" width="125.7612" x="21" y="6"/><text fill="#000000" font-family="sans-serif" font-size="13" font-weight="bold" lengthAdjust="spacing" textLength="119.7612" x="24" y="18.0669">External Service</text><rect fill="#FFFFFF" height="2033.9766" style="stroke:#181818;stroke-width:0.5;" width="238.1953" x="188.7612" y="6"/><text fill="#000000" font-family="sans-serif" font-size="13" font-weight="bold" lengthAdjust="spacing" textLength="82.9194" x="266.3992" y="18.0669">Application</text><rect fill="#FFFFFF" height="2033.9766" style="stroke:#181818;stroke-width:0.5;" width="225.4023" x="607.3804" y="6"/><text fill="#000000" font-family="sans-serif" font-size="13" font-weight="bold" lengthAdjust="spacing" textLength="34.5503" x="702.8064" y="18.0669">Data</text><rect fill="#FFFFFF" height="2033.9766" style="stroke:#181818;stroke-width:0.5;" width="720.5117" x="874.7827" y="6"/><text fill="#000000" font-family="sans-serif" font-size="13" font-weight="bold" lengthAdjust="spacing" textLength="34.3472" x="1217.865" y="18.0669">Files</text><g><title>Postgres</title><rect fill="#FFFFFF" height="29.1328" style="stroke:#181818;stroke-width:1;" width="10" x="693.9619" y="568.3594"/></g><rect fill="none" height="250.8672" style="stroke:#000000;stroke-width:1.5;" width="868.4863" x="172.7612" y="176.6953"/><rect fill="#6CB49B" height="132.3359" style="stroke:#000000;stroke-width:1.5;" width="483.0303" x="182.7612" y="288.2266"/><rect fill="#B33A3A" height="43.9375" style="stroke:none;stroke-width:1;" width="483.0303" x="182.7612" y="376.625"/><rect fill="#FFFFFF" height="205.0625" style="stroke:#000000;stroke-width:1.5;" width="559.3711" x="182.7612" y="484.6953"/><rect fill="#6CB49B" height="242.1328" style="stroke:#000000;stroke-width:1.5;" width="1095.0713" x="172.7612" y="703.7578"/><rect fill="#FFFFFF" height="61.3984" style="stroke:#000000;stroke-width:1.5;" width="656.0215" x="182.7612" y="727.8906"/><rect fill="#B33A3A" height="149.6016" style="stroke:none;stroke-width:1;" width="1095.0713" x="172.7612" y="796.2891"/><rect fill="#FFFFFF" height="120.7969" style="stroke:#000000;stroke-width:1.5;" width="1075.0713" x="182.7612" y="818.0938"/><rect fill="none" height="646.0625" style="stroke:#000000;stroke-width:1.5;" width="1295.9639" x="142.7612" y="1047.2891"/><rect fill="#6CB49B" height="572.7969" style="stroke:#000000;stroke-width:1.5;" width="1275.9639" x="152.7612" y="1113.5547"/><rect fill="#FFFFFF" height="347.7969" style="stroke:#000000;stroke-width:1.5;" width="1115.0713" x="162.7612" y="1137.6875"/><rect fill="#6CB49B" height="316.6641" style="stroke:#000000;stroke-width:1.5;" width="1095.0713" x="172.7612" y="1161.8203"/><rect fill="#FFFFFF" height="135.9297" style="stroke:#000000;stroke-width:1.5;" width="656.0215" x="182.7612" y="1185.9531"/><rect fill="#B33A3A" height="149.6016" style="stroke:none;stroke-width:1;" width="1095.0713" x="172.7612" y="1328.8828"/><rect fill="#FFFFFF" height="120.7969" style="stroke:#000000;stroke-width:1.5;" width="1075.0713" x="182.7612" y="1350.6875"/><rect fill="#B33A3A" height="193.8672" style="stroke:none;stroke-width:1;" width="1275.9639" x="152.7612" y="1492.4844"/><rect fill="#FFFFFF" height="165.0625" style="stroke:#000000;stroke-width:1.5;" width="1235.9639" x="182.7612" y="1514.2891"/><rect fill="none" height="162.9297" style="stroke:#000000;stroke-width:1.5;" width="1418.5332" x="182.7612" y="1794.75"/><g><title>Client</title><rect fill="#000000" fill-opacity="0.00000" height="1887.25" width="8" x="79.8806" y="87.4297"/><line style="stroke:#181818;stroke-width:0.5;stroke-dasharray:5,5;" x1="83.6155" x2="83.6155" y1="87.4297" y2="1974.6797"/></g><g><title>Spring SWIFT Exchange</title><rect fill="#000000" fill-opacity="0.00000" height="1887.25" width="8" x="303.8589" y="87.4297"/><line style="stroke:#181818;stroke-width:0.5;stroke-dasharray:5,5;" x1="307.7612" x2="307.7612" y1="87.4297" y2="1974.6797"/></g><g><title>Redis</title><rect fill="#000000" fill-opacity="0.00000" height="1887.25" width="8" x="629.5859" y="87.4297"/><line style="stroke:#181818;stroke-width:0.5;stroke-dasharray:5,5;" x1="633.3804" x2="633.3804" y1="87.4297" y2="1974.6797"/></g><g><title>Postgres</title><rect fill="#000000" fill-opacity="0.00000" height="1887.25" width="8" x="694.9619" y="87.4297"/><line style="stroke:#181818;stroke-width:0.5;stroke-dasharray:5,5;" x1="698.7915" x2="698.7915" y1="87.4297" y2="1974.6797"/></g><g><title>ActiveMQ</title><rect fill="#000000" fill-opacity="0.00000" height="1887.25" width="8" x="781.4575" y="87.4297"/><line style="stroke:#181818;stroke-width:0.5;stroke-dasharray:5,5;" x1="785.1323" x2="785.1323" y1="87.4297" y2="1974.6797"/></g><g><title>Input Folder</title><rect fill="#000000" fill-opacity="0.00000" height="1887.25" width="8" x="951.0151" y="87.4297"/><line style="stroke:#181818;stroke-width:0.5;stroke-dasharray:5,5;" x1="954.7827" x2="954.7827" y1="87.4297" y2="1974.6797"/></g><g><title>Unsupported Folder</title><rect fill="#000000" fill-opacity="0.00000" height="1887.25" width="8" x="1140.54" y="87.4297"/><line style="stroke:#181818;stroke-width:0.5;stroke-dasharray:5,5;" x1="1144.2476" x2="1144.2476" y1="87.4297" y2="1974.6797"/></g><g><title>Error Folder</title><rect fill="#000000" fill-opacity="0.00000" height="1887.25" width="8" x="1329.2788" y="87.4297"/><line style="stroke:#181818;stroke-width:0.5;stroke-dasharray:5,5;" x1="1332.8325" x2="1332.8325" y1="87.4297" y2="1974.6797"/></g><g><title>Success Folder</title><rect fill="#000000" fill-opacity="0.00000" height="1887.25" width="8" x="1501.0098" y="87.4297"/><line style="stroke:#181818;stroke-width:0.5;stroke-dasharray:5,5;" x1="1504.7251" x2="1504.7251" y1="87.4297" y2="1974.6797"/></g><g class="participant participant-head" data-participant="Client"><rect fill="#E2E2F0" height="30.2969" rx="2.5" ry="2.5" style="stroke:#181818;stroke-width:0.5;" width="54.5303" x="56.6155" y="56.1328"/><text fill="#000000" font-family="sans-serif" font-size="14" lengthAdjust="spacing" textLength="40.5303" x="63.6155" y="76.1279">Client</text></g><g class="participant participant-tail" data-participant="Client"><rect fill="#E2E2F0" height="30.2969" rx="2.5" ry="2.5" style="stroke:#181818;stroke-width:0.5;" width="54.5303" x="56.6155" y="1973.6797"/><text fill="#000000" font-family="sans-serif" font-size="14" lengthAdjust="spacing" textLength="40.5303" x="63.6155" y="1993.6748">Client</text></g><g class="participant participant-head" data-participant="App"><rect fill="#3E6B3E" height="30.2969" rx="2.5" ry="2.5" style="stroke:#181818;stroke-width:0.5;" width="180.1953" x="217.7612" y="56.1328"/><text fill="#000000" font-family="sans-serif" font-size="14" lengthAdjust="spacing" textLength="166.1953" x="224.7612" y="76.1279">Spring SWIFT Exchange</text></g><g class="participant participant-tail" data-participant="App"><rect fill="#3E6B3E" height="30.2969" rx="2.5" ry="2.5" style="stroke:#181818;stroke-width:0.5;" width="180.1953" x="217.7612" y="1973.6797"/><text fill="#000000" font-family="sans-serif" font-size="14" lengthAdjust="spacing" textLength="166.1953" x="224.7612" y="1993.6748">Spring SWIFT Exchange</text></g><g class="participant participant-head" data-participant="Redis"><text fill="#000000" font-family="sans-serif" font-size="14" lengthAdjust="spacing" textLength="38.4111" x="611.3804" y="84.1279">Redis</text><path d="M615.5859,35.1328 C615.5859,25.1328 633.5859,25.1328 633.5859,25.1328 C633.5859,25.1328 651.5859,25.1328 651.5859,35.1328 L651.5859,61.1328 C651.5859,71.1328 633.5859,71.1328 633.5859,71.1328 C633.5859,71.1328 615.5859,71.1328 615.5859,61.1328 L615.5859,35.1328" fill="#D9A441" style="stroke:#181818;stroke-width:0.5;"/><path d="M615.5859,35.1328 C615.5859,45.1328 633.5859,45.1328 633.5859,45.1328 C633.5859,45.1328 651.5859,45.1328 651.5859,35.1328" fill="none" style="stroke:#181818;stroke-width:0.5;"/></g><g class="participant participant-tail" data-participant="Redis"><text fill="#000000" font-family="sans-serif" font-size="14" lengthAdjust="spacing" textLength="38.4111" x="611.3804" y="1986.6748">Redis</text><path d="M615.5859,1999.9766 C615.5859,1989.9766 633.5859,1989.9766 633.5859,1989.9766 C633.5859,1989.9766 651.5859,1989.9766 651.5859,1999.9766 L651.5859,2025.9766 C651.5859,2035.9766 633.5859,2035.9766 633.5859,2035.9766 C633.5859,2035.9766 615.5859,2035.9766 615.5859,2025.9766 L615.5859,1999.9766" fill="#D9A441" style="stroke:#181818;stroke-width:0.5;"/><path d="M615.5859,1999.9766 C615.5859,2009.9766 633.5859,2009.9766 633.5859,2009.9766 C633.5859,2009.9766 651.5859,2009.9766 651.5859,1999.9766" fill="none" style="stroke:#181818;stroke-width:0.5;"/></g><g class="participant participant-head" data-participant="PG"><text fill="#000000" font-family="sans-serif" font-size="14" lengthAdjust="spacing" textLength="60.3408" x="665.7915" y="84.1279">Postgres</text><path d="M680.9619,35.1328 C680.9619,25.1328 698.9619,25.1328 698.9619,25.1328 C698.9619,25.1328 716.9619,25.1328 716.9619,35.1328 L716.9619,61.1328 C716.9619,71.1328 698.9619,71.1328 698.9619,71.1328 C698.9619,71.1328 680.9619,71.1328 680.9619,61.1328 L680.9619,35.1328" fill="#D9A441" style="stroke:#181818;stroke-width:0.5;"/><path d="M680.9619,35.1328 C680.9619,45.1328 698.9619,45.1328 698.9619,45.1328 C698.9619,45.1328 716.9619,45.1328 716.9619,35.1328" fill="none" style="stroke:#181818;stroke-width:0.5;"/></g><g class="participant participant-tail" data-participant="PG"><text fill="#000000" font-family="sans-serif" font-size="14" lengthAdjust="spacing" textLength="60.3408" x="665.7915" y="1986.6748">Postgres</text><path d="M680.9619,1999.9766 C680.9619,1989.9766 698.9619,1989.9766 698.9619,1989.9766 C698.9619,1989.9766 716.9619,1989.9766 716.9619,1999.9766 L716.9619,2025.9766 C716.9619,2035.9766 698.9619,2035.9766 698.9619,2035.9766 C698.9619,2035.9766 680.9619,2035.9766 680.9619,2025.9766 L680.9619,1999.9766" fill="#D9A441" style="stroke:#181818;stroke-width:0.5;"/><path d="M680.9619,1999.9766 C680.9619,2009.9766 698.9619,2009.9766 698.9619,2009.9766 C698.9619,2009.9766 716.9619,2009.9766 716.9619,1999.9766" fill="none" style="stroke:#181818;stroke-width:0.5;"/></g><g class="participant participant-head" data-participant="MQ"><path d="M747.1323,61.1328 L823.7827,61.1328 C828.7827,61.1328 828.7827,74.2813 828.7827,74.2813 C828.7827,74.2813 828.7827,87.4297 823.7827,87.4297 L747.1323,87.4297 C742.1323,87.4297 742.1323,74.2813 742.1323,74.2813 C742.1323,74.2813 742.1323,61.1328 747.1323,61.1328" fill="#D9A441" style="stroke:#181818;stroke-width:0.5;"/><path d="M823.7827,61.1328 C818.7827,61.1328 818.7827,74.2813 818.7827,74.2813 C818.7827,87.4297 823.7827,87.4297 823.7827,87.4297" fill="none" style="stroke:#181818;stroke-width:0.5;"/><text fill="#000000" font-family="sans-serif" font-size="14" lengthAdjust="spacing" textLength="66.6504" x="747.1323" y="79.1279">ActiveMQ</text></g><g class="participant participant-tail" data-participant="MQ"><path d="M747.1323,1973.6797 L823.7827,1973.6797 C828.7827,1973.6797 828.7827,1986.8281 828.7827,1986.8281 C828.7827,1986.8281 828.7827,1999.9766 823.7827,1999.9766 L747.1323,1999.9766 C742.1323,1999.9766 742.1323,1986.8281 742.1323,1986.8281 C742.1323,1986.8281 742.1323,1973.6797 747.1323,1973.6797" fill="#D9A441" style="stroke:#181818;stroke-width:0.5;"/><path d="M823.7827,1973.6797 C818.7827,1973.6797 818.7827,1986.8281 818.7827,1986.8281 C818.7827,1999.9766 823.7827,1999.9766 823.7827,1999.9766" fill="none" style="stroke:#181818;stroke-width:0.5;"/><text fill="#000000" font-family="sans-serif" font-size="14" lengthAdjust="spacing" textLength="66.6504" x="747.1323" y="1991.6748">ActiveMQ</text></g><g class="participant participant-head" data-participant="Input"><rect fill="#8C5E3C" height="30.2969" style="stroke:#181818;stroke-width:0.5;" width="98.4648" x="907.7827" y="52.1328"/><rect fill="#8C5E3C" height="30.2969" style="stroke:#181818;stroke-width:0.5;" width="98.4648" x="903.7827" y="56.1328"/><text fill="#000000" font-family="sans-serif" font-size="14" lengthAdjust="spacing" textLength="84.4648" x="910.7827" y="76.1279">Input Folder</text></g><g class="participant participant-tail" data-participant="Input"><rect fill="#8C5E3C" height="30.2969" style="stroke:#181818;stroke-width:0.5;" width="98.4648" x="907.7827" y="1973.6797"/><rect fill="#8C5E3C" height="30.2969" style="stroke:#181818;stroke-width:0.5;" width="98.4648" x="903.7827" y="1977.6797"/><text fill="#000000" font-family="sans-serif" font-size="14" lengthAdjust="spacing" textLength="84.4648" x="910.7827" y="1997.6748">Input Folder</text></g><g class="participant participant-head" data-participant="Unsupported"><rect fill="#B33A3A" height="30.2969" style="stroke:#181818;stroke-width:0.5;" width="152.585" x="1070.2476" y="52.1328"/><rect fill="#B33A3A" height="30.2969" style="stroke:#181818;stroke-width:0.5;" width="152.585" x="1066.2476" y="56.1328"/><text fill="#000000" font-family="sans-serif" font-size="14" lengthAdjust="spacing" textLength="138.585" x="1073.2476" y="76.1279">Unsupported Folder</text></g><g class="participant participant-tail" data-participant="Unsupported"><rect fill="#B33A3A" height="30.2969" style="stroke:#181818;stroke-width:0.5;" width="152.585" x="1070.2476" y="1973.6797"/><rect fill="#B33A3A" height="30.2969" style="stroke:#181818;stroke-width:0.5;" width="152.585" x="1066.2476" y="1977.6797"/><text fill="#000000" font-family="sans-serif" font-size="14" lengthAdjust="spacing" textLength="138.585" x="1073.2476" y="1997.6748">Unsupported Folder</text></g><g class="participant participant-head" data-participant="Error"><rect fill="#B33A3A" height="30.2969" style="stroke:#181818;stroke-width:0.5;" width="96.8926" x="1286.8325" y="52.1328"/><rect fill="#B33A3A" height="30.2969" style="stroke:#181818;stroke-width:0.5;" width="96.8926" x="1282.8325" y="56.1328"/><text fill="#000000" font-family="sans-serif" font-size="14" lengthAdjust="spacing" textLength="82.8926" x="1289.8325" y="76.1279">Error Folder</text></g><g class="participant participant-tail" data-participant="Error"><rect fill="#B33A3A" height="30.2969" style="stroke:#181818;stroke-width:0.5;" width="96.8926" x="1286.8325" y="1973.6797"/><rect fill="#B33A3A" height="30.2969" style="stroke:#181818;stroke-width:0.5;" width="96.8926" x="1282.8325" y="1977.6797"/><text fill="#000000" font-family="sans-serif" font-size="14" lengthAdjust="spacing" textLength="82.8926" x="1289.8325" y="1997.6748">Error Folder</text></g><g class="participant participant-head" data-participant="Success"><rect fill="#3E6B3E" height="30.2969" style="stroke:#181818;stroke-width:0.5;" width="118.5693" x="1447.7251" y="52.1328"/><rect fill="#3E6B3E" height="30.2969" style="stroke:#181818;stroke-width:0.5;" width="118.5693" x="1443.7251" y="56.1328"/><text fill="#000000" font-family="sans-serif" font-size="14" lengthAdjust="spacing" textLength="104.5693" x="1450.7251" y="76.1279">Success Folder</text></g><g class="participant participant-tail" data-participant="Success"><rect fill="#3E6B3E" height="30.2969" style="stroke:#181818;stroke-width:0.5;" width="118.5693" x="1447.7251" y="1973.6797"/><rect fill="#3E6B3E" height="30.2969" style="stroke:#181818;stroke-width:0.5;" width="118.5693" x="1443.7251" y="1977.6797"/><text fill="#000000" font-family="sans-serif" font-size="14" lengthAdjust="spacing" textLength="104.5693" x="1450.7251" y="1997.6748">Success Folder</text></g><g><title>Postgres</title><rect fill="#FFFFFF" height="29.1328" style="stroke:#181818;stroke-width:1;" width="10" x="693.9619" y="568.3594"/></g><rect fill="#EEEEEE" height="3" style="stroke:#EEEEEE;stroke-width:1;" width="1616.2944" x="0" y="117.9961"/><line style="stroke:#000000;stroke-width:1;" x1="0" x2="1616.2944" y1="117.9961" y2="117.9961"/><line style="stroke:#000000;stroke-width:1;" x1="0" x2="1616.2944" y1="120.9961" y2="120.9961"/><rect fill="#EEEEEE" height="23.1328" style="stroke:#000000;stroke-width:2;" width="199.1357" x="708.5793" y="107.4297"/><text fill="#000000" font-family="sans-serif" font-size="13" font-weight="bold" lengthAdjust="spacing" textLength="180.6099" x="714.5793" y="123.4966">File reception: FileRoute</text><g class="message" data-participant-1="Client" data-participant-2="Input"><polygon fill="#181818" points="943.0151,157.6953,953.0151,161.6953,943.0151,165.6953,947.0151,161.6953" style="stroke:#181818;stroke-width:1;"/><line style="stroke:#181818;stroke-width:1;" x1="83.8806" x2="949.0151" y1="161.6953" y2="161.6953"/><text fill="#000000" font-family="sans-serif" font-size="13" lengthAdjust="spacing" textLength="177.2456" x="90.8806" y="156.6294">Deliver SWIFT message file</text></g><path d="M172.7612,176.6953 L358.5459,176.6953 L358.5459,183.8281 L348.5459,193.8281 L172.7612,193.8281 L172.7612,176.6953" fill="#EEEEEE" style="stroke:#000000;stroke-width:1.5;"/><rect fill="none" height="250.8672" style="stroke:#000000;stroke-width:1.5;" width="868.4863" x="172.7612" y="176.6953"/><text fill="#000000" font-family="sans-serif" font-size="13" font-weight="bold" lengthAdjust="spacing" textLength="140.7847" x="187.7612" y="189.7622">Camel File Listener</text><g class="message" data-participant-1="App" data-participant-2="Input"><polygon fill="#181818" points="943.0151,210.9609,953.0151,214.9609,943.0151,218.9609,947.0151,214.9609" style="stroke:#181818;stroke-width:1;"/><line style="stroke:#181818;stroke-width:1;" x1="307.8589" x2="949.0151" y1="214.9609" y2="214.9609"/><text fill="#000000" font-family="sans-serif" font-size="13" lengthAdjust="spacing" textLength="62.3086" x="314.8589" y="209.895">Scan files</text></g><g class="message" data-participant-1="Input" data-participant-2="App"><polygon fill="#181818" points="318.8589,240.0938,308.8589,244.0938,318.8589,248.0938,314.8589,244.0938" style="stroke:#181818;stroke-width:1;"/><line style="stroke:#181818;stroke-width:1;stroke-dasharray:2,2;" x1="312.8589" x2="954.0151" y1="244.0938" y2="244.0938"/><text fill="#000000" font-family="sans-serif" font-size="13" lengthAdjust="spacing" textLength="82.5132" x="324.8589" y="239.0278">Find new file</text></g><g class="message" data-participant-1="App" data-participant-2="Redis"><polygon fill="#181818" points="621.5859,269.2266,631.5859,273.2266,621.5859,277.2266,625.5859,273.2266" style="stroke:#181818;stroke-width:1;"/><line style="stroke:#181818;stroke-width:1;" x1="307.8589" x2="627.5859" y1="273.2266" y2="273.2266"/><text fill="#000000" font-family="sans-serif" font-size="13" lengthAdjust="spacing" textLength="97.8237" x="314.8589" y="268.1606">Ask lock on file</text></g><path d="M182.7612,288.2266 L247.2041,288.2266 L247.2041,295.3594 L237.2041,305.3594 L182.7612,305.3594 L182.7612,288.2266" fill="#EEEEEE" style="stroke:#000000;stroke-width:1.5;"/><rect fill="none" height="132.3359" style="stroke:#000000;stroke-width:1.5;" width="483.0303" x="182.7612" y="288.2266"/><text fill="#000000" font-family="sans-serif" font-size="13" font-weight="bold" lengthAdjust="spacing" textLength="19.4429" x="197.7612" y="301.2935">alt</text><text fill="#000000" font-family="sans-serif" font-size="11" font-weight="bold" lengthAdjust="spacing" textLength="151.7495" x="262.2041" y="300.437">[File not already locked]</text><g class="message" data-participant-1="Redis" data-participant-2="App"><polygon fill="#181818" points="318.8589,322.4922,308.8589,326.4922,318.8589,330.4922,314.8589,326.4922" style="stroke:#181818;stroke-width:1;"/><line style="stroke:#181818;stroke-width:1;stroke-dasharray:2,2;" x1="312.8589" x2="632.5859" y1="326.4922" y2="326.4922"/><text fill="#000000" font-family="sans-serif" font-size="13" lengthAdjust="spacing" textLength="79.2695" x="324.8589" y="321.4263">Lock the file</text></g><g class="message" data-participant-1="App" data-participant-2="App"><line style="stroke:#181818;stroke-width:1;" x1="307.8589" x2="349.8589" y1="355.625" y2="355.625"/><line style="stroke:#181818;stroke-width:1;" x1="349.8589" x2="349.8589" y1="355.625" y2="368.625"/><line style="stroke:#181818;stroke-width:1;" x1="308.8589" x2="349.8589" y1="368.625" y2="368.625"/><polygon fill="#181818" points="318.8589,364.625,308.8589,368.625,318.8589,372.625,314.8589,368.625" style="stroke:#181818;stroke-width:1;"/><text fill="#000000" font-family="sans-serif" font-size="13" lengthAdjust="spacing" textLength="206.6099" x="314.8589" y="350.5591">Move file to ".inprogress" folder</text></g><line style="stroke:#000000;stroke-width:1;stroke-dasharray:2,2;" x1="182.7612" x2="665.7915" y1="377.625" y2="377.625"/><text fill="#000000" font-family="sans-serif" font-size="11" font-weight="bold" lengthAdjust="spacing" textLength="127.2734" x="187.7612" y="387.8354">[File already locked]</text><g class="message" data-participant-1="Redis" data-participant-2="App"><polygon fill="#181818" points="318.8589,408.5625,308.8589,412.5625,318.8589,416.5625,314.8589,412.5625" style="stroke:#181818;stroke-width:1;"/><line style="stroke:#181818;stroke-width:1;stroke-dasharray:2,2;" x1="312.8589" x2="632.5859" y1="412.5625" y2="412.5625"/><text fill="#000000" font-family="sans-serif" font-size="13" lengthAdjust="spacing" textLength="116.2383" x="324.8589" y="407.4966">Lock not acquired</text></g><rect fill="#EEEEEE" height="3" style="stroke:#EEEEEE;stroke-width:1;" width="1616.2944" x="0" y="455.1289"/><line style="stroke:#000000;stroke-width:1;" x1="0" x2="1616.2944" y1="455.1289" y2="455.1289"/><line style="stroke:#000000;stroke-width:1;" x1="0" x2="1616.2944" y1="458.1289" y2="458.1289"/><rect fill="#EEEEEE" height="23.1328" style="stroke:#000000;stroke-width:2;" width="182.8667" x="716.7139" y="444.5625"/><text fill="#000000" font-family="sans-serif" font-size="13" font-weight="bold" lengthAdjust="spacing" textLength="164.3408" x="722.7139" y="460.6294">Process file: FileRoute</text><path d="M182.7612,484.6953 L337.728,484.6953 L337.728,491.8281 L327.728,501.8281 L182.7612,501.8281 L182.7612,484.6953" fill="#EEEEEE" style="stroke:#000000;stroke-width:1.5;"/><rect fill="none" height="205.0625" style="stroke:#000000;stroke-width:1.5;" width="559.3711" x="182.7612" y="484.6953"/><text fill="#000000" font-family="sans-serif" font-size="13" font-weight="bold" lengthAdjust="spacing" textLength="109.9668" x="197.7612" y="497.7622">Create Process</text><g class="message" data-participant-1="App" data-participant-2="PG"><polygon fill="#181818" points="681.9619,564.3594,691.9619,568.3594,681.9619,572.3594,685.9619,568.3594" style="stroke:#181818;stroke-width:1;"/><line style="stroke:#181818;stroke-width:1;" x1="307.8589" x2="687.9619" y1="568.3594" y2="568.3594"/><text fill="#000000" font-family="sans-serif" font-size="13" lengthAdjust="spacing" textLength="128.8574" x="314.8589" y="517.895">Create new process</text><text fill="#000000" font-family="sans-serif" font-size="13" font-weight="bold" lengthAdjust="spacing" textLength="69.1831" x="314.8589" y="533.0278">Database</text><text fill="#000000" font-family="sans-serif" font-size="13" lengthAdjust="spacing" textLength="55.707" x="384.042" y="533.0278">: swiftdb</text><text fill="#000000" font-family="sans-serif" font-size="13" font-weight="bold" lengthAdjust="spacing" textLength="40.2188" x="314.8589" y="548.1606">Table</text><text fill="#000000" font-family="sans-serif" font-size="13" lengthAdjust="spacing" textLength="58.7539" x="355.0776" y="548.1606">: process</text><text fill="#000000" font-family="sans-serif" font-size="13" font-weight="bold" lengthAdjust="spacing" textLength="47.5566" x="314.8589" y="563.2935">Status</text><text fill="#000000" font-family="sans-serif" font-size="13" lengthAdjust="spacing" textLength="69.894" x="362.4155" y="563.2935">: CREATED</text></g><g class="message" data-participant-1="PG" data-participant-2="App"><polygon fill="#181818" points="318.8589,593.4922,308.8589,597.4922,318.8589,601.4922,314.8589,597.4922" style="stroke:#181818;stroke-width:1;"/><line style="stroke:#181818;stroke-width:1;stroke-dasharray:2,2;" x1="312.8589" x2="697.9619" y1="597.4922" y2="597.4922"/><text fill="#000000" font-family="sans-serif" font-size="13" lengthAdjust="spacing" textLength="67.8057" x="324.8589" y="592.4263">Process ID</text></g><g class="message" data-participant-1="App" data-participant-2="App"><line style="stroke:#181818;stroke-width:1;" x1="307.8589" x2="349.8589" y1="626.625" y2="626.625"/><line style="stroke:#181818;stroke-width:1;" x1="349.8589" x2="349.8589" y1="626.625" y2="639.625"/><line style="stroke:#181818;stroke-width:1;" x1="308.8589" x2="349.8589" y1="639.625" y2="639.625"/><polygon fill="#181818" points="318.8589,635.625,308.8589,639.625,318.8589,643.625,314.8589,639.625" style="stroke:#181818;stroke-width:1;"/><text fill="#000000" font-family="sans-serif" font-size="13" lengthAdjust="spacing" textLength="311.7271" x="314.8589" y="621.5591">Rename file with Process ID prefix (uniqueness)</text></g><g class="message" data-participant-1="App" data-participant-2="App"><line style="stroke:#181818;stroke-width:1;" x1="307.8589" x2="349.8589" y1="668.7578" y2="668.7578"/><line style="stroke:#181818;stroke-width:1;" x1="349.8589" x2="349.8589" y1="668.7578" y2="681.7578"/><line style="stroke:#181818;stroke-width:1;" x1="308.8589" x2="349.8589" y1="681.7578" y2="681.7578"/><polygon fill="#181818" points="318.8589,677.7578,308.8589,681.7578,318.8589,685.7578,314.8589,681.7578" style="stroke:#181818;stroke-width:1;"/><text fill="#000000" font-family="sans-serif" font-size="13" lengthAdjust="spacing" textLength="217.9785" x="314.8589" y="663.6919">Encrich Camel Exchange headers</text></g><path d="M172.7612,703.7578 L237.2041,703.7578 L237.2041,710.8906 L227.2041,720.8906 L172.7612,720.8906 L172.7612,703.7578" fill="#EEEEEE" style="stroke:#000000;stroke-width:1.5;"/><rect fill="none" height="242.1328" style="stroke:#000000;stroke-width:1.5;" width="1095.0713" x="172.7612" y="703.7578"/><text fill="#000000" font-family="sans-serif" font-size="13" font-weight="bold" lengthAdjust="spacing" textLength="19.4429" x="187.7612" y="716.8247">alt</text><text fill="#000000" font-family="sans-serif" font-size="11" font-weight="bold" lengthAdjust="spacing" textLength="153.1567" x="252.2041" y="715.9683">[File extension is ".xml"]</text><path d="M182.7612,727.8906 L286.0835,727.8906 L286.0835,735.0234 L276.0835,745.0234 L182.7612,745.0234 L182.7612,727.8906" fill="#EEEEEE" style="stroke:#000000;stroke-width:1.5;"/><rect fill="none" height="61.3984" style="stroke:#000000;stroke-width:1.5;" width="656.0215" x="182.7612" y="727.8906"/><text fill="#000000" font-family="sans-serif" font-size="13" font-weight="bold" lengthAdjust="spacing" textLength="58.3223" x="197.7612" y="740.9575">Success</text><g class="message" data-participant-1="App" data-participant-2="MQ"><polygon fill="#181818" points="773.4575,777.2891,783.4575,781.2891,773.4575,785.2891,777.4575,781.2891" style="stroke:#181818;stroke-width:1;"/><line style="stroke:#181818;stroke-width:1;" x1="307.8589" x2="779.4575" y1="781.2891" y2="781.2891"/><text fill="#000000" font-family="sans-serif" font-size="13" lengthAdjust="spacing" textLength="181.8794" x="314.8589" y="761.0903">Send to the validator queue</text><text fill="#000000" font-family="sans-serif" font-size="13" font-weight="bold" lengthAdjust="spacing" textLength="47.1948" x="314.8589" y="776.2231">Queue</text><text fill="#000000" font-family="sans-serif" font-size="13" lengthAdjust="spacing" textLength="101.3911" x="362.0537" y="776.2231">: swift-validator</text></g><line style="stroke:#000000;stroke-width:1;stroke-dasharray:2,2;" x1="172.7612" x2="1267.8325" y1="797.2891" y2="797.2891"/><text fill="#000000" font-family="sans-serif" font-size="11" font-weight="bold" lengthAdjust="spacing" textLength="110.0215" x="177.7612" y="807.4995">[Other extension]</text><path d="M182.7612,818.0938 L394.8062,818.0938 L394.8062,825.2266 L384.8062,835.2266 L182.7612,835.2266 L182.7612,818.0938" fill="#EEEEEE" style="stroke:#000000;stroke-width:1.5;"/><rect fill="none" height="120.7969" style="stroke:#000000;stroke-width:1.5;" width="1075.0713" x="182.7612" y="818.0938"/><text fill="#000000" font-family="sans-serif" font-size="13" font-weight="bold" lengthAdjust="spacing" textLength="167.0449" x="197.7612" y="831.1606">UnsupportedException</text><g class="message" data-participant-1="App" data-participant-2="PG"><polygon fill="#181818" points="686.9619,897.7578,696.9619,901.7578,686.9619,905.7578,690.9619,901.7578" style="stroke:#181818;stroke-width:1;"/><line style="stroke:#181818;stroke-width:1;" x1="307.8589" x2="692.9619" y1="901.7578" y2="901.7578"/><text fill="#000000" font-family="sans-serif" font-size="13" lengthAdjust="spacing" textLength="91.1587" x="314.8589" y="851.2935">Update status</text><text fill="#000000" font-family="sans-serif" font-size="13" font-weight="bold" lengthAdjust="spacing" textLength="69.1831" x="314.8589" y="866.4263">Database</text><text fill="#000000" font-family="sans-serif" font-size="13" lengthAdjust="spacing" textLength="55.707" x="384.042" y="866.4263">: swiftdb</text><text fill="#000000" font-family="sans-serif" font-size="13" font-weight="bold" lengthAdjust="spacing" textLength="40.2188" x="314.8589" y="881.5591">Table</text><text fill="#000000" font-family="sans-serif" font-size="13" lengthAdjust="spacing" textLength="58.7539" x="355.0776" y="881.5591">: process</text><text fill="#000000" font-family="sans-serif" font-size="13" font-weight="bold" lengthAdjust="spacing" textLength="47.5566" x="314.8589" y="896.6919">Status</text><text fill="#000000" font-family="sans-serif" font-size="13" lengthAdjust="spacing" textLength="106.6279" x="362.4155" y="896.6919">: UNSUPPORTED</text></g><g class="message" data-participant-1="App" data-participant-2="Unsupported"><polygon fill="#181818" points="1132.54,926.8906,1142.54,930.8906,1132.54,934.8906,1136.54,930.8906" style="stroke:#181818;stroke-width:1;"/><line style="stroke:#181818;stroke-width:1;" x1="307.8589" x2="1138.54" y1="930.8906" y2="930.8906"/><text fill="#000000" font-family="sans-serif" font-size="13" lengthAdjust="spacing" textLength="143.311" x="314.8589" y="925.8247">Move file to the folder</text></g><rect fill="#EEEEEE" height="3" style="stroke:#EEEEEE;stroke-width:1;" width="1616.2944" x="0" y="973.457"/><line style="stroke:#000000;stroke-width:1;" x1="0" x2="1616.2944" y1="973.457" y2="973.457"/><line style="stroke:#000000;stroke-width:1;" x1="0" x2="1616.2944" y1="976.457" y2="976.457"/><rect fill="#EEEEEE" height="23.1328" style="stroke:#000000;stroke-width:2;" width="220.8384" x="697.728" y="962.8906"/><text fill="#000000" font-family="sans-serif" font-size="13" font-weight="bold" lengthAdjust="spacing" textLength="202.3125" x="703.728" y="978.9575">Validation: ValidationRoute</text><g class="message" data-participant-1="MQ" data-participant-2="App"><polygon fill="#181818" points="318.8589,1028.2891,308.8589,1032.2891,318.8589,1036.2891,314.8589,1032.2891" style="stroke:#181818;stroke-width:1;"/><ellipse cx="784.9575" cy="1031.5391" fill="#000000" rx="4" ry="4" style="stroke:#181818;stroke-width:1.5;"/><line style="stroke:#181818;stroke-width:1;" x1="312.8589" x2="780.4575" y1="1032.2891" y2="1032.2891"/><text fill="#000000" font-family="sans-serif" font-size="13" lengthAdjust="spacing" textLength="114.0356" x="324.8589" y="1012.0903">Receive message</text><text fill="#000000" font-family="sans-serif" font-size="13" font-weight="bold" lengthAdjust="spacing" textLength="47.1948" x="324.8589" y="1027.2231">Queue</text><text fill="#000000" font-family="sans-serif" font-size="13" lengthAdjust="spacing" textLength="101.3911" x="372.0537" y="1027.2231">: swift-validator</text></g><path d="M142.7612,1047.2891 L229.0273,1047.2891 L229.0273,1054.4219 L219.0273,1064.4219 L142.7612,1064.4219 L142.7612,1047.2891" fill="#EEEEEE" style="stroke:#000000;stroke-width:1.5;"/><rect fill="none" height="646.0625" style="stroke:#000000;stroke-width:1.5;" width="1295.9639" x="142.7612" y="1047.2891"/><text fill="#000000" font-family="sans-serif" font-size="13" font-weight="bold" lengthAdjust="spacing" textLength="41.2661" x="157.7612" y="1060.356">Parse</text><g class="message" data-participant-1="App" data-participant-2="App"><line style="stroke:#181818;stroke-width:1;" x1="307.8589" x2="349.8589" y1="1085.5547" y2="1085.5547"/><line style="stroke:#181818;stroke-width:1;" x1="349.8589" x2="349.8589" y1="1085.5547" y2="1098.5547"/><line style="stroke:#181818;stroke-width:1;" x1="308.8589" x2="349.8589" y1="1098.5547" y2="1098.5547"/><polygon fill="#181818" points="318.8589,1094.5547,308.8589,1098.5547,318.8589,1102.5547,314.8589,1098.5547" style="stroke:#181818;stroke-width:1;"/><text fill="#000000" font-family="sans-serif" font-size="13" lengthAdjust="spacing" textLength="134.3037" x="314.8589" y="1080.4888">Validate well formed</text></g><path d="M152.7612,1113.5547 L217.2041,1113.5547 L217.2041,1120.6875 L207.2041,1130.6875 L152.7612,1130.6875 L152.7612,1113.5547" fill="#EEEEEE" style="stroke:#000000;stroke-width:1.5;"/><rect fill="none" height="572.7969" style="stroke:#000000;stroke-width:1.5;" width="1275.9639" x="152.7612" y="1113.5547"/><text fill="#000000" font-family="sans-serif" font-size="13" font-weight="bold" lengthAdjust="spacing" textLength="19.4429" x="167.7612" y="1126.6216">alt</text><text fill="#000000" font-family="sans-serif" font-size="11" font-weight="bold" lengthAdjust="spacing" textLength="85.583" x="232.2041" y="1125.7651">[Well formed]</text><path d="M162.7612,1137.6875 L296.1016,1137.6875 L296.1016,1144.8203 L286.1016,1154.8203 L162.7612,1154.8203 L162.7612,1137.6875" fill="#EEEEEE" style="stroke:#000000;stroke-width:1.5;"/><rect fill="none" height="347.7969" style="stroke:#000000;stroke-width:1.5;" width="1115.0713" x="162.7612" y="1137.6875"/><text fill="#000000" font-family="sans-serif" font-size="13" font-weight="bold" lengthAdjust="spacing" textLength="88.3403" x="177.7612" y="1150.7544">Validate MX</text><path d="M172.7612,1161.8203 L237.2041,1161.8203 L237.2041,1168.9531 L227.2041,1178.9531 L172.7612,1178.9531 L172.7612,1161.8203" fill="#EEEEEE" style="stroke:#000000;stroke-width:1.5;"/><rect fill="none" height="316.6641" style="stroke:#000000;stroke-width:1.5;" width="1095.0713" x="172.7612" y="1161.8203"/><text fill="#000000" font-family="sans-serif" font-size="13" font-weight="bold" lengthAdjust="spacing" textLength="19.4429" x="187.7612" y="1174.8872">alt</text><text fill="#000000" font-family="sans-serif" font-size="11" font-weight="bold" lengthAdjust="spacing" textLength="128.2456" x="252.2041" y="1174.0308">[Valid &amp; 008.001.08]</text><path d="M182.7612,1185.9531 L310.0015,1185.9531 L310.0015,1193.0859 L300.0015,1203.0859 L182.7612,1203.0859 L182.7612,1185.9531" fill="#EEEEEE" style="stroke:#000000;stroke-width:1.5;"/><rect fill="none" height="135.9297" style="stroke:#000000;stroke-width:1.5;" width="656.0215" x="182.7612" y="1185.9531"/><text fill="#000000" font-family="sans-serif" font-size="13" font-weight="bold" lengthAdjust="spacing" textLength="82.2402" x="197.7612" y="1199.02">008.001.08</text><g class="message" data-participant-1="App" data-participant-2="PG"><polygon fill="#181818" points="686.9619,1265.6172,696.9619,1269.6172,686.9619,1273.6172,690.9619,1269.6172" style="stroke:#181818;stroke-width:1;"/><line style="stroke:#181818;stroke-width:1;" x1="307.8589" x2="692.9619" y1="1269.6172" y2="1269.6172"/><text fill="#000000" font-family="sans-serif" font-size="13" lengthAdjust="spacing" textLength="91.1587" x="314.8589" y="1219.1528">Update status</text><text fill="#000000" font-family="sans-serif" font-size="13" font-weight="bold" lengthAdjust="spacing" textLength="69.1831" x="314.8589" y="1234.2856">Database</text><text fill="#000000" font-family="sans-serif" font-size="13" lengthAdjust="spacing" textLength="55.707" x="384.042" y="1234.2856">: swiftdb</text><text fill="#000000" font-family="sans-serif" font-size="13" font-weight="bold" lengthAdjust="spacing" textLength="40.2188" x="314.8589" y="1249.4185">Table</text><text fill="#000000" font-family="sans-serif" font-size="13" lengthAdjust="spacing" textLength="58.7539" x="355.0776" y="1249.4185">: process</text><text fill="#000000" font-family="sans-serif" font-size="13" font-weight="bold" lengthAdjust="spacing" textLength="47.5566" x="314.8589" y="1264.5513">Status</text><text fill="#000000" font-family="sans-serif" font-size="13" lengthAdjust="spacing" textLength="82.4434" x="362.4155" y="1264.5513">: VALIDATED</text></g><g class="message" data-participant-1="App" data-participant-2="MQ"><polygon fill="#181818" points="773.4575,1309.8828,783.4575,1313.8828,773.4575,1317.8828,777.4575,1313.8828" style="stroke:#181818;stroke-width:1;"/><line style="stroke:#181818;stroke-width:1;" x1="307.8589" x2="779.4575" y1="1313.8828" y2="1313.8828"/><text fill="#000000" font-family="sans-serif" font-size="13" lengthAdjust="spacing" textLength="173.5005" x="314.8589" y="1293.6841">Send to the specific queue</text><text fill="#000000" font-family="sans-serif" font-size="13" font-weight="bold" lengthAdjust="spacing" textLength="47.1948" x="314.8589" y="1308.8169">Queue</text><text fill="#000000" font-family="sans-serif" font-size="13" lengthAdjust="spacing" textLength="152.5977" x="362.0537" y="1308.8169">: swift-pacs.008.001.08</text></g><line style="stroke:#000000;stroke-width:1;stroke-dasharray:2,2;" x1="172.7612" x2="1267.8325" y1="1329.8828" y2="1329.8828"/><text fill="#000000" font-family="sans-serif" font-size="11" font-weight="bold" lengthAdjust="spacing" textLength="51.9868" x="177.7612" y="1340.0933">[Invalid]</text><path d="M182.7612,1350.6875 L394.8062,1350.6875 L394.8062,1357.8203 L384.8062,1367.8203 L182.7612,1367.8203 L182.7612,1350.6875" fill="#EEEEEE" style="stroke:#000000;stroke-width:1.5;"/><rect fill="none" height="120.7969" style="stroke:#000000;stroke-width:1.5;" width="1075.0713" x="182.7612" y="1350.6875"/><text fill="#000000" font-family="sans-serif" font-size="13" font-weight="bold" lengthAdjust="spacing" textLength="167.0449" x="197.7612" y="1363.7544">UnsupportedException</text><g class="message" data-participant-1="App" data-participant-2="PG"><polygon fill="#181818" points="686.9619,1430.3516,696.9619,1434.3516,686.9619,1438.3516,690.9619,1434.3516" style="stroke:#181818;stroke-width:1;"/><line style="stroke:#181818;stroke-width:1;" x1="307.8589" x2="692.9619" y1="1434.3516" y2="1434.3516"/><text fill="#000000" font-family="sans-serif" font-size="13" lengthAdjust="spacing" textLength="91.1587" x="314.8589" y="1383.8872">Update status</text><text fill="#000000" font-family="sans-serif" font-size="13" font-weight="bold" lengthAdjust="spacing" textLength="69.1831" x="314.8589" y="1399.02">Database</text><text fill="#000000" font-family="sans-serif" font-size="13" lengthAdjust="spacing" textLength="55.707" x="384.042" y="1399.02">: swiftdb</text><text fill="#000000" font-family="sans-serif" font-size="13" font-weight="bold" lengthAdjust="spacing" textLength="40.2188" x="314.8589" y="1414.1528">Table</text><text fill="#000000" font-family="sans-serif" font-size="13" lengthAdjust="spacing" textLength="58.7539" x="355.0776" y="1414.1528">: process</text><text fill="#000000" font-family="sans-serif" font-size="13" font-weight="bold" lengthAdjust="spacing" textLength="47.5566" x="314.8589" y="1429.2856">Status</text><text fill="#000000" font-family="sans-serif" font-size="13" lengthAdjust="spacing" textLength="106.6279" x="362.4155" y="1429.2856">: UNSUPPORTED</text></g><g class="message" data-participant-1="App" data-participant-2="Unsupported"><polygon fill="#181818" points="1132.54,1459.4844,1142.54,1463.4844,1132.54,1467.4844,1136.54,1463.4844" style="stroke:#181818;stroke-width:1;"/><line style="stroke:#181818;stroke-width:1;" x1="307.8589" x2="1138.54" y1="1463.4844" y2="1463.4844"/><text fill="#000000" font-family="sans-serif" font-size="13" lengthAdjust="spacing" textLength="143.311" x="314.8589" y="1458.4185">Move file to the folder</text></g><line style="stroke:#000000;stroke-width:1;stroke-dasharray:2,2;" x1="152.7612" x2="1428.7251" y1="1493.4844" y2="1493.4844"/><text fill="#000000" font-family="sans-serif" font-size="11" font-weight="bold" lengthAdjust="spacing" textLength="76.7583" x="157.7612" y="1503.6948">[Malformed]</text><path d="M182.7612,1514.2891 L406.5684,1514.2891 L406.5684,1521.4219 L396.5684,1531.4219 L182.7612,1531.4219 L182.7612,1514.2891" fill="#EEEEEE" style="stroke:#000000;stroke-width:1.5;"/><rect fill="none" height="165.0625" style="stroke:#000000;stroke-width:1.5;" width="1235.9639" x="182.7612" y="1514.2891"/><text fill="#000000" font-family="sans-serif" font-size="13" font-weight="bold" lengthAdjust="spacing" textLength="178.8071" x="197.7612" y="1527.356">MalformedXmlException</text><g class="message" data-participant-1="App" data-participant-2="PG"><polygon fill="#181818" points="686.9619,1593.9531,696.9619,1597.9531,686.9619,1601.9531,690.9619,1597.9531" style="stroke:#181818;stroke-width:1;"/><line style="stroke:#181818;stroke-width:1;" x1="307.8589" x2="692.9619" y1="1597.9531" y2="1597.9531"/><text fill="#000000" font-family="sans-serif" font-size="13" lengthAdjust="spacing" textLength="91.1587" x="314.8589" y="1547.4888">Update status</text><text fill="#000000" font-family="sans-serif" font-size="13" font-weight="bold" lengthAdjust="spacing" textLength="69.1831" x="314.8589" y="1562.6216">Database</text><text fill="#000000" font-family="sans-serif" font-size="13" lengthAdjust="spacing" textLength="55.707" x="384.042" y="1562.6216">: swiftdb</text><text fill="#000000" font-family="sans-serif" font-size="13" font-weight="bold" lengthAdjust="spacing" textLength="40.2188" x="314.8589" y="1577.7544">Table</text><text fill="#000000" font-family="sans-serif" font-size="13" lengthAdjust="spacing" textLength="58.7539" x="355.0776" y="1577.7544">: process</text><text fill="#000000" font-family="sans-serif" font-size="13" font-weight="bold" lengthAdjust="spacing" textLength="47.5566" x="314.8589" y="1592.8872">Status</text><text fill="#000000" font-family="sans-serif" font-size="13" lengthAdjust="spacing" textLength="54.1836" x="362.4155" y="1592.8872">: FAILED</text></g><g class="message" data-participant-1="App" data-participant-2="MQ"><polygon fill="#181818" points="773.4575,1638.2188,783.4575,1642.2188,773.4575,1646.2188,777.4575,1642.2188" style="stroke:#181818;stroke-width:1;"/><line style="stroke:#181818;stroke-width:1;" x1="307.8589" x2="779.4575" y1="1642.2188" y2="1642.2188"/><text fill="#000000" font-family="sans-serif" font-size="13" lengthAdjust="spacing" textLength="178.0327" x="314.8589" y="1622.02">Send to Dead Letter Queue</text><text fill="#000000" font-family="sans-serif" font-size="13" font-weight="bold" lengthAdjust="spacing" textLength="47.1948" x="314.8589" y="1637.1528">Queue</text><text fill="#000000" font-family="sans-serif" font-size="13" lengthAdjust="spacing" textLength="116.2002" x="362.0537" y="1637.1528">: swift-dead-letter</text></g><g class="message" data-participant-1="App" data-participant-2="Error"><polygon fill="#181818" points="1321.2788,1667.3516,1331.2788,1671.3516,1321.2788,1675.3516,1325.2788,1671.3516" style="stroke:#181818;stroke-width:1;"/><line style="stroke:#181818;stroke-width:1;" x1="307.8589" x2="1327.2788" y1="1671.3516" y2="1671.3516"/><text fill="#000000" font-family="sans-serif" font-size="13" lengthAdjust="spacing" textLength="143.311" x="314.8589" y="1666.2856">Move file to the folder</text></g><rect fill="#EEEEEE" height="3" style="stroke:#EEEEEE;stroke-width:1;" width="1616.2944" x="0" y="1720.918"/><line style="stroke:#000000;stroke-width:1;" x1="0" x2="1616.2944" y1="1720.918" y2="1720.918"/><line style="stroke:#000000;stroke-width:1;" x1="0" x2="1616.2944" y1="1723.918" y2="1723.918"/><rect fill="#EEEEEE" height="23.1328" style="stroke:#000000;stroke-width:2;" width="341.0249" x="637.6348" y="1710.3516"/><text fill="#000000" font-family="sans-serif" font-size="13" font-weight="bold" lengthAdjust="spacing" textLength="322.499" x="643.6348" y="1726.4185">Specific Workflow: PACS_XXX_XXX_XXRoute</text><g class="message" data-participant-1="MQ" data-participant-2="App"><polygon fill="#181818" points="318.8589,1775.75,308.8589,1779.75,318.8589,1783.75,314.8589,1779.75" style="stroke:#181818;stroke-width:1;"/><ellipse cx="784.9575" cy="1779" fill="#000000" rx="4" ry="4" style="stroke:#181818;stroke-width:1.5;"/><line style="stroke:#181818;stroke-width:1;" x1="312.8589" x2="780.4575" y1="1779.75" y2="1779.75"/><text fill="#000000" font-family="sans-serif" font-size="13" lengthAdjust="spacing" textLength="114.0356" x="324.8589" y="1759.5513">Receive message</text><text fill="#000000" font-family="sans-serif" font-size="13" font-weight="bold" lengthAdjust="spacing" textLength="47.1948" x="324.8589" y="1774.6841">Queue</text><text fill="#000000" font-family="sans-serif" font-size="13" lengthAdjust="spacing" textLength="157.6758" x="372.0537" y="1774.6841">: swift-pacs.XXX.XXX.XX</text></g><path d="M182.7612,1794.75 L389.9312,1794.75 L389.9312,1801.8828 L379.9312,1811.8828 L182.7612,1811.8828 L182.7612,1794.75" fill="#EEEEEE" style="stroke:#000000;stroke-width:1.5;"/><rect fill="none" height="162.9297" style="stroke:#000000;stroke-width:1.5;" width="1418.5332" x="182.7612" y="1794.75"/><text fill="#000000" font-family="sans-serif" font-size="13" font-weight="bold" lengthAdjust="spacing" textLength="162.1699" x="197.7612" y="1807.8169">swift-pacs.008.001.08</text><g class="message" data-participant-1="App" data-participant-2="App"><line style="stroke:#181818;stroke-width:1;" x1="307.8589" x2="349.8589" y1="1833.0156" y2="1833.0156"/><line style="stroke:#181818;stroke-width:1;" x1="349.8589" x2="349.8589" y1="1833.0156" y2="1846.0156"/><line style="stroke:#181818;stroke-width:1;" x1="308.8589" x2="349.8589" y1="1846.0156" y2="1846.0156"/><polygon fill="#181818" points="318.8589,1842.0156,308.8589,1846.0156,318.8589,1850.0156,314.8589,1846.0156" style="stroke:#181818;stroke-width:1;"/><text fill="#000000" font-family="sans-serif" font-size="13" lengthAdjust="spacing" textLength="138.4297" x="314.8589" y="1827.9497">Implement your logic</text></g><g class="message" data-participant-1="App" data-participant-2="PG"><polygon fill="#181818" points="686.9619,1916.5469,696.9619,1920.5469,686.9619,1924.5469,690.9619,1920.5469" style="stroke:#181818;stroke-width:1;"/><line style="stroke:#181818;stroke-width:1;" x1="307.8589" x2="692.9619" y1="1920.5469" y2="1920.5469"/><text fill="#000000" font-family="sans-serif" font-size="13" lengthAdjust="spacing" textLength="91.1587" x="314.8589" y="1870.0825">Update status</text><text fill="#000000" font-family="sans-serif" font-size="13" font-weight="bold" lengthAdjust="spacing" textLength="69.1831" x="314.8589" y="1885.2153">Database</text><text fill="#000000" font-family="sans-serif" font-size="13" lengthAdjust="spacing" textLength="55.707" x="384.042" y="1885.2153">: swiftdb</text><text fill="#000000" font-family="sans-serif" font-size="13" font-weight="bold" lengthAdjust="spacing" textLength="40.2188" x="314.8589" y="1900.3481">Table</text><text fill="#000000" font-family="sans-serif" font-size="13" lengthAdjust="spacing" textLength="58.7539" x="355.0776" y="1900.3481">: process</text><text fill="#000000" font-family="sans-serif" font-size="13" font-weight="bold" lengthAdjust="spacing" textLength="47.5566" x="314.8589" y="1915.481">Status</text><text fill="#000000" font-family="sans-serif" font-size="13" lengthAdjust="spacing" textLength="88.499" x="362.4155" y="1915.481">: COMPLETED</text></g><g class="message" data-participant-1="App" data-participant-2="Success"><polygon fill="#181818" points="1493.0098,1945.6797,1503.0098,1949.6797,1493.0098,1953.6797,1497.0098,1949.6797" style="stroke:#181818;stroke-width:1;"/><line style="stroke:#181818;stroke-width:1;" x1="307.8589" x2="1499.0098" y1="1949.6797" y2="1949.6797"/><text fill="#000000" font-family="sans-serif" font-size="13" lengthAdjust="spacing" textLength="143.311" x="314.8589" y="1944.6138">Move file to the folder</text></g><!--SRC=[jLPjR-8u4FwUN-5IwLugbTAbxNMHUX8Bb4C7MmhTfHzEMXbd0Al6pjfEeV_-niuBIO1AL-aifIIUyJFsCy-CQrwuZAYcQpAcsdB68ohjc8OXbqlowJemkVsBskRpZI3uTMLjP5eN5vlDfiwKKFfy1LjyMryaNn4LO2rSN3Pkhgx_-1ISXB3W4iYaroMdysQJDca-zsNoCFjAJc_PDJHPFlimQN_jzyXf-9bUNLtcqyD1_w-d7_r9huTBRjZywlCyjtNRaxypKnDkvaq8WhdQabflQq5BAiWKz2jdK2EdGxvSsRw6ju3WY7R79nt10Ny8DUbh038aY9E2jQD8S4OjLn9nPYjkOG_3ZTeqqewlwMnm_qHwMxQYSecXtK1iX27vsEsy4gnBBIr52N5YJWraAoSGSaCE3unICYUK7eGPAsEN6imHc76_y5s0-Hb330LJcrd-2gF78p0bGmfJFkyz5s1A1qOz2M2ExMHpjO6COalkbGX1r_P29DPqU6KTHlacJHn5Ibi8grY8KhGwpHx6w6cjzD6T9DOiJSSmfZ5ZOCmX5CJ8h4T5SdT776L40uF8mRRyzqJ55iZTNH2aQZx_Cs6cHReWC4KwbUKQqUaIo08N1S5IgpWY7Re6aS0EkR4WGVkzEyNkSAQCIh_CU6F2-pdQqSrj0dSeOPC05rPxGRP8sxmGeTWBKNBdulzGOKj5xlSXbKM31Xg- -MKG1kK2o0CF7QXTmGwr4DnxZDHhOYLMaLeTEvnMJleekuLFWby5mYJToiV_3x7zLjdFcElK4NFbykLpDTRAvzE5hsOg8JzHFkbWFFn9_OCYW-D-ApCxWgF4vHzvTjPDY_hih4NCXYziE7VJJtGk_5p1TMgfZOsRx4nwxISyPqA-gryVkE-_iUxpqsLx7oHA3g7e75HPde146IKyRxXT5PRZFh1VRybliUJOG2JE_huFq9DCSxPArPYrJxB2F816HZob1yK2sEsbmLeWc9nQVRiMDOzU8ZYjhAf2He-eR5TTg0sdebSgEFPAB6JVwXnrZ-ubf_WyzyYJ7UJQUK08lTkFzpZXaeau11FF2JxkrZ3rIE2j4Q_5IQ7nu96JalRLxkNpFOdbotptlfCGzbUrIm03BFIimj_TUQez_2V0m5uYqa2OHX02IqIlKTW7ItLMSCXuBP6UGusUWrAdgm1vF_8BQJHkwut6PRrn6rHlanBkEtwLmlaM-VZ6o__3DVEzFHnqTrLp95vLIoO2nXUS7PLIH9cfltCMBwxIH2QqWVJ9t5ln0R5L0-u5puEEgAWa-_rmkV_pMfJZ9GBFckGquscczCj2g0tsddPd-kFv-JbzFgfuJp12f4-c- -Fi5-jWi8u4hDrb-gPYZLV1ahFWVv5Nvs4q7lPoUQNuQSUgN63-gakkBS_Vlm00]--></g></svg>