<svg xmlns="http://www.w3.org/2000/svg" xmlns:xlink="http://www.w3.org/1999/xlink" contentStyleType="text/css" data-diagram-type="SEQUENCE" height="2066px" preserveAspectRatio="none" style="width:1519px;height:2066px;background:#FFFFFF;" version="1.1" viewBox="0 0 1519 2066" width="1519px" zoomAndPan="magnify"><defs/><g><rect fill="#D3D3D3" height="2047.2246" style="stroke:#181818;stroke-width:0.5;" width="112.4058" x="11" y="6"/><text fill="#000000" font-family="sans-serif" font-size="13" font-weight="bold" lengthAdjust="spacing" textLength="106.4058" x="14" y="18.5684">External Service</text><rect fill="#FFFFFF" height="2047.2246" style="stroke:#181818;stroke-width:0.5;" width="1286.145" x="190.3462" y="6"/><text fill="#000000" font-family="sans-serif" font-size="13" font-weight="bold" lengthAdjust="spacing" textLength="103.7651" x="781.5361" y="18.5684">Internal Service</text><g><title>Postgres</title><rect fill="#FFFFFF" height="29.3105" style="stroke:#181818;stroke-width:1;" width="10" x="990.1152" y="571.7227"/></g><rect fill="none" height="252.4395" style="stroke:#000000;stroke-width:1.5;" width="788.7163" x="184.3462" y="177.4199"/><rect fill="#90EE90" height="133.1973" style="stroke:#000000;stroke-width:1.5;" width="460.771" x="502.2915" y="289.6621"/><rect fill="#FFC0CB" height="44.2656" style="stroke:none;stroke-width:1;" width="460.771" x="502.2915" y="378.5938"/><rect fill="#FFFFFF" height="206.4844" style="stroke:#000000;stroke-width:1.5;" width="534.8765" x="502.2915" y="487.1699"/><rect fill="#90EE90" height="244.0605" style="stroke:#000000;stroke-width:1.5;" width="851.9048" x="492.2915" y="707.6543"/><rect fill="#FFFFFF" height="61.9316" style="stroke:#000000;stroke-width:1.5;" width="628.9702" x="502.2915" y="731.9648"/><rect fill="#FFC0CB" height="150.8184" style="stroke:none;stroke-width:1;" width="851.9048" x="492.2915" y="800.8965"/><rect fill="#FFFFFF" height="121.8633" style="stroke:#000000;stroke-width:1.5;" width="831.9048" x="502.2915" y="822.8516"/><rect fill="none" height="650.9844" style="stroke:#000000;stroke-width:1.5;" width="1040.1997" x="462.2915" y="1053.6465"/><rect fill="#90EE90" height="577.3633" style="stroke:#000000;stroke-width:1.5;" width="1020.1997" x="472.2915" y="1120.2676"/><rect fill="#FFFFFF" height="350.6133" style="stroke:#000000;stroke-width:1.5;" width="871.9048" x="482.2915" y="1144.5781"/><rect fill="#90EE90" height="319.3027" style="stroke:#000000;stroke-width:1.5;" width="851.9048" x="492.2915" y="1168.8887"/><rect fill="#FFFFFF" height="137.1738" style="stroke:#000000;stroke-width:1.5;" width="628.9702" x="502.2915" y="1193.1992"/><rect fill="#FFC0CB" height="150.8184" style="stroke:none;stroke-width:1;" width="851.9048" x="492.2915" y="1337.373"/><rect fill="#FFFFFF" height="121.8633" style="stroke:#000000;stroke-width:1.5;" width="831.9048" x="502.2915" y="1359.3281"/><rect fill="#FFC0CB" height="195.4395" style="stroke:none;stroke-width:1;" width="1020.1997" x="472.2915" y="1502.1914"/><rect fill="#FFFFFF" height="166.4844" style="stroke:#000000;stroke-width:1.5;" width="980.1997" x="502.2915" y="1524.1465"/><rect fill="none" height="164.1738" style="stroke:#000000;stroke-width:1.5;" width="702.4419" x="334.7261" y="1806.5625"/><g><title>Client</title><rect fill="#000000" fill-opacity="0.00000" height="1899.9375" width="8" x="63.2029" y="87.7988"/><line style="stroke:#181818;stroke-width:0.5;stroke-dasharray:5,5;" x1="66.4504" x2="66.4504" y1="87.7988" y2="1987.7363"/></g><g><title>Input Folder</title><rect fill="#000000" fill-opacity="0.00000" height="1899.9375" width="8" x="260.5361" y="87.7988"/><line style="stroke:#181818;stroke-width:0.5;stroke-dasharray:5,5;" x1="264.3462" x2="264.3462" y1="87.7988" y2="1987.7363"/></g><g><title>Success Folder</title><rect fill="#000000" fill-opacity="0.00000" height="1899.9375" width="8" x="419.5088" y="87.7988"/><line style="stroke:#181818;stroke-width:0.5;stroke-dasharray:5,5;" x1="422.7261" x2="422.7261" y1="87.7988" y2="1987.7363"/></g><g><title>Spring SWIFT Exchange</title><rect fill="#000000" fill-opacity="0.00000" height="1899.9375" width="8" x="613.939" y="87.7988"/><line style="stroke:#181818;stroke-width:0.5;stroke-dasharray:5,5;" x1="617.2915" x2="617.2915" y1="87.7988" y2="1987.7363"/></g><g><title>Redis</title><rect fill="#000000" fill-opacity="0.00000" height="1899.9375" width="8" x="927.7388" y="87.7988"/><line style="stroke:#181818;stroke-width:0.5;stroke-dasharray:5,5;" x1="931.415" x2="931.415" y1="87.7988" y2="1987.7363"/></g><g><title>Postgres</title><rect fill="#000000" fill-opacity="0.00000" height="1899.9375" width="8" x="991.1152" y="87.7988"/><line style="stroke:#181818;stroke-width:0.5;stroke-dasharray:5,5;" x1="995.0625" x2="995.0625" y1="87.7988" y2="1987.7363"/></g><g><title>ActiveMQ</title><rect fill="#000000" fill-opacity="0.00000" height="1899.9375" width="8" x="1075.2148" y="87.7988"/><line style="stroke:#181818;stroke-width:0.5;stroke-dasharray:5,5;" x1="1079.168" x2="1079.168" y1="87.7988" y2="1987.7363"/></g><g><title>Unsupported Folder</title><rect fill="#000000" fill-opacity="0.00000" height="1899.9375" width="8" x="1223.729" y="87.7988"/><line style="stroke:#181818;stroke-width:0.5;stroke-dasharray:5,5;" x1="1227.2617" x2="1227.2617" y1="87.7988" y2="1987.7363"/></g><g><title>Error Folder</title><rect fill="#000000" fill-opacity="0.00000" height="1899.9375" width="8" x="1399.3438" y="87.7988"/><line style="stroke:#181818;stroke-width:0.5;stroke-dasharray:5,5;" x1="1403.1963" x2="1403.1963" y1="87.7988" y2="1987.7363"/></g><g class="participant participant-head" data-participant="Client"><rect fill="#E2E2F0" height="30.4883" rx="2.5" ry="2.5" style="stroke:#181818;stroke-width:0.5;" width="53.5049" x="40.4504" y="56.3105"/><text fill="#000000" font-family="sans-serif" font-size="14" lengthAdjust="spacing" textLength="39.5049" x="47.4504" y="76.8457">Client</text></g><g class="participant participant-tail" data-participant="Client"><rect fill="#E2E2F0" height="30.4883" rx="2.5" ry="2.5" style="stroke:#181818;stroke-width:0.5;" width="53.5049" x="40.4504" y="1986.7363"/><text fill="#000000" font-family="sans-serif" font-size="14" lengthAdjust="spacing" textLength="39.5049" x="47.4504" y="2007.2715">Client</text></g><g class="participant participant-head" data-participant="Input"><rect fill="#E2E2F0" height="30.4883" style="stroke:#181818;stroke-width:0.5;" width="96.3799" x="218.3462" y="52.3105"/><rect fill="#E2E2F0" height="30.4883" style="stroke:#181818;stroke-width:0.5;" width="96.3799" x="214.3462" y="56.3105"/><text fill="#000000" font-family="sans-serif" font-size="14" lengthAdjust="spacing" textLength="82.3799" x="221.3462" y="76.8457">Input Folder</text></g><g class="participant participant-tail" data-participant="Input"><rect fill="#E2E2F0" height="30.4883" style="stroke:#181818;stroke-width:0.5;" width="96.3799" x="218.3462" y="1986.7363"/><rect fill="#E2E2F0" height="30.4883" style="stroke:#181818;stroke-width:0.5;" width="96.3799" x="214.3462" y="1990.7363"/><text fill="#000000" font-family="sans-serif" font-size="14" lengthAdjust="spacing" textLength="82.3799" x="221.3462" y="2011.2715">Input Folder</text></g><g class="participant participant-head" data-participant="Success"><rect fill="#E2E2F0" height="30.4883" style="stroke:#181818;stroke-width:0.5;" width="113.5654" x="368.7261" y="52.3105"/><rect fill="#E2E2F0" height="30.4883" style="stroke:#181818;stroke-width:0.5;" width="113.5654" x="364.7261" y="56.3105"/><text fill="#000000" font-family="sans-serif" font-size="14" lengthAdjust="spacing" textLength="99.5654" x="371.7261" y="76.8457">Success Folder</text></g><g class="participant participant-tail" data-participant="Success"><rect fill="#E2E2F0" height="30.4883" style="stroke:#181818;stroke-width:0.5;" width="113.5654" x="368.7261" y="1986.7363"/><rect fill="#E2E2F0" height="30.4883" style="stroke:#181818;stroke-width:0.5;" width="113.5654" x="364.7261" y="1990.7363"/><text fill="#000000" font-family="sans-serif" font-size="14" lengthAdjust="spacing" textLength="99.5654" x="371.7261" y="2011.2715">Success Folder</text></g><g class="participant participant-head" data-participant="App"><rect fill="#E2E2F0" height="30.4883" rx="2.5" ry="2.5" style="stroke:#181818;stroke-width:0.5;" width="171.2949" x="532.2915" y="56.3105"/><text fill="#000000" font-family="sans-serif" font-size="14" lengthAdjust="spacing" textLength="157.2949" x="539.2915" y="76.8457">Spring SWIFT Exchange</text></g><g class="participant participant-tail" data-participant="App"><rect fill="#E2E2F0" height="30.4883" rx="2.5" ry="2.5" style="stroke:#181818;stroke-width:0.5;" width="171.2949" x="532.2915" y="1986.7363"/><text fill="#000000" font-family="sans-serif" font-size="14" lengthAdjust="spacing" textLength="157.2949" x="539.2915" y="2007.2715">Spring SWIFT Exchange</text></g><g class="participant participant-head" data-participant="Redis"><text fill="#000000" font-family="sans-serif" font-size="14" lengthAdjust="spacing" textLength="36.6475" x="910.415" y="84.8457">Redis</text><path d="M913.7388,35.3105 C913.7388,25.3105 931.7388,25.3105 931.7388,25.3105 C931.7388,25.3105 949.7388,25.3105 949.7388,35.3105 L949.7388,61.3105 C949.7388,71.3105 931.7388,71.3105 931.7388,71.3105 C931.7388,71.3105 913.7388,71.3105 913.7388,61.3105 L913.7388,35.3105" fill="#FF0000" style="stroke:#181818;stroke-width:0.5;"/><path d="M913.7388,35.3105 C913.7388,45.3105 931.7388,45.3105 931.7388,45.3105 C931.7388,45.3105 949.7388,45.3105 949.7388,35.3105" fill="none" style="stroke:#181818;stroke-width:0.5;"/></g><g class="participant participant-tail" data-participant="Redis"><text fill="#000000" font-family="sans-serif" font-size="14" lengthAdjust="spacing" textLength="36.6475" x="910.415" y="2000.2715">Redis</text><path d="M913.7388,2013.2246 C913.7388,2003.2246 931.7388,2003.2246 931.7388,2003.2246 C931.7388,2003.2246 949.7388,2003.2246 949.7388,2013.2246 L949.7388,2039.2246 C949.7388,2049.2246 931.7388,2049.2246 931.7388,2049.2246 C931.7388,2049.2246 913.7388,2049.2246 913.7388,2039.2246 L913.7388,2013.2246" fill="#FF0000" style="stroke:#181818;stroke-width:0.5;"/><path d="M913.7388,2013.2246 C913.7388,2023.2246 931.7388,2023.2246 931.7388,2023.2246 C931.7388,2023.2246 949.7388,2023.2246 949.7388,2013.2246" fill="none" style="stroke:#181818;stroke-width:0.5;"/></g><g class="participant participant-head" data-participant="PG"><text fill="#000000" font-family="sans-serif" font-size="14" lengthAdjust="spacing" textLength="58.1055" x="963.0625" y="84.8457">Postgres</text><path d="M977.1152,35.3105 C977.1152,25.3105 995.1152,25.3105 995.1152,25.3105 C995.1152,25.3105 1013.1152,25.3105 1013.1152,35.3105 L1013.1152,61.3105 C1013.1152,71.3105 995.1152,71.3105 995.1152,71.3105 C995.1152,71.3105 977.1152,71.3105 977.1152,61.3105 L977.1152,35.3105" fill="#FFFFFF" style="stroke:#181818;stroke-width:0.5;"/><path d="M977.1152,35.3105 C977.1152,45.3105 995.1152,45.3105 995.1152,45.3105 C995.1152,45.3105 1013.1152,45.3105 1013.1152,35.3105" fill="none" style="stroke:#181818;stroke-width:0.5;"/></g><g class="participant participant-tail" data-participant="PG"><text fill="#000000" font-family="sans-serif" font-size="14" lengthAdjust="spacing" textLength="58.1055" x="963.0625" y="2000.2715">Postgres</text><path d="M977.1152,2013.2246 C977.1152,2003.2246 995.1152,2003.2246 995.1152,2003.2246 C995.1152,2003.2246 1013.1152,2003.2246 1013.1152,2013.2246 L1013.1152,2039.2246 C1013.1152,2049.2246 995.1152,2049.2246 995.1152,2049.2246 C995.1152,2049.2246 977.1152,2049.2246 977.1152,2039.2246 L977.1152,2013.2246" fill="#FFFFFF" style="stroke:#181818;stroke-width:0.5;"/><path d="M977.1152,2013.2246 C977.1152,2023.2246 995.1152,2023.2246 995.1152,2023.2246 C995.1152,2023.2246 1013.1152,2023.2246 1013.1152,2013.2246" fill="none" style="stroke:#181818;stroke-width:0.5;"/></g><g class="participant participant-head" data-participant="MQ"><path d="M1042.168,61.3105 L1116.2617,61.3105 C1121.2617,61.3105 1121.2617,74.5547 1121.2617,74.5547 C1121.2617,74.5547 1121.2617,87.7988 1116.2617,87.7988 L1042.168,87.7988 C1037.168,87.7988 1037.168,74.5547 1037.168,74.5547 C1037.168,74.5547 1037.168,61.3105 1042.168,61.3105" fill="#FFA500" style="stroke:#181818;stroke-width:0.5;"/><path d="M1116.2617,61.3105 C1111.2617,61.3105 1111.2617,74.5547 1111.2617,74.5547 C1111.2617,87.7988 1116.2617,87.7988 1116.2617,87.7988" fill="none" style="stroke:#181818;stroke-width:0.5;"/><text fill="#000000" font-family="sans-serif" font-size="14" lengthAdjust="spacing" textLength="64.0938" x="1042.168" y="79.8457">ActiveMQ</text></g><g class="participant participant-tail" data-participant="MQ"><path d="M1042.168,1986.7363 L1116.2617,1986.7363 C1121.2617,1986.7363 1121.2617,1999.9805 1121.2617,1999.9805 C1121.2617,1999.9805 1121.2617,2013.2246 1116.2617,2013.2246 L1042.168,2013.2246 C1037.168,2013.2246 1037.168,1999.9805 1037.168,1999.9805 C1037.168,1999.9805 1037.168,1986.7363 1042.168,1986.7363" fill="#FFA500" style="stroke:#181818;stroke-width:0.5;"/><path d="M1116.2617,1986.7363 C1111.2617,1986.7363 1111.2617,1999.9805 1111.2617,1999.9805 C1111.2617,2013.2246 1116.2617,2013.2246 1116.2617,2013.2246" fill="none" style="stroke:#181818;stroke-width:0.5;"/><text fill="#000000" font-family="sans-serif" font-size="14" lengthAdjust="spacing" textLength="64.0938" x="1042.168" y="2005.2715">ActiveMQ</text></g><g class="participant participant-head" data-participant="Unsupported"><rect fill="#E2E2F0" height="30.4883" style="stroke:#181818;stroke-width:0.5;" width="148.9346" x="1155.2617" y="52.3105"/><rect fill="#E2E2F0" height="30.4883" style="stroke:#181818;stroke-width:0.5;" width="148.9346" x="1151.2617" y="56.3105"/><text fill="#000000" font-family="sans-serif" font-size="14" lengthAdjust="spacing" textLength="134.9346" x="1158.2617" y="76.8457">Unsupported Folder</text></g><g class="participant participant-tail" data-participant="Unsupported"><rect fill="#E2E2F0" height="30.4883" style="stroke:#181818;stroke-width:0.5;" width="148.9346" x="1155.2617" y="1986.7363"/><rect fill="#E2E2F0" height="30.4883" style="stroke:#181818;stroke-width:0.5;" width="148.9346" x="1151.2617" y="1990.7363"/><text fill="#000000" font-family="sans-serif" font-size="14" lengthAdjust="spacing" textLength="134.9346" x="1158.2617" y="2011.2715">Unsupported Folder</text></g><g class="participant participant-head" data-participant="Error"><rect fill="#E2E2F0" height="30.4883" style="stroke:#181818;stroke-width:0.5;" width="94.2949" x="1358.1963" y="52.3105"/><rect fill="#E2E2F0" height="30.4883" style="stroke:#181818;stroke-width:0.5;" width="94.2949" x="1354.1963" y="56.3105"/><text fill="#000000" font-family="sans-serif" font-size="14" lengthAdjust="spacing" textLength="80.2949" x="1361.1963" y="76.8457">Error Folder</text></g><g class="participant participant-tail" data-participant="Error"><rect fill="#E2E2F0" height="30.4883" style="stroke:#181818;stroke-width:0.5;" width="94.2949" x="1358.1963" y="1986.7363"/><rect fill="#E2E2F0" height="30.4883" style="stroke:#181818;stroke-width:0.5;" width="94.2949" x="1354.1963" y="1990.7363"/><text fill="#000000" font-family="sans-serif" font-size="14" lengthAdjust="spacing" textLength="80.2949" x="1361.1963" y="2011.2715">Error Folder</text></g><g><title>Postgres</title><rect fill="#FFFFFF" height="29.3105" style="stroke:#181818;stroke-width:1;" width="10" x="990.1152" y="571.7227"/></g><rect fill="#EEEEEE" height="3" style="stroke:#EEEEEE;stroke-width:1;" width="1512.4912" x="0" y="118.4541"/><line style="stroke:#000000;stroke-width:1;" x1="0" x2="1512.4912" y1="118.4541" y2="118.4541"/><line style="stroke:#000000;stroke-width:1;" x1="0" x2="1512.4912" y1="121.4541" y2="121.4541"/><rect fill="#EEEEEE" height="23.3105" style="stroke:#000000;stroke-width:2;" width="178.8486" x="666.8213" y="107.7988"/><text fill="#000000" font-family="sans-serif" font-size="13" font-weight="bold" lengthAdjust="spacing" textLength="160.564" x="672.8213" y="124.3672">File reception: FileRoute</text><g class="message" data-participant-1="Client" data-participant-2="Input"><polygon fill="#181818" points="252.5361,158.4199,262.5361,162.4199,252.5361,166.4199,256.5361,162.4199" style="stroke:#181818;stroke-width:1;"/><line style="stroke:#181818;stroke-width:1;" x1="67.2029" x2="258.5361" y1="162.4199" y2="162.4199"/><text fill="#000000" font-family="sans-serif" font-size="13" lengthAdjust="spacing" textLength="167.8828" x="74.2029" y="157.6777">Deliver SWIFT message file</text></g><path d="M184.3462,177.4199 L356.896,177.4199 L356.896,184.7305 L346.896,194.7305 L184.3462,194.7305 L184.3462,177.4199" fill="#EEEEEE" style="stroke:#000000;stroke-width:1.5;"/><rect fill="none" height="252.4395" style="stroke:#000000;stroke-width:1.5;" width="788.7163" x="184.3462" y="177.4199"/><text fill="#000000" font-family="sans-serif" font-size="13" font-weight="bold" lengthAdjust="spacing" textLength="127.5498" x="199.3462" y="190.9883">Camel File Listener</text><g class="message" data-participant-1="App" data-participant-2="Input"><polygon fill="#181818" points="275.5361,212.041,265.5361,216.041,275.5361,220.041,271.5361,216.041" style="stroke:#181818;stroke-width:1;"/><line style="stroke:#181818;stroke-width:1;" x1="269.5361" x2="616.939" y1="216.041" y2="216.041"/><text fill="#000000" font-family="sans-serif" font-size="13" lengthAdjust="spacing" textLength="59.1855" x="281.5361" y="211.2988">Scan files</text></g><g class="message" data-participant-1="Input" data-participant-2="App"><polygon fill="#181818" points="605.939,241.3516,615.939,245.3516,605.939,249.3516,609.939,245.3516" style="stroke:#181818;stroke-width:1;"/><line style="stroke:#181818;stroke-width:1;stroke-dasharray:2,2;" x1="264.5361" x2="611.939" y1="245.3516" y2="245.3516"/><text fill="#000000" font-family="sans-serif" font-size="13" lengthAdjust="spacing" textLength="80.0693" x="271.5361" y="240.6094">Find new file</text></g><g class="message" data-participant-1="App" data-participant-2="Redis"><polygon fill="#181818" points="919.7388,270.6621,929.7388,274.6621,919.7388,278.6621,923.7388,274.6621" style="stroke:#181818;stroke-width:1;"/><line style="stroke:#181818;stroke-width:1;" x1="617.939" x2="925.7388" y1="274.6621" y2="274.6621"/><text fill="#000000" font-family="sans-serif" font-size="13" lengthAdjust="spacing" textLength="97.1255" x="624.939" y="269.9199">Ask lock on file</text></g><path d="M502.2915,289.6621 L564.4302,289.6621 L564.4302,296.9727 L554.4302,306.9727 L502.2915,306.9727 L502.2915,289.6621" fill="#EEEEEE" style="stroke:#000000;stroke-width:1.5;"/><rect fill="none" height="133.1973" style="stroke:#000000;stroke-width:1.5;" width="460.771" x="502.2915" y="289.6621"/><text fill="#000000" font-family="sans-serif" font-size="13" font-weight="bold" lengthAdjust="spacing" textLength="17.1387" x="517.2915" y="303.2305">alt</text><text fill="#000000" font-family="sans-serif" font-size="11" font-weight="bold" lengthAdjust="spacing" textLength="136.4634" x="579.4302" y="302.2969">[File not already locked]</text><g class="message" data-participant-1="Redis" data-participant-2="App"><polygon fill="#181818" points="628.939,324.2832,618.939,328.2832,628.939,332.2832,624.939,328.2832" style="stroke:#181818;stroke-width:1;"/><line style="stroke:#181818;stroke-width:1;stroke-dasharray:2,2;" x1="622.939" x2="930.7388" y1="328.2832" y2="328.2832"/><text fill="#000000" font-family="sans-serif" font-size="13" lengthAdjust="spacing" textLength="77.1113" x="634.939" y="323.541">Lock the file</text></g><g class="message" data-participant-1="App" data-participant-2="App"><line style="stroke:#181818;stroke-width:1;" x1="617.939" x2="659.939" y1="357.5938" y2="357.5938"/><line style="stroke:#181818;stroke-width:1;" x1="659.939" x2="659.939" y1="357.5938" y2="370.5938"/><line style="stroke:#181818;stroke-width:1;" x1="618.939" x2="659.939" y1="370.5938" y2="370.5938"/><polygon fill="#181818" points="628.939,366.5938,618.939,370.5938,628.939,374.5938,624.939,370.5938" style="stroke:#181818;stroke-width:1;"/><text fill="#000000" font-family="sans-serif" font-size="13" lengthAdjust="spacing" textLength="200.3193" x="624.939" y="352.8516">Move file to ".inprogress" folder</text></g><line style="stroke:#000000;stroke-width:1;stroke-dasharray:2,2;" x1="502.2915" x2="963.0625" y1="379.5938" y2="379.5938"/><text fill="#000000" font-family="sans-serif" font-size="11" font-weight="bold" lengthAdjust="spacing" textLength="114.1304" x="507.2915" y="390.2285">[File already locked]</text><g class="message" data-participant-1="Redis" data-participant-2="App"><polygon fill="#181818" points="628.939,410.8594,618.939,414.8594,628.939,418.8594,624.939,414.8594" style="stroke:#181818;stroke-width:1;"/><line style="stroke:#181818;stroke-width:1;stroke-dasharray:2,2;" x1="622.939" x2="930.7388" y1="414.8594" y2="414.8594"/><text fill="#000000" font-family="sans-serif" font-size="13" lengthAdjust="spacing" textLength="112.9058" x="634.939" y="410.1172">Lock not acquired</text></g><rect fill="#EEEEEE" height="3" style="stroke:#EEEEEE;stroke-width:1;" width="1512.4912" x="0" y="457.5146"/><line style="stroke:#000000;stroke-width:1;" x1="0" x2="1512.4912" y1="457.5146" y2="457.5146"/><line style="stroke:#000000;stroke-width:1;" x1="0" x2="1512.4912" y1="460.5146" y2="460.5146"/><rect fill="#EEEEEE" height="23.3105" style="stroke:#000000;stroke-width:2;" width="165.1821" x="673.6545" y="446.8594"/><text fill="#000000" font-family="sans-serif" font-size="13" font-weight="bold" lengthAdjust="spacing" textLength="146.8975" x="679.6545" y="463.4277">Process file: FileRoute</text><path d="M502.2915,487.1699 L646.3149,487.1699 L646.3149,494.4805 L636.3149,504.4805 L502.2915,504.4805 L502.2915,487.1699" fill="#EEEEEE" style="stroke:#000000;stroke-width:1.5;"/><rect fill="none" height="206.4844" style="stroke:#000000;stroke-width:1.5;" width="534.8765" x="502.2915" y="487.1699"/><text fill="#000000" font-family="sans-serif" font-size="13" font-weight="bold" lengthAdjust="spacing" textLength="99.0234" x="517.2915" y="500.7383">Create Process</text><g class="message" data-participant-1="App" data-participant-2="PG"><polygon fill="#181818" points="978.1152,567.7227,988.1152,571.7227,978.1152,575.7227,982.1152,571.7227" style="stroke:#181818;stroke-width:1;"/><line style="stroke:#181818;stroke-width:1;" x1="617.939" x2="984.1152" y1="571.7227" y2="571.7227"/><text fill="#000000" font-family="sans-serif" font-size="13" lengthAdjust="spacing" textLength="123.0366" x="624.939" y="521.0488">Create new process</text><text fill="#000000" font-family="sans-serif" font-size="13" font-weight="bold" lengthAdjust="spacing" textLength="62.0864" x="624.939" y="536.3594">Database</text><text fill="#000000" font-family="sans-serif" font-size="13" lengthAdjust="spacing" textLength="54.6343" x="687.0254" y="536.3594">: swiftdb</text><text fill="#000000" font-family="sans-serif" font-size="13" font-weight="bold" lengthAdjust="spacing" textLength="37.0703" x="624.939" y="551.6699">Table</text><text fill="#000000" font-family="sans-serif" font-size="13" lengthAdjust="spacing" textLength="56.8687" x="662.0093" y="551.6699">: process</text><text fill="#000000" font-family="sans-serif" font-size="13" font-weight="bold" lengthAdjust="spacing" textLength="41.4946" x="624.939" y="566.9805">Status</text><text fill="#000000" font-family="sans-serif" font-size="13" lengthAdjust="spacing" textLength="66.46" x="666.4336" y="566.9805">: CREATED</text></g><g class="message" data-participant-1="PG" data-participant-2="App"><polygon fill="#181818" points="628.939,597.0332,618.939,601.0332,628.939,605.0332,624.939,601.0332" style="stroke:#181818;stroke-width:1;"/><line style="stroke:#181818;stroke-width:1;stroke-dasharray:2,2;" x1="622.939" x2="994.1152" y1="601.0332" y2="601.0332"/><text fill="#000000" font-family="sans-serif" font-size="13" lengthAdjust="spacing" textLength="65.2412" x="634.939" y="596.291">Process ID</text></g><g class="message" data-participant-1="App" data-participant-2="App"><line style="stroke:#181818;stroke-width:1;" x1="617.939" x2="659.939" y1="630.3438" y2="630.3438"/><line style="stroke:#181818;stroke-width:1;" x1="659.939" x2="659.939" y1="630.3438" y2="643.3438"/><line style="stroke:#181818;stroke-width:1;" x1="618.939" x2="659.939" y1="643.3438" y2="643.3438"/><polygon fill="#181818" points="628.939,639.3438,618.939,643.3438,628.939,647.3438,624.939,643.3438" style="stroke:#181818;stroke-width:1;"/><text fill="#000000" font-family="sans-serif" font-size="13" lengthAdjust="spacing" textLength="299.7998" x="624.939" y="625.6016">Rename file with Process ID prefix (uniqueness)</text></g><g class="message" data-participant-1="App" data-participant-2="App"><line style="stroke:#181818;stroke-width:1;" x1="617.939" x2="659.939" y1="672.6543" y2="672.6543"/><line style="stroke:#181818;stroke-width:1;" x1="659.939" x2="659.939" y1="672.6543" y2="685.6543"/><line style="stroke:#181818;stroke-width:1;" x1="618.939" x2="659.939" y1="685.6543" y2="685.6543"/><polygon fill="#181818" points="628.939,681.6543,618.939,685.6543,628.939,689.6543,624.939,685.6543" style="stroke:#181818;stroke-width:1;"/><text fill="#000000" font-family="sans-serif" font-size="13" lengthAdjust="spacing" textLength="207.4287" x="624.939" y="667.9121">Encrich Camel Exchange headers</text></g><path d="M492.2915,707.6543 L554.4302,707.6543 L554.4302,714.9648 L544.4302,724.9648 L492.2915,724.9648 L492.2915,707.6543" fill="#EEEEEE" style="stroke:#000000;stroke-width:1.5;"/><rect fill="none" height="244.0605" style="stroke:#000000;stroke-width:1.5;" width="851.9048" x="492.2915" y="707.6543"/><text fill="#000000" font-family="sans-serif" font-size="13" font-weight="bold" lengthAdjust="spacing" textLength="17.1387" x="507.2915" y="721.2227">alt</text><text fill="#000000" font-family="sans-serif" font-size="11" font-weight="bold" lengthAdjust="spacing" textLength="137.2583" x="569.4302" y="720.2891">[File extension is ".xml"]</text><path d="M502.2915,731.9648 L599.4121,731.9648 L599.4121,739.2754 L589.4121,749.2754 L502.2915,749.2754 L502.2915,731.9648" fill="#EEEEEE" style="stroke:#000000;stroke-width:1.5;"/><rect fill="none" height="61.9316" style="stroke:#000000;stroke-width:1.5;" width="628.9702" x="502.2915" y="731.9648"/><text fill="#000000" font-family="sans-serif" font-size="13" font-weight="bold" lengthAdjust="spacing" textLength="52.1206" x="517.2915" y="745.5332">Success</text><g class="message" data-participant-1="App" data-participant-2="MQ"><polygon fill="#181818" points="1067.2148,781.8965,1077.2148,785.8965,1067.2148,789.8965,1071.2148,785.8965" style="stroke:#181818;stroke-width:1;"/><line style="stroke:#181818;stroke-width:1;" x1="617.939" x2="1073.2148" y1="785.8965" y2="785.8965"/><text fill="#000000" font-family="sans-serif" font-size="13" lengthAdjust="spacing" textLength="173.7227" x="624.939" y="765.8438">Send to the validator queue</text><text fill="#000000" font-family="sans-serif" font-size="13" font-weight="bold" lengthAdjust="spacing" textLength="43.0181" x="624.939" y="781.1543">Queue</text><text fill="#000000" font-family="sans-serif" font-size="13" lengthAdjust="spacing" textLength="100.7437" x="667.957" y="781.1543">: swift-validator</text></g><line style="stroke:#000000;stroke-width:1;stroke-dasharray:2,2;" x1="492.2915" x2="1344.1963" y1="801.8965" y2="801.8965"/><text fill="#000000" font-family="sans-serif" font-size="11" font-weight="bold" lengthAdjust="spacing" textLength="99.0806" x="497.2915" y="812.5313">[Other extension]</text><path d="M502.2915,822.8516 L699.2036,822.8516 L699.2036,830.1621 L689.2036,840.1621 L502.2915,840.1621 L502.2915,822.8516" fill="#EEEEEE" style="stroke:#000000;stroke-width:1.5;"/><rect fill="none" height="121.8633" style="stroke:#000000;stroke-width:1.5;" width="831.9048" x="502.2915" y="822.8516"/><text fill="#000000" font-family="sans-serif" font-size="13" font-weight="bold" lengthAdjust="spacing" textLength="151.9121" x="517.2915" y="836.4199">UnsupportedException</text><g class="message" data-participant-1="App" data-participant-2="PG"><polygon fill="#181818" points="983.1152,903.4043,993.1152,907.4043,983.1152,911.4043,987.1152,907.4043" style="stroke:#181818;stroke-width:1;"/><line style="stroke:#181818;stroke-width:1;" x1="617.939" x2="989.1152" y1="907.4043" y2="907.4043"/><text fill="#000000" font-family="sans-serif" font-size="13" lengthAdjust="spacing" textLength="86.9946" x="624.939" y="856.7305">Update status</text><text fill="#000000" font-family="sans-serif" font-size="13" font-weight="bold" lengthAdjust="spacing" textLength="62.0864" x="624.939" y="872.041">Database</text><text fill="#000000" font-family="sans-serif" font-size="13" lengthAdjust="spacing" textLength="54.6343" x="687.0254" y="872.041">: swiftdb</text><text fill="#000000" font-family="sans-serif" font-size="13" font-weight="bold" lengthAdjust="spacing" textLength="37.0703" x="624.939" y="887.3516">Table</text><text fill="#000000" font-family="sans-serif" font-size="13" lengthAdjust="spacing" textLength="56.8687" x="662.0093" y="887.3516">: process</text><text fill="#000000" font-family="sans-serif" font-size="13" font-weight="bold" lengthAdjust="spacing" textLength="41.4946" x="624.939" y="902.6621">Status</text><text fill="#000000" font-family="sans-serif" font-size="13" lengthAdjust="spacing" textLength="100.5405" x="666.4336" y="902.6621">: UNSUPPORTED</text></g><g class="message" data-participant-1="App" data-participant-2="Unsupported"><polygon fill="#181818" points="1215.729,932.7148,1225.729,936.7148,1215.729,940.7148,1219.729,936.7148" style="stroke:#181818;stroke-width:1;"/><line style="stroke:#181818;stroke-width:1;" x1="617.939" x2="1221.729" y1="936.7148" y2="936.7148"/><text fill="#000000" font-family="sans-serif" font-size="13" lengthAdjust="spacing" textLength="139.4326" x="624.939" y="931.9727">Move file to the folder</text></g><rect fill="#EEEEEE" height="3" style="stroke:#EEEEEE;stroke-width:1;" width="1512.4912" x="0" y="979.3701"/><line style="stroke:#000000;stroke-width:1;" x1="0" x2="1512.4912" y1="979.3701" y2="979.3701"/><line style="stroke:#000000;stroke-width:1;" x1="0" x2="1512.4912" y1="982.3701" y2="982.3701"/><rect fill="#EEEEEE" height="23.3105" style="stroke:#000000;stroke-width:2;" width="200.0244" x="656.2334" y="968.7148"/><text fill="#000000" font-family="sans-serif" font-size="13" font-weight="bold" lengthAdjust="spacing" textLength="181.7397" x="662.2334" y="985.2832">Validation: ValidationRoute</text><g class="message" data-participant-1="MQ" data-participant-2="App"><polygon fill="#181818" points="628.939,1034.6465,618.939,1038.6465,628.939,1042.6465,624.939,1038.6465" style="stroke:#181818;stroke-width:1;"/><ellipse cx="1078.7148" cy="1037.8965" fill="#000000" rx="4" ry="4" style="stroke:#181818;stroke-width:1.5;"/><line style="stroke:#181818;stroke-width:1;" x1="622.939" x2="1074.2148" y1="1038.6465" y2="1038.6465"/><text fill="#000000" font-family="sans-serif" font-size="13" lengthAdjust="spacing" textLength="106.3677" x="634.939" y="1018.5938">Receive message</text><text fill="#000000" font-family="sans-serif" font-size="13" font-weight="bold" lengthAdjust="spacing" textLength="43.0181" x="634.939" y="1033.9043">Queue</text><text fill="#000000" font-family="sans-serif" font-size="13" lengthAdjust="spacing" textLength="100.7437" x="677.957" y="1033.9043">: swift-validator</text></g><path d="M462.2915,1053.6465 L543.7842,1053.6465 L543.7842,1060.957 L533.7842,1070.957 L462.2915,1070.957 L462.2915,1053.6465" fill="#EEEEEE" style="stroke:#000000;stroke-width:1.5;"/><rect fill="none" height="650.9844" style="stroke:#000000;stroke-width:1.5;" width="1040.1997" x="462.2915" y="1053.6465"/><text fill="#000000" font-family="sans-serif" font-size="13" font-weight="bold" lengthAdjust="spacing" textLength="36.4927" x="477.2915" y="1067.2148">Parse</text><g class="message" data-participant-1="App" data-participant-2="App"><line style="stroke:#181818;stroke-width:1;" x1="617.939" x2="659.939" y1="1092.2676" y2="1092.2676"/><line style="stroke:#181818;stroke-width:1;" x1="659.939" x2="659.939" y1="1092.2676" y2="1105.2676"/><line style="stroke:#181818;stroke-width:1;" x1="618.939" x2="659.939" y1="1105.2676" y2="1105.2676"/><polygon fill="#181818" points="628.939,1101.2676,618.939,1105.2676,628.939,1109.2676,624.939,1105.2676" style="stroke:#181818;stroke-width:1;"/><text fill="#000000" font-family="sans-serif" font-size="13" lengthAdjust="spacing" textLength="129.3081" x="624.939" y="1087.5254">Validate well formed</text></g><path d="M472.2915,1120.2676 L534.4302,1120.2676 L534.4302,1127.5781 L524.4302,1137.5781 L472.2915,1137.5781 L472.2915,1120.2676" fill="#EEEEEE" style="stroke:#000000;stroke-width:1.5;"/><rect fill="none" height="577.3633" style="stroke:#000000;stroke-width:1.5;" width="1020.1997" x="472.2915" y="1120.2676"/><text fill="#000000" font-family="sans-serif" font-size="13" font-weight="bold" lengthAdjust="spacing" textLength="17.1387" x="487.2915" y="1133.8359">alt</text><text fill="#000000" font-family="sans-serif" font-size="11" font-weight="bold" lengthAdjust="spacing" textLength="76.3071" x="549.4302" y="1132.9023">[Well formed]</text><path d="M482.2915,1144.5781 L606.3706,1144.5781 L606.3706,1151.8887 L596.3706,1161.8887 L482.2915,1161.8887 L482.2915,1144.5781" fill="#EEEEEE" style="stroke:#000000;stroke-width:1.5;"/><rect fill="none" height="350.6133" style="stroke:#000000;stroke-width:1.5;" width="871.9048" x="482.2915" y="1144.5781"/><text fill="#000000" font-family="sans-serif" font-size="13" font-weight="bold" lengthAdjust="spacing" textLength="79.0791" x="497.2915" y="1158.1465">Validate MX</text><path d="M492.2915,1168.8887 L554.4302,1168.8887 L554.4302,1176.1992 L544.4302,1186.1992 L492.2915,1186.1992 L492.2915,1168.8887" fill="#EEEEEE" style="stroke:#000000;stroke-width:1.5;"/><rect fill="none" height="319.3027" style="stroke:#000000;stroke-width:1.5;" width="851.9048" x="492.2915" y="1168.8887"/><text fill="#000000" font-family="sans-serif" font-size="13" font-weight="bold" lengthAdjust="spacing" textLength="17.1387" x="507.2915" y="1182.457">alt</text><text fill="#000000" font-family="sans-serif" font-size="11" font-weight="bold" lengthAdjust="spacing" textLength="115.6772" x="569.4302" y="1181.5234">[Valid &amp; 008.001.08]</text><path d="M502.2915,1193.1992 L622.3208,1193.1992 L622.3208,1200.5098 L612.3208,1210.5098 L502.2915,1210.5098 L502.2915,1193.1992" fill="#EEEEEE" style="stroke:#000000;stroke-width:1.5;"/><rect fill="none" height="137.1738" style="stroke:#000000;stroke-width:1.5;" width="628.9702" x="502.2915" y="1193.1992"/><text fill="#000000" font-family="sans-serif" font-size="13" font-weight="bold" lengthAdjust="spacing" textLength="75.0293" x="517.2915" y="1206.7676">008.001.08</text><g class="message" data-participant-1="App" data-participant-2="PG"><polygon fill="#181818" points="983.1152,1273.752,993.1152,1277.752,983.1152,1281.752,987.1152,1277.752" style="stroke:#181818;stroke-width:1;"/><line style="stroke:#181818;stroke-width:1;" x1="617.939" x2="989.1152" y1="1277.752" y2="1277.752"/><text fill="#000000" font-family="sans-serif" font-size="13" lengthAdjust="spacing" textLength="86.9946" x="624.939" y="1227.0781">Update status</text><text fill="#000000" font-family="sans-serif" font-size="13" font-weight="bold" lengthAdjust="spacing" textLength="62.0864" x="624.939" y="1242.3887">Database</text><text fill="#000000" font-family="sans-serif" font-size="13" lengthAdjust="spacing" textLength="54.6343" x="687.0254" y="1242.3887">: swiftdb</text><text fill="#000000" font-family="sans-serif" font-size="13" font-weight="bold" lengthAdjust="spacing" textLength="37.0703" x="624.939" y="1257.6992">Table</text><text fill="#000000" font-family="sans-serif" font-size="13" lengthAdjust="spacing" textLength="56.8687" x="662.0093" y="1257.6992">: process</text><text fill="#000000" font-family="sans-serif" font-size="13" font-weight="bold" lengthAdjust="spacing" textLength="41.4946" x="624.939" y="1273.0098">Status</text><text fill="#000000" font-family="sans-serif" font-size="13" lengthAdjust="spacing" textLength="80.082" x="666.4336" y="1273.0098">: VALIDATED</text></g><g class="message" data-participant-1="App" data-participant-2="MQ"><polygon fill="#181818" points="1067.2148,1318.373,1077.2148,1322.373,1067.2148,1326.373,1071.2148,1322.373" style="stroke:#181818;stroke-width:1;"/><line style="stroke:#181818;stroke-width:1;" x1="617.939" x2="1073.2148" y1="1322.373" y2="1322.373"/><text fill="#000000" font-family="sans-serif" font-size="13" lengthAdjust="spacing" textLength="166.4355" x="624.939" y="1302.3203">Send to the specific queue</text><text fill="#000000" font-family="sans-serif" font-size="13" font-weight="bold" lengthAdjust="spacing" textLength="43.0181" x="624.939" y="1317.6309">Queue</text><text fill="#000000" font-family="sans-serif" font-size="13" lengthAdjust="spacing" textLength="152.5405" x="667.957" y="1317.6309">: swift-pacs.008.001.08</text></g><line style="stroke:#000000;stroke-width:1;stroke-dasharray:2,2;" x1="492.2915" x2="1344.1963" y1="1338.373" y2="1338.373"/><text fill="#000000" font-family="sans-serif" font-size="11" font-weight="bold" lengthAdjust="spacing" textLength="46.46" x="497.2915" y="1349.0078">[Invalid]</text><path d="M502.2915,1359.3281 L699.2036,1359.3281 L699.2036,1366.6387 L689.2036,1376.6387 L502.2915,1376.6387 L502.2915,1359.3281" fill="#EEEEEE" style="stroke:#000000;stroke-width:1.5;"/><rect fill="none" height="121.8633" style="stroke:#000000;stroke-width:1.5;" width="831.9048" x="502.2915" y="1359.3281"/><text fill="#000000" font-family="sans-serif" font-size="13" font-weight="bold" lengthAdjust="spacing" textLength="151.9121" x="517.2915" y="1372.8965">UnsupportedException</text><g class="message" data-participant-1="App" data-participant-2="PG"><polygon fill="#181818" points="983.1152,1439.8809,993.1152,1443.8809,983.1152,1447.8809,987.1152,1443.8809" style="stroke:#181818;stroke-width:1;"/><line style="stroke:#181818;stroke-width:1;" x1="617.939" x2="989.1152" y1="1443.8809" y2="1443.8809"/><text fill="#000000" font-family="sans-serif" font-size="13" lengthAdjust="spacing" textLength="86.9946" x="624.939" y="1393.207">Update status</text><text fill="#000000" font-family="sans-serif" font-size="13" font-weight="bold" lengthAdjust="spacing" textLength="62.0864" x="624.939" y="1408.5176">Database</text><text fill="#000000" font-family="sans-serif" font-size="13" lengthAdjust="spacing" textLength="54.6343" x="687.0254" y="1408.5176">: swiftdb</text><text fill="#000000" font-family="sans-serif" font-size="13" font-weight="bold" lengthAdjust="spacing" textLength="37.0703" x="624.939" y="1423.8281">Table</text><text fill="#000000" font-family="sans-serif" font-size="13" lengthAdjust="spacing" textLength="56.8687" x="662.0093" y="1423.8281">: process</text><text fill="#000000" font-family="sans-serif" font-size="13" font-weight="bold" lengthAdjust="spacing" textLength="41.4946" x="624.939" y="1439.1387">Status</text><text fill="#000000" font-family="sans-serif" font-size="13" lengthAdjust="spacing" textLength="100.5405" x="666.4336" y="1439.1387">: UNSUPPORTED</text></g><g class="message" data-participant-1="App" data-participant-2="Unsupported"><polygon fill="#181818" points="1215.729,1469.1914,1225.729,1473.1914,1215.729,1477.1914,1219.729,1473.1914" style="stroke:#181818;stroke-width:1;"/><line style="stroke:#181818;stroke-width:1;" x1="617.939" x2="1221.729" y1="1473.1914" y2="1473.1914"/><text fill="#000000" font-family="sans-serif" font-size="13" lengthAdjust="spacing" textLength="139.4326" x="624.939" y="1468.4492">Move file to the folder</text></g><line style="stroke:#000000;stroke-width:1;stroke-dasharray:2,2;" x1="472.2915" x2="1492.4912" y1="1503.1914" y2="1503.1914"/><text fill="#000000" font-family="sans-serif" font-size="11" font-weight="bold" lengthAdjust="spacing" textLength="69.1689" x="477.2915" y="1513.8262">[Malformed]</text><path d="M502.2915,1524.1465 L709.8804,1524.1465 L709.8804,1531.457 L699.8804,1541.457 L502.2915,1541.457 L502.2915,1524.1465" fill="#EEEEEE" style="stroke:#000000;stroke-width:1.5;"/><rect fill="none" height="166.4844" style="stroke:#000000;stroke-width:1.5;" width="980.1997" x="502.2915" y="1524.1465"/><text fill="#000000" font-family="sans-serif" font-size="13" font-weight="bold" lengthAdjust="spacing" textLength="162.5889" x="517.2915" y="1537.7148">MalformedXmlException</text><g class="message" data-participant-1="App" data-participant-2="PG"><polygon fill="#181818" points="983.1152,1604.6992,993.1152,1608.6992,983.1152,1612.6992,987.1152,1608.6992" style="stroke:#181818;stroke-width:1;"/><line style="stroke:#181818;stroke-width:1;" x1="617.939" x2="989.1152" y1="1608.6992" y2="1608.6992"/><text fill="#000000" font-family="sans-serif" font-size="13" lengthAdjust="spacing" textLength="86.9946" x="624.939" y="1558.0254">Update status</text><text fill="#000000" font-family="sans-serif" font-size="13" font-weight="bold" lengthAdjust="spacing" textLength="62.0864" x="624.939" y="1573.3359">Database</text><text fill="#000000" font-family="sans-serif" font-size="13" lengthAdjust="spacing" textLength="54.6343" x="687.0254" y="1573.3359">: swiftdb</text><text fill="#000000" font-family="sans-serif" font-size="13" font-weight="bold" lengthAdjust="spacing" textLength="37.0703" x="624.939" y="1588.6465">Table</text><text fill="#000000" font-family="sans-serif" font-size="13" lengthAdjust="spacing" textLength="56.8687" x="662.0093" y="1588.6465">: process</text><text fill="#000000" font-family="sans-serif" font-size="13" font-weight="bold" lengthAdjust="spacing" textLength="41.4946" x="624.939" y="1603.957">Status</text><text fill="#000000" font-family="sans-serif" font-size="13" lengthAdjust="spacing" textLength="51.6255" x="666.4336" y="1603.957">: FAILED</text></g><g class="message" data-participant-1="App" data-participant-2="MQ"><polygon fill="#181818" points="1067.2148,1649.3203,1077.2148,1653.3203,1067.2148,1657.3203,1071.2148,1653.3203" style="stroke:#181818;stroke-width:1;"/><line style="stroke:#181818;stroke-width:1;" x1="617.939" x2="1073.2148" y1="1653.3203" y2="1653.3203"/><text fill="#000000" font-family="sans-serif" font-size="13" lengthAdjust="spacing" textLength="169.3174" x="624.939" y="1633.2676">Send to Dead Letter Queue</text><text fill="#000000" font-family="sans-serif" font-size="13" font-weight="bold" lengthAdjust="spacing" textLength="43.0181" x="624.939" y="1648.5781">Queue</text><text fill="#000000" font-family="sans-serif" font-size="13" lengthAdjust="spacing" textLength="117.3872" x="667.957" y="1648.5781">: swift-dead-letter</text></g><g class="message" data-participant-1="App" data-participant-2="Error"><polygon fill="#181818" points="1391.3438,1678.6309,1401.3438,1682.6309,1391.3438,1686.6309,1395.3438,1682.6309" style="stroke:#181818;stroke-width:1;"/><line style="stroke:#181818;stroke-width:1;" x1="617.939" x2="1397.3438" y1="1682.6309" y2="1682.6309"/><text fill="#000000" font-family="sans-serif" font-size="13" lengthAdjust="spacing" textLength="139.4326" x="624.939" y="1677.8887">Move file to the folder</text></g><rect fill="#EEEEEE" height="3" style="stroke:#EEEEEE;stroke-width:1;" width="1512.4912" x="0" y="1732.2861"/><line style="stroke:#000000;stroke-width:1;" x1="0" x2="1512.4912" y1="1732.2861" y2="1732.2861"/><line style="stroke:#000000;stroke-width:1;" x1="0" x2="1512.4912" y1="1735.2861" y2="1735.2861"/><rect fill="#EEEEEE" height="23.3105" style="stroke:#000000;stroke-width:2;" width="306.5254" x="602.9829" y="1721.6309"/><text fill="#000000" font-family="sans-serif" font-size="13" font-weight="bold" lengthAdjust="spacing" textLength="288.2407" x="608.9829" y="1738.1992">Specific Workflow: PACS_XXX_XXX_XXRoute</text><g class="message" data-participant-1="MQ" data-participant-2="App"><polygon fill="#181818" points="628.939,1787.5625,618.939,1791.5625,628.939,1795.5625,624.939,1791.5625" style="stroke:#181818;stroke-width:1;"/><ellipse cx="1078.7148" cy="1790.8125" fill="#000000" rx="4" ry="4" style="stroke:#181818;stroke-width:1.5;"/><line style="stroke:#181818;stroke-width:1;" x1="622.939" x2="1074.2148" y1="1791.5625" y2="1791.5625"/><text fill="#000000" font-family="sans-serif" font-size="13" lengthAdjust="spacing" textLength="106.3677" x="634.939" y="1771.5098">Receive message</text><text fill="#000000" font-family="sans-serif" font-size="13" font-weight="bold" lengthAdjust="spacing" textLength="43.0181" x="634.939" y="1786.8203">Queue</text><text fill="#000000" font-family="sans-serif" font-size="13" lengthAdjust="spacing" textLength="151.8804" x="677.957" y="1786.8203">: swift-pacs.XXX.XXX.XX</text></g><path d="M334.7261,1806.5625 L530.248,1806.5625 L530.248,1813.873 L520.248,1823.873 L334.7261,1823.873 L334.7261,1806.5625" fill="#EEEEEE" style="stroke:#000000;stroke-width:1.5;"/><rect fill="none" height="164.1738" style="stroke:#000000;stroke-width:1.5;" width="702.4419" x="334.7261" y="1806.5625"/><text fill="#000000" font-family="sans-serif" font-size="13" font-weight="bold" lengthAdjust="spacing" textLength="150.522" x="349.7261" y="1820.1309">swift-pacs.008.001.08</text><g class="message" data-participant-1="App" data-participant-2="App"><line style="stroke:#181818;stroke-width:1;" x1="617.939" x2="659.939" y1="1845.1836" y2="1845.1836"/><line style="stroke:#181818;stroke-width:1;" x1="659.939" x2="659.939" y1="1845.1836" y2="1858.1836"/><line style="stroke:#181818;stroke-width:1;" x1="618.939" x2="659.939" y1="1858.1836" y2="1858.1836"/><polygon fill="#181818" points="628.939,1854.1836,618.939,1858.1836,628.939,1862.1836,624.939,1858.1836" style="stroke:#181818;stroke-width:1;"/><text fill="#000000" font-family="sans-serif" font-size="13" lengthAdjust="spacing" textLength="134.0308" x="624.939" y="1840.4414">Implement your logic</text></g><g class="message" data-participant-1="App" data-participant-2="PG"><polygon fill="#181818" points="983.1152,1929.4258,993.1152,1933.4258,983.1152,1937.4258,987.1152,1933.4258" style="stroke:#181818;stroke-width:1;"/><line style="stroke:#181818;stroke-width:1;" x1="617.939" x2="989.1152" y1="1933.4258" y2="1933.4258"/><text fill="#000000" font-family="sans-serif" font-size="13" lengthAdjust="spacing" textLength="86.9946" x="624.939" y="1882.752">Update status</text><text fill="#000000" font-family="sans-serif" font-size="13" font-weight="bold" lengthAdjust="spacing" textLength="62.0864" x="624.939" y="1898.0625">Database</text><text fill="#000000" font-family="sans-serif" font-size="13" lengthAdjust="spacing" textLength="54.6343" x="687.0254" y="1898.0625">: swiftdb</text><text fill="#000000" font-family="sans-serif" font-size="13" font-weight="bold" lengthAdjust="spacing" textLength="37.0703" x="624.939" y="1913.373">Table</text><text fill="#000000" font-family="sans-serif" font-size="13" lengthAdjust="spacing" textLength="56.8687" x="662.0093" y="1913.373">: process</text><text fill="#000000" font-family="sans-serif" font-size="13" font-weight="bold" lengthAdjust="spacing" textLength="41.4946" x="624.939" y="1928.6836">Status</text><text fill="#000000" font-family="sans-serif" font-size="13" lengthAdjust="spacing" textLength="84.6841" x="666.4336" y="1928.6836">: COMPLETED</text></g><g class="message" data-participant-1="App" data-participant-2="Success"><polygon fill="#181818" points="434.5088,1958.7363,424.5088,1962.7363,434.5088,1966.7363,430.5088,1962.7363" style="stroke:#181818;stroke-width:1;"/><line style="stroke:#181818;stroke-width:1;" x1="428.5088" x2="616.939" y1="1962.7363" y2="1962.7363"/><text fill="#000000" font-family="sans-serif" font-size="13" lengthAdjust="spacing" textLength="139.4326" x="440.5088" y="1957.9941">Move file to the folder</text></g><!--SRC=[jLLTRnex47tVN-62LDr62gBtgKBAbIYG20bK4jA6XojT6Uy05bxRjRs1_FkExVrYWKYjT5TQsFNCdF6UEJEsUourDJGZ2seSPrnJwHOqJRdSah_xYQtiNzMnNF_SJvArEfBEvEZ0I2h84imhPz0XtHdVxjo3WRU4uALhK38I7F2FK5iy9Y1JWZW5s5IUWRtik8C0n9GGm1nNqlfNxwrpH-wLIC5qoCc52OBrSk0oPmoilHIAWONrRFCnL1l_-SkNwVqpcHpPZiejTChGeTOXBAMEhgc54lK9Kcx9vGl3pinT0-b5e8MoRcl0NW5QFBJMkeUAlfyvvD0m3P6HLvW_Ne4wCtILyTzwcT7lqkPQA-CWRREAM0thvV29CSfShMImragvkoFtN00nm41xa45uVrAv0t9tboI5ocx_YHeOa348_5HJL2t3uj8ja0q69SdMg5oJ4Sr0HDWPjmuacB1JB6W3Pyce365H755_jsX7Dxy9tA64GmHkH8Vo3iZGxebGR4-Kh5t23nMkxXgGSHzIEJGOeEbR22kug-LK9PvvKBU36hMHF7ZCrMkq4gT8fuVzR9INaUsGJI0zH850eNKNNExZ3duZUzWi-vdpKhXOBL-nKAs5KQ7T_0RQjOhqnoud8yo7VuL_qkHmyJ0epPvY7Lt-bJStuw95Rcu6n1xungLhl_nCroAiDLoNZhhS-iNHqsJuF1aNzFjE28aVmZjsKVLrvTwduzYFq7HEsZm_WKGXHQOFtEqQuRWFsF0Z-IkN75jHukgdSu29P8QpNQ77ShwG7TO1338IABqe5y0vB2rs0y7YT7h7J7G2-Wd1pT7MI3r_H6tx_a9rU1szKi5nyc1BXg7XgNlq3nN5jvL7LUoaePvl26Bg7GMV3rmoaQTWypN1smzMszDv9ZuqfWD-S6pfqEr1F3zYfj3czNCj89nJggQV0JPwsU7lxhjG7Xvv5ixAK2J28e8Gs28cGrbVRDMNXaF9wWdb5THybPpCjHPGy2CVIR__fTVlV-xrloJjgNo2-uvVgss-wv3V1l7_SSVy6CwcuxfdhkHhAybgO7p3sLKXQSfixvrl2T8wMQXbDfMXd6SnlocrThgpr8sKSofQnRwUhF9TPU8qMnHtEHwN9KSlokmtGXrmwWn7o_zMgrLn_wdQ0xa8KTobvgypt-o1QQO5PFuWVLEvmKDWordolqXhz6s-c4qgQHNunQng7LxXc8j7Lk3l5m00]--></g></svg>