<svg xmlns="http://www.w3.org/2000/svg" xmlns:xlink="http://www.w3.org/1999/xlink" contentStyleType="text/css" height="2052px" preserveAspectRatio="none" style="width:1576px;height:2052px;background:#FFFFFF;" version="1.1" viewBox="0 0 1576 2052" width="1576px" zoomAndPan="magnify"><defs/><g><rect fill="#D3D3D3" height="2033.9766" style="stroke:#181818;stroke-width:0.5;" width="125.7612" x="11" y="6"/><text fill="#000000" font-family="sans-serif" font-size="13" font-weight="bold" lengthAdjust="spacing" textLength="119.7612" x="14" y="18.0669">External Service</text><rect fill="#FFFFFF" height="2033.9766" style="stroke:#181818;stroke-width:0.5;" width="1321.5332" x="211.5093" y="6"/><text fill="#000000" font-family="sans-serif" font-size="13" font-weight="bold" lengthAdjust="spacing" textLength="116.5874" x="813.9822" y="18.0669">Internal Service</text><rect fill="#FFFFFF" height="29.1328" style="stroke:#181818;stroke-width:1.0;" width="10" x="1036.7441" y="568.3594"/><rect fill="none" height="250.8672" style="stroke:#000000;stroke-width:1.5;" width="813.0645" x="205.5093" y="176.6953"/><rect fill="#90EE90" height="132.3359" style="stroke:#000000;stroke-width:1.5;" width="478.0303" x="530.5435" y="288.2266"/><rect fill="#FFC0CB" height="43.9375" style="stroke:none;stroke-width:1.0;" width="478.0303" x="530.5435" y="376.625"/><rect fill="#FFFFFF" height="205.0625" style="stroke:#000000;stroke-width:1.5;" width="554.3711" x="530.5435" y="484.6953"/><rect fill="#90EE90" height="242.1328" style="stroke:#000000;stroke-width:1.5;" width="877.6064" x="520.5435" y="703.7578"/><rect fill="#FFFFFF" height="61.3984" style="stroke:#000000;stroke-width:1.5;" width="651.0215" x="530.5435" y="727.8906"/><rect fill="#FFC0CB" height="149.6016" style="stroke:none;stroke-width:1.0;" width="877.6064" x="520.5435" y="796.2891"/><rect fill="#FFFFFF" height="120.7969" style="stroke:#000000;stroke-width:1.5;" width="857.6064" x="530.5435" y="818.0938"/><rect fill="none" height="646.0625" style="stroke:#000000;stroke-width:1.5;" width="1068.499" x="490.5435" y="1047.2891"/><rect fill="#90EE90" height="572.7969" style="stroke:#000000;stroke-width:1.5;" width="1048.499" x="500.5435" y="1113.5547"/><rect fill="#FFFFFF" height="347.7969" style="stroke:#000000;stroke-width:1.5;" width="897.6064" x="510.5435" y="1137.6875"/><rect fill="#90EE90" height="316.6641" style="stroke:#000000;stroke-width:1.5;" width="877.6064" x="520.5435" y="1161.8203"/><rect fill="#FFFFFF" height="135.9297" style="stroke:#000000;stroke-width:1.5;" width="651.0215" x="530.5435" y="1185.9531"/><rect fill="#FFC0CB" height="149.6016" style="stroke:none;stroke-width:1.0;" width="877.6064" x="520.5435" y="1328.8828"/><rect fill="#FFFFFF" height="120.7969" style="stroke:#000000;stroke-width:1.5;" width="857.6064" x="530.5435" y="1350.6875"/><rect fill="#FFC0CB" height="193.8672" style="stroke:none;stroke-width:1.0;" width="1048.499" x="500.5435" y="1492.4844"/><rect fill="#FFFFFF" height="165.0625" style="stroke:#000000;stroke-width:1.5;" width="1008.499" x="530.5435" y="1514.2891"/><rect fill="none" height="162.9297" style="stroke:#000000;stroke-width:1.5;" width="726.9404" x="357.9741" y="1794.75"/><line style="stroke:#181818;stroke-width:0.5;stroke-dasharray:5.0,5.0;" x1="73.6155" x2="73.6155" y1="87.4297" y2="1974.6797"/><line style="stroke:#181818;stroke-width:0.5;stroke-dasharray:5.0,5.0;" x1="286.5093" x2="286.5093" y1="87.4297" y2="1974.6797"/><line style="stroke:#181818;stroke-width:0.5;stroke-dasharray:5.0,5.0;" x1="448.9741" x2="448.9741" y1="87.4297" y2="1974.6797"/><line style="stroke:#181818;stroke-width:0.5;stroke-dasharray:5.0,5.0;" x1="650.5435" x2="650.5435" y1="87.4297" y2="1974.6797"/><line style="stroke:#181818;stroke-width:0.5;stroke-dasharray:5.0,5.0;" x1="976.1626" x2="976.1626" y1="87.4297" y2="1974.6797"/><line style="stroke:#181818;stroke-width:0.5;stroke-dasharray:5.0,5.0;" x1="1041.5737" x2="1041.5737" y1="87.4297" y2="1974.6797"/><line style="stroke:#181818;stroke-width:0.5;stroke-dasharray:5.0,5.0;" x1="1127.9146" x2="1127.9146" y1="87.4297" y2="1974.6797"/><line style="stroke:#181818;stroke-width:0.5;stroke-dasharray:5.0,5.0;" x1="1279.5649" x2="1279.5649" y1="87.4297" y2="1974.6797"/><line style="stroke:#181818;stroke-width:0.5;stroke-dasharray:5.0,5.0;" x1="1458.1499" x2="1458.1499" y1="87.4297" y2="1974.6797"/><rect fill="#E2E2F0" height="30.2969" rx="2.5" ry="2.5" style="stroke:#181818;stroke-width:0.5;" width="54.5303" x="46.6155" y="56.1328"/><text fill="#000000" font-family="sans-serif" font-size="14" lengthAdjust="spacing" textLength="40.5303" x="53.6155" y="76.1279">Client</text><rect fill="#E2E2F0" height="30.2969" rx="2.5" ry="2.5" style="stroke:#181818;stroke-width:0.5;" width="54.5303" x="46.6155" y="1973.6797"/><text fill="#000000" font-family="sans-serif" font-size="14" lengthAdjust="spacing" textLength="40.5303" x="53.6155" y="1993.6748">Client</text><rect fill="#E2E2F0" height="30.2969" style="stroke:#181818;stroke-width:0.5;" width="98.4648" x="239.5093" y="52.1328"/><rect fill="#E2E2F0" height="30.2969" style="stroke:#181818;stroke-width:0.5;" width="98.4648" x="235.5093" y="56.1328"/><text fill="#000000" font-family="sans-serif" font-size="14" lengthAdjust="spacing" textLength="84.4648" x="242.5093" y="76.1279">Input Folder</text><rect fill="#E2E2F0" height="30.2969" style="stroke:#181818;stroke-width:0.5;" width="98.4648" x="239.5093" y="1973.6797"/><rect fill="#E2E2F0" height="30.2969" style="stroke:#181818;stroke-width:0.5;" width="98.4648" x="235.5093" y="1977.6797"/><text fill="#000000" font-family="sans-serif" font-size="14" lengthAdjust="spacing" textLength="84.4648" x="242.5093" y="1997.6748">Input Folder</text><rect fill="#E2E2F0" height="30.2969" style="stroke:#181818;stroke-width:0.5;" width="118.5693" x="391.9741" y="52.1328"/><rect fill="#E2E2F0" height="30.2969" style="stroke:#181818;stroke-width:0.5;" width="118.5693" x="387.9741" y="56.1328"/><text fill="#000000" font-family="sans-serif" font-size="14" lengthAdjust="spacing" textLength="104.5693" x="394.9741" y="76.1279">Success Folder</text><rect fill="#E2E2F0" height="30.2969" style="stroke:#181818;stroke-width:0.5;" width="118.5693" x="391.9741" y="1973.6797"/><rect fill="#E2E2F0" height="30.2969" style="stroke:#181818;stroke-width:0.5;" width="118.5693" x="387.9741" y="1977.6797"/><text fill="#000000" font-family="sans-serif" font-size="14" lengthAdjust="spacing" textLength="104.5693" x="394.9741" y="1997.6748">Success Folder</text><rect fill="#E2E2F0" height="30.2969" rx="2.5" ry="2.5" style="stroke:#181818;stroke-width:0.5;" width="180.1953" x="560.5435" y="56.1328"/><text fill="#000000" font-family="sans-serif" font-size="14" lengthAdjust="spacing" textLength="166.1953" x="567.5435" y="76.1279">Spring SWIFT Exchange</text><rect fill="#E2E2F0" height="30.2969" rx="2.5" ry="2.5" style="stroke:#181818;stroke-width:0.5;" width="180.1953" x="560.5435" y="1973.6797"/><text fill="#000000" font-family="sans-serif" font-size="14" lengthAdjust="spacing" textLength="166.1953" x="567.5435" y="1993.6748">Spring SWIFT Exchange</text><text fill="#000000" font-family="sans-serif" font-size="14" lengthAdjust="spacing" textLength="38.4111" x="954.1626" y="84.1279">Redis</text><path d="M958.3682,35.1328 C958.3682,25.1328 976.3682,25.1328 976.3682,25.1328 C976.3682,25.1328 994.3682,25.1328 994.3682,35.1328 L994.3682,61.1328 C994.3682,71.1328 976.3682,71.1328 976.3682,71.1328 C976.3682,71.1328 958.3682,71.1328 958.3682,61.1328 L958.3682,35.1328 " fill="#FF0000" style="stroke:#181818;stroke-width:1.5;"/><path d="M958.3682,35.1328 C958.3682,45.1328 976.3682,45.1328 976.3682,45.1328 C976.3682,45.1328 994.3682,45.1328 994.3682,35.1328 " fill="none" style="stroke:#181818;stroke-width:1.5;"/><text fill="#000000" font-family="sans-serif" font-size="14" lengthAdjust="spacing" textLength="38.4111" x="954.1626" y="1986.6748">Redis</text><path d="M958.3682,1999.9766 C958.3682,1989.9766 976.3682,1989.9766 976.3682,1989.9766 C976.3682,1989.9766 994.3682,1989.9766 994.3682,1999.9766 L994.3682,2025.9766 C994.3682,2035.9766 976.3682,2035.9766 976.3682,2035.9766 C976.3682,2035.9766 958.3682,2035.9766 958.3682,2025.9766 L958.3682,1999.9766 " fill="#FF0000" style="stroke:#181818;stroke-width:1.5;"/><path d="M958.3682,1999.9766 C958.3682,2009.9766 976.3682,2009.9766 976.3682,2009.9766 C976.3682,2009.9766 994.3682,2009.9766 994.3682,1999.9766 " fill="none" style="stroke:#181818;stroke-width:1.5;"/><text fill="#000000" font-family="sans-serif" font-size="14" lengthAdjust="spacing" textLength="60.3408" x="1008.5737" y="84.1279">Postgres</text><path d="M1023.7441,35.1328 C1023.7441,25.1328 1041.7441,25.1328 1041.7441,25.1328 C1041.7441,25.1328 1059.7441,25.1328 1059.7441,35.1328 L1059.7441,61.1328 C1059.7441,71.1328 1041.7441,71.1328 1041.7441,71.1328 C1041.7441,71.1328 1023.7441,71.1328 1023.7441,61.1328 L1023.7441,35.1328 " fill="#FFFFFF" style="stroke:#181818;stroke-width:1.5;"/><path d="M1023.7441,35.1328 C1023.7441,45.1328 1041.7441,45.1328 1041.7441,45.1328 C1041.7441,45.1328 1059.7441,45.1328 1059.7441,35.1328 " fill="none" style="stroke:#181818;stroke-width:1.5;"/><text fill="#000000" font-family="sans-serif" font-size="14" lengthAdjust="spacing" textLength="60.3408" x="1008.5737" y="1986.6748">Postgres</text><path d="M1023.7441,1999.9766 C1023.7441,1989.9766 1041.7441,1989.9766 1041.7441,1989.9766 C1041.7441,1989.9766 1059.7441,1989.9766 1059.7441,1999.9766 L1059.7441,2025.9766 C1059.7441,2035.9766 1041.7441,2035.9766 1041.7441,2035.9766 C1041.7441,2035.9766 1023.7441,2035.9766 1023.7441,2025.9766 L1023.7441,1999.9766 " fill="#FFFFFF" style="stroke:#181818;stroke-width:1.5;"/><path d="M1023.7441,1999.9766 C1023.7441,2009.9766 1041.7441,2009.9766 1041.7441,2009.9766 C1041.7441,2009.9766 1059.7441,2009.9766 1059.7441,1999.9766 " fill="none" style="stroke:#181818;stroke-width:1.5;"/><path d="M1089.9146,61.1328 L1166.5649,61.1328 C1171.5649,61.1328 1171.5649,74.2813 1171.5649,74.2813 C1171.5649,74.2813 1171.5649,87.4297 1166.5649,87.4297 L1089.9146,87.4297 C1084.9146,87.4297 1084.9146,74.2813 1084.9146,74.2813 C1084.9146,74.2813 1084.9146,61.1328 1089.9146,61.1328 " fill="#FFA500" style="stroke:#181818;stroke-width:0.5;"/><path d="M1166.5649,61.1328 C1161.5649,61.1328 1161.5649,74.2813 1161.5649,74.2813 C1161.5649,87.4297 1166.5649,87.4297 1166.5649,87.4297 " fill="none" style="stroke:#181818;stroke-width:0.5;"/><text fill="#000000" font-family="sans-serif" font-size="14" lengthAdjust="spacing" textLength="66.6504" x="1089.9146" y="79.1279">ActiveMQ</text><path d="M1089.9146,1973.6797 L1166.5649,1973.6797 C1171.5649,1973.6797 1171.5649,1986.8281 1171.5649,1986.8281 C1171.5649,1986.8281 1171.5649,1999.9766 1166.5649,1999.9766 L1089.9146,1999.9766 C1084.9146,1999.9766 1084.9146,1986.8281 1084.9146,1986.8281 C1084.9146,1986.8281 1084.9146,1973.6797 1089.9146,1973.6797 " fill="#FFA500" style="stroke:#181818;stroke-width:0.5;"/><path d="M1166.5649,1973.6797 C1161.5649,1973.6797 1161.5649,1986.8281 1161.5649,1986.8281 C1161.5649,1999.9766 1166.5649,1999.9766 1166.5649,1999.9766 " fill="none" style="stroke:#181818;stroke-width:0.5;"/><text fill="#000000" font-family="sans-serif" font-size="14" lengthAdjust="spacing" textLength="66.6504" x="1089.9146" y="1991.6748">ActiveMQ</text><rect fill="#E2E2F0" height="30.2969" style="stroke:#181818;stroke-width:0.5;" width="152.585" x="1205.5649" y="52.1328"/><rect fill="#E2E2F0" height="30.2969" style="stroke:#181818;stroke-width:0.5;" width="152.585" x="1201.5649" y="56.1328"/><text fill="#000000" font-family="sans-serif" font-size="14" lengthAdjust="spacing" textLength="138.585" x="1208.5649" y="76.1279">Unsupported Folder</text><rect fill="#E2E2F0" height="30.2969" style="stroke:#181818;stroke-width:0.5;" width="152.585" x="1205.5649" y="1973.6797"/><rect fill="#E2E2F0" height="30.2969" style="stroke:#181818;stroke-width:0.5;" width="152.585" x="1201.5649" y="1977.6797"/><text fill="#000000" font-family="sans-serif" font-size="14" lengthAdjust="spacing" textLength="138.585" x="1208.5649" y="1997.6748">Unsupported Folder</text><rect fill="#E2E2F0" height="30.2969" style="stroke:#181818;stroke-width:0.5;" width="96.8926" x="1412.1499" y="52.1328"/><rect fill="#E2E2F0" height="30.2969" style="stroke:#181818;stroke-width:0.5;" width="96.8926" x="1408.1499" y="56.1328"/><text fill="#000000" font-family="sans-serif" font-size="14" lengthAdjust="spacing" textLength="82.8926" x="1415.1499" y="76.1279">Error Folder</text><rect fill="#E2E2F0" height="30.2969" style="stroke:#181818;stroke-width:0.5;" width="96.8926" x="1412.1499" y="1973.6797"/><rect fill="#E2E2F0" height="30.2969" style="stroke:#181818;stroke-width:0.5;" width="96.8926" x="1408.1499" y="1977.6797"/><text fill="#000000" font-family="sans-serif" font-size="14" lengthAdjust="spacing" textLength="82.8926" x="1415.1499" y="1997.6748">Error Folder</text><rect fill="#FFFFFF" height="29.1328" style="stroke:#181818;stroke-width:1.0;" width="10" x="1036.7441" y="568.3594"/><rect fill="#EEEEEE" height="3" style="stroke:#EEEEEE;stroke-width:1.0;" width="1569.0425" x="0" y="117.9961"/><line style="stroke:#000000;stroke-width:1.0;" x1="0" x2="1569.0425" y1="117.9961" y2="117.9961"/><line style="stroke:#000000;stroke-width:1.0;" x1="0" x2="1569.0425" y1="120.9961" y2="120.9961"/><rect fill="#EEEEEE" height="23.1328" style="stroke:#000000;stroke-width:2.0;" width="199.1357" x="684.9534" y="107.4297"/><text fill="#000000" font-family="sans-serif" font-size="13" font-weight="bold" lengthAdjust="spacing" textLength="180.6099" x="690.9534" y="123.4966">File reception: FileRoute</text><polygon fill="#181818" points="274.7417,157.6953,284.7417,161.6953,274.7417,165.6953,278.7417,161.6953" style="stroke:#181818;stroke-width:1.0;"/><line style="stroke:#181818;stroke-width:1.0;" x1="73.8806" x2="280.7417" y1="161.6953" y2="161.6953"/><text fill="#000000" font-family="sans-serif" font-size="13" lengthAdjust="spacing" textLength="177.2456" x="80.8806" y="156.6294">Deliver SWIFT message file</text><path d="M205.5093,176.6953 L391.2939,176.6953 L391.2939,183.8281 L381.2939,193.8281 L205.5093,193.8281 L205.5093,176.6953 " fill="#EEEEEE" style="stroke:#000000;stroke-width:1.5;"/><rect fill="none" height="250.8672" style="stroke:#000000;stroke-width:1.5;" width="813.0645" x="205.5093" y="176.6953"/><text fill="#000000" font-family="sans-serif" font-size="13" font-weight="bold" lengthAdjust="spacing" textLength="140.7847" x="220.5093" y="189.7622">Camel File Listener</text><polygon fill="#181818" points="297.7417,210.9609,287.7417,214.9609,297.7417,218.9609,293.7417,214.9609" style="stroke:#181818;stroke-width:1.0;"/><line style="stroke:#181818;stroke-width:1.0;" x1="291.7417" x2="649.6411" y1="214.9609" y2="214.9609"/><text fill="#000000" font-family="sans-serif" font-size="13" lengthAdjust="spacing" textLength="62.3086" x="303.7417" y="209.895">Scan files</text><polygon fill="#181818" points="638.6411,240.0938,648.6411,244.0938,638.6411,248.0938,642.6411,244.0938" style="stroke:#181818;stroke-width:1.0;"/><line style="stroke:#181818;stroke-width:1.0;stroke-dasharray:2.0,2.0;" x1="286.7417" x2="644.6411" y1="244.0938" y2="244.0938"/><text fill="#000000" font-family="sans-serif" font-size="13" lengthAdjust="spacing" textLength="82.5132" x="293.7417" y="239.0278">Find new file</text><polygon fill="#181818" points="964.3682,269.2266,974.3682,273.2266,964.3682,277.2266,968.3682,273.2266" style="stroke:#181818;stroke-width:1.0;"/><line style="stroke:#181818;stroke-width:1.0;" x1="650.6411" x2="970.3682" y1="273.2266" y2="273.2266"/><text fill="#000000" font-family="sans-serif" font-size="13" lengthAdjust="spacing" textLength="97.8237" x="657.6411" y="268.1606">Ask lock on file</text><path d="M530.5435,288.2266 L594.9863,288.2266 L594.9863,295.3594 L584.9863,305.3594 L530.5435,305.3594 L530.5435,288.2266 " fill="#EEEEEE" style="stroke:#000000;stroke-width:1.5;"/><rect fill="none" height="132.3359" style="stroke:#000000;stroke-width:1.5;" width="478.0303" x="530.5435" y="288.2266"/><text fill="#000000" font-family="sans-serif" font-size="13" font-weight="bold" lengthAdjust="spacing" textLength="19.4429" x="545.5435" y="301.2935">alt</text><text fill="#000000" font-family="sans-serif" font-size="11" font-weight="bold" lengthAdjust="spacing" textLength="151.7495" x="609.9863" y="300.437">[File not already locked]</text><polygon fill="#181818" points="661.6411,322.4922,651.6411,326.4922,661.6411,330.4922,657.6411,326.4922" style="stroke:#181818;stroke-width:1.0;"/><line style="stroke:#181818;stroke-width:1.0;stroke-dasharray:2.0,2.0;" x1="655.6411" x2="975.3682" y1="326.4922" y2="326.4922"/><text fill="#000000" font-family="sans-serif" font-size="13" lengthAdjust="spacing" textLength="79.2695" x="667.6411" y="321.4263">Lock the file</text><line style="stroke:#181818;stroke-width:1.0;" x1="650.6411" x2="692.6411" y1="355.625" y2="355.625"/><line style="stroke:#181818;stroke-width:1.0;" x1="692.6411" x2="692.6411" y1="355.625" y2="368.625"/><line style="stroke:#181818;stroke-width:1.0;" x1="651.6411" x2="692.6411" y1="368.625" y2="368.625"/><polygon fill="#181818" points="661.6411,364.625,651.6411,368.625,661.6411,372.625,657.6411,368.625" style="stroke:#181818;stroke-width:1.0;"/><text fill="#000000" font-family="sans-serif" font-size="13" lengthAdjust="spacing" textLength="206.6099" x="657.6411" y="350.5591">Move file to ".inprogress" folder</text><line style="stroke:#000000;stroke-width:1.0;stroke-dasharray:2.0,2.0;" x1="530.5435" x2="1008.5737" y1="377.625" y2="377.625"/><text fill="#000000" font-family="sans-serif" font-size="11" font-weight="bold" lengthAdjust="spacing" textLength="127.2734" x="535.5435" y="387.8354">[File already locked]</text><polygon fill="#181818" points="661.6411,408.5625,651.6411,412.5625,661.6411,416.5625,657.6411,412.5625" style="stroke:#181818;stroke-width:1.0;"/><line style="stroke:#181818;stroke-width:1.0;stroke-dasharray:2.0,2.0;" x1="655.6411" x2="975.3682" y1="412.5625" y2="412.5625"/><text fill="#000000" font-family="sans-serif" font-size="13" lengthAdjust="spacing" textLength="116.2383" x="667.6411" y="407.4966">Lock not acquired</text><rect fill="#EEEEEE" height="3" style="stroke:#EEEEEE;stroke-width:1.0;" width="1569.0425" x="0" y="455.1289"/><line style="stroke:#000000;stroke-width:1.0;" x1="0" x2="1569.0425" y1="455.1289" y2="455.1289"/><line style="stroke:#000000;stroke-width:1.0;" x1="0" x2="1569.0425" y1="458.1289" y2="458.1289"/><rect fill="#EEEEEE" height="23.1328" style="stroke:#000000;stroke-width:2.0;" width="182.8667" x="693.0879" y="444.5625"/><text fill="#000000" font-family="sans-serif" font-size="13" font-weight="bold" lengthAdjust="spacing" textLength="164.3408" x="699.0879" y="460.6294">Process file: FileRoute</text><path d="M530.5435,484.6953 L685.5103,484.6953 L685.5103,491.8281 L675.5103,501.8281 L530.5435,501.8281 L530.5435,484.6953 " fill="#EEEEEE" style="stroke:#000000;stroke-width:1.5;"/><rect fill="none" height="205.0625" style="stroke:#000000;stroke-width:1.5;" width="554.3711" x="530.5435" y="484.6953"/><text fill="#000000" font-family="sans-serif" font-size="13" font-weight="bold" lengthAdjust="spacing" textLength="109.9668" x="545.5435" y="497.7622">Create Process</text><polygon fill="#181818" points="1024.7441,564.3594,1034.7441,568.3594,1024.7441,572.3594,1028.7441,568.3594" style="stroke:#181818;stroke-width:1.0;"/><line style="stroke:#181818;stroke-width:1.0;" x1="650.6411" x2="1030.7441" y1="568.3594" y2="568.3594"/><text fill="#000000" font-family="sans-serif" font-size="13" lengthAdjust="spacing" textLength="128.8574" x="657.6411" y="517.895">Create new process</text><text fill="#000000" font-family="sans-serif" font-size="13" font-weight="bold" lengthAdjust="spacing" textLength="69.1831" x="657.6411" y="533.0278">Database</text><text fill="#000000" font-family="sans-serif" font-size="13" lengthAdjust="spacing" textLength="55.707" x="726.8242" y="533.0278">: swiftdb</text><text fill="#000000" font-family="sans-serif" font-size="13" font-weight="bold" lengthAdjust="spacing" textLength="40.2188" x="657.6411" y="548.1606">Table</text><text fill="#000000" font-family="sans-serif" font-size="13" lengthAdjust="spacing" textLength="58.7539" x="697.8599" y="548.1606">: process</text><text fill="#000000" font-family="sans-serif" font-size="13" font-weight="bold" lengthAdjust="spacing" textLength="47.5566" x="657.6411" y="563.2935">Status</text><text fill="#000000" font-family="sans-serif" font-size="13" lengthAdjust="spacing" textLength="69.894" x="705.1978" y="563.2935">: CREATED</text><polygon fill="#181818" points="661.6411,593.4922,651.6411,597.4922,661.6411,601.4922,657.6411,597.4922" style="stroke:#181818;stroke-width:1.0;"/><line style="stroke:#181818;stroke-width:1.0;stroke-dasharray:2.0,2.0;" x1="655.6411" x2="1040.7441" y1="597.4922" y2="597.4922"/><text fill="#000000" font-family="sans-serif" font-size="13" lengthAdjust="spacing" textLength="67.8057" x="667.6411" y="592.4263">Process ID</text><line style="stroke:#181818;stroke-width:1.0;" x1="650.6411" x2="692.6411" y1="626.625" y2="626.625"/><line style="stroke:#181818;stroke-width:1.0;" x1="692.6411" x2="692.6411" y1="626.625" y2="639.625"/><line style="stroke:#181818;stroke-width:1.0;" x1="651.6411" x2="692.6411" y1="639.625" y2="639.625"/><polygon fill="#181818" points="661.6411,635.625,651.6411,639.625,661.6411,643.625,657.6411,639.625" style="stroke:#181818;stroke-width:1.0;"/><text fill="#000000" font-family="sans-serif" font-size="13" lengthAdjust="spacing" textLength="311.7271" x="657.6411" y="621.5591">Rename file with Process ID prefix (uniqueness)</text><line style="stroke:#181818;stroke-width:1.0;" x1="650.6411" x2="692.6411" y1="668.7578" y2="668.7578"/><line style="stroke:#181818;stroke-width:1.0;" x1="692.6411" x2="692.6411" y1="668.7578" y2="681.7578"/><line style="stroke:#181818;stroke-width:1.0;" x1="651.6411" x2="692.6411" y1="681.7578" y2="681.7578"/><polygon fill="#181818" points="661.6411,677.7578,651.6411,681.7578,661.6411,685.7578,657.6411,681.7578" style="stroke:#181818;stroke-width:1.0;"/><text fill="#000000" font-family="sans-serif" font-size="13" lengthAdjust="spacing" textLength="217.9785" x="657.6411" y="663.6919">Encrich Camel Exchange headers</text><path d="M520.5435,703.7578 L584.9863,703.7578 L584.9863,710.8906 L574.9863,720.8906 L520.5435,720.8906 L520.5435,703.7578 " fill="#EEEEEE" style="stroke:#000000;stroke-width:1.5;"/><rect fill="none" height="242.1328" style="stroke:#000000;stroke-width:1.5;" width="877.6064" x="520.5435" y="703.7578"/><text fill="#000000" font-family="sans-serif" font-size="13" font-weight="bold" lengthAdjust="spacing" textLength="19.4429" x="535.5435" y="716.8247">alt</text><text fill="#000000" font-family="sans-serif" font-size="11" font-weight="bold" lengthAdjust="spacing" textLength="153.1567" x="599.9863" y="715.9683">[File extension is ".xml"]</text><path d="M530.5435,727.8906 L633.8657,727.8906 L633.8657,735.0234 L623.8657,745.0234 L530.5435,745.0234 L530.5435,727.8906 " fill="#EEEEEE" style="stroke:#000000;stroke-width:1.5;"/><rect fill="none" height="61.3984" style="stroke:#000000;stroke-width:1.5;" width="651.0215" x="530.5435" y="727.8906"/><text fill="#000000" font-family="sans-serif" font-size="13" font-weight="bold" lengthAdjust="spacing" textLength="58.3223" x="545.5435" y="740.9575">Success</text><polygon fill="#181818" points="1116.2397,777.2891,1126.2397,781.2891,1116.2397,785.2891,1120.2397,781.2891" style="stroke:#181818;stroke-width:1.0;"/><line style="stroke:#181818;stroke-width:1.0;" x1="650.6411" x2="1122.2397" y1="781.2891" y2="781.2891"/><text fill="#000000" font-family="sans-serif" font-size="13" lengthAdjust="spacing" textLength="181.8794" x="657.6411" y="761.0903">Send to the validator queue</text><text fill="#000000" font-family="sans-serif" font-size="13" font-weight="bold" lengthAdjust="spacing" textLength="47.1948" x="657.6411" y="776.2231">Queue</text><text fill="#000000" font-family="sans-serif" font-size="13" lengthAdjust="spacing" textLength="101.3911" x="704.8359" y="776.2231">: swift-validator</text><line style="stroke:#000000;stroke-width:1.0;stroke-dasharray:2.0,2.0;" x1="520.5435" x2="1398.1499" y1="797.2891" y2="797.2891"/><text fill="#000000" font-family="sans-serif" font-size="11" font-weight="bold" lengthAdjust="spacing" textLength="110.0215" x="525.5435" y="807.4995">[Other extension]</text><path d="M530.5435,818.0938 L742.5884,818.0938 L742.5884,825.2266 L732.5884,835.2266 L530.5435,835.2266 L530.5435,818.0938 " fill="#EEEEEE" style="stroke:#000000;stroke-width:1.5;"/><rect fill="none" height="120.7969" style="stroke:#000000;stroke-width:1.5;" width="857.6064" x="530.5435" y="818.0938"/><text fill="#000000" font-family="sans-serif" font-size="13" font-weight="bold" lengthAdjust="spacing" textLength="167.0449" x="545.5435" y="831.1606">UnsupportedException</text><polygon fill="#181818" points="1029.7441,897.7578,1039.7441,901.7578,1029.7441,905.7578,1033.7441,901.7578" style="stroke:#181818;stroke-width:1.0;"/><line style="stroke:#181818;stroke-width:1.0;" x1="650.6411" x2="1035.7441" y1="901.7578" y2="901.7578"/><text fill="#000000" font-family="sans-serif" font-size="13" lengthAdjust="spacing" textLength="91.1587" x="657.6411" y="851.2935">Update status</text><text fill="#000000" font-family="sans-serif" font-size="13" font-weight="bold" lengthAdjust="spacing" textLength="69.1831" x="657.6411" y="866.4263">Database</text><text fill="#000000" font-family="sans-serif" font-size="13" lengthAdjust="spacing" textLength="55.707" x="726.8242" y="866.4263">: swiftdb</text><text fill="#000000" font-family="sans-serif" font-size="13" font-weight="bold" lengthAdjust="spacing" textLength="40.2188" x="657.6411" y="881.5591">Table</text><text fill="#000000" font-family="sans-serif" font-size="13" lengthAdjust="spacing" textLength="58.7539" x="697.8599" y="881.5591">: process</text><text fill="#000000" font-family="sans-serif" font-size="13" font-weight="bold" lengthAdjust="spacing" textLength="47.5566" x="657.6411" y="896.6919">Status</text><text fill="#000000" font-family="sans-serif" font-size="13" lengthAdjust="spacing" textLength="106.6279" x="705.1978" y="896.6919">: UNSUPPORTED</text><polygon fill="#181818" points="1267.8574,926.8906,1277.8574,930.8906,1267.8574,934.8906,1271.8574,930.8906" style="stroke:#181818;stroke-width:1.0;"/><line style="stroke:#181818;stroke-width:1.0;" x1="650.6411" x2="1273.8574" y1="930.8906" y2="930.8906"/><text fill="#000000" font-family="sans-serif" font-size="13" lengthAdjust="spacing" textLength="143.311" x="657.6411" y="925.8247">Move file to the folder</text><rect fill="#EEEEEE" height="3" style="stroke:#EEEEEE;stroke-width:1.0;" width="1569.0425" x="0" y="973.457"/><line style="stroke:#000000;stroke-width:1.0;" x1="0" x2="1569.0425" y1="973.457" y2="973.457"/><line style="stroke:#000000;stroke-width:1.0;" x1="0" x2="1569.0425" y1="976.457" y2="976.457"/><rect fill="#EEEEEE" height="23.1328" style="stroke:#000000;stroke-width:2.0;" width="220.8384" x="674.1021" y="962.8906"/><text fill="#000000" font-family="sans-serif" font-size="13" font-weight="bold" lengthAdjust="spacing" textLength="202.3125" x="680.1021" y="978.9575">Validation: ValidationRoute</text><polygon fill="#181818" points="661.6411,1028.2891,651.6411,1032.2891,661.6411,1036.2891,657.6411,1032.2891" style="stroke:#181818;stroke-width:1.0;"/><ellipse cx="1127.7397" cy="1031.5391" fill="#000000" rx="4" ry="4" style="stroke:#181818;stroke-width:1.5;"/><line style="stroke:#181818;stroke-width:1.0;" x1="655.6411" x2="1123.2397" y1="1032.2891" y2="1032.2891"/><text fill="#000000" font-family="sans-serif" font-size="13" lengthAdjust="spacing" textLength="114.0356" x="667.6411" y="1012.0903">Receive message</text><text fill="#000000" font-family="sans-serif" font-size="13" font-weight="bold" lengthAdjust="spacing" textLength="47.1948" x="667.6411" y="1027.2231">Queue</text><text fill="#000000" font-family="sans-serif" font-size="13" lengthAdjust="spacing" textLength="101.3911" x="714.8359" y="1027.2231">: swift-validator</text><path d="M490.5435,1047.2891 L576.8096,1047.2891 L576.8096,1054.4219 L566.8096,1064.4219 L490.5435,1064.4219 L490.5435,1047.2891 " fill="#EEEEEE" style="stroke:#000000;stroke-width:1.5;"/><rect fill="none" height="646.0625" style="stroke:#000000;stroke-width:1.5;" width="1068.499" x="490.5435" y="1047.2891"/><text fill="#000000" font-family="sans-serif" font-size="13" font-weight="bold" lengthAdjust="spacing" textLength="41.2661" x="505.5435" y="1060.356">Parse</text><line style="stroke:#181818;stroke-width:1.0;" x1="650.6411" x2="692.6411" y1="1085.5547" y2="1085.5547"/><line style="stroke:#181818;stroke-width:1.0;" x1="692.6411" x2="692.6411" y1="1085.5547" y2="1098.5547"/><line style="stroke:#181818;stroke-width:1.0;" x1="651.6411" x2="692.6411" y1="1098.5547" y2="1098.5547"/><polygon fill="#181818" points="661.6411,1094.5547,651.6411,1098.5547,661.6411,1102.5547,657.6411,1098.5547" style="stroke:#181818;stroke-width:1.0;"/><text fill="#000000" font-family="sans-serif" font-size="13" lengthAdjust="spacing" textLength="134.3037" x="657.6411" y="1080.4888">Validate well formed</text><path d="M500.5435,1113.5547 L564.9863,1113.5547 L564.9863,1120.6875 L554.9863,1130.6875 L500.5435,1130.6875 L500.5435,1113.5547 " fill="#EEEEEE" style="stroke:#000000;stroke-width:1.5;"/><rect fill="none" height="572.7969" style="stroke:#000000;stroke-width:1.5;" width="1048.499" x="500.5435" y="1113.5547"/><text fill="#000000" font-family="sans-serif" font-size="13" font-weight="bold" lengthAdjust="spacing" textLength="19.4429" x="515.5435" y="1126.6216">alt</text><text fill="#000000" font-family="sans-serif" font-size="11" font-weight="bold" lengthAdjust="spacing" textLength="85.583" x="579.9863" y="1125.7651">[Well formed]</text><path d="M510.5435,1137.6875 L643.8838,1137.6875 L643.8838,1144.8203 L633.8838,1154.8203 L510.5435,1154.8203 L510.5435,1137.6875 " fill="#EEEEEE" style="stroke:#000000;stroke-width:1.5;"/><rect fill="none" height="347.7969" style="stroke:#000000;stroke-width:1.5;" width="897.6064" x="510.5435" y="1137.6875"/><text fill="#000000" font-family="sans-serif" font-size="13" font-weight="bold" lengthAdjust="spacing" textLength="88.3403" x="525.5435" y="1150.7544">Validate MX</text><path d="M520.5435,1161.8203 L584.9863,1161.8203 L584.9863,1168.9531 L574.9863,1178.9531 L520.5435,1178.9531 L520.5435,1161.8203 " fill="#EEEEEE" style="stroke:#000000;stroke-width:1.5;"/><rect fill="none" height="316.6641" style="stroke:#000000;stroke-width:1.5;" width="877.6064" x="520.5435" y="1161.8203"/><text fill="#000000" font-family="sans-serif" font-size="13" font-weight="bold" lengthAdjust="spacing" textLength="19.4429" x="535.5435" y="1174.8872">alt</text><text fill="#000000" font-family="sans-serif" font-size="11" font-weight="bold" lengthAdjust="spacing" textLength="128.2456" x="599.9863" y="1174.0308">[Valid &amp; 008.001.08]</text><path d="M530.5435,1185.9531 L657.7837,1185.9531 L657.7837,1193.0859 L647.7837,1203.0859 L530.5435,1203.0859 L530.5435,1185.9531 " fill="#EEEEEE" style="stroke:#000000;stroke-width:1.5;"/><rect fill="none" height="135.9297" style="stroke:#000000;stroke-width:1.5;" width="651.0215" x="530.5435" y="1185.9531"/><text fill="#000000" font-family="sans-serif" font-size="13" font-weight="bold" lengthAdjust="spacing" textLength="82.2402" x="545.5435" y="1199.02">008.001.08</text><polygon fill="#181818" points="1029.7441,1265.6172,1039.7441,1269.6172,1029.7441,1273.6172,1033.7441,1269.6172" style="stroke:#181818;stroke-width:1.0;"/><line style="stroke:#181818;stroke-width:1.0;" x1="650.6411" x2="1035.7441" y1="1269.6172" y2="1269.6172"/><text fill="#000000" font-family="sans-serif" font-size="13" lengthAdjust="spacing" textLength="91.1587" x="657.6411" y="1219.1528">Update status</text><text fill="#000000" font-family="sans-serif" font-size="13" font-weight="bold" lengthAdjust="spacing" textLength="69.1831" x="657.6411" y="1234.2856">Database</text><text fill="#000000" font-family="sans-serif" font-size="13" lengthAdjust="spacing" textLength="55.707" x="726.8242" y="1234.2856">: swiftdb</text><text fill="#000000" font-family="sans-serif" font-size="13" font-weight="bold" lengthAdjust="spacing" textLength="40.2188" x="657.6411" y="1249.4185">Table</text><text fill="#000000" font-family="sans-serif" font-size="13" lengthAdjust="spacing" textLength="58.7539" x="697.8599" y="1249.4185">: process</text><text fill="#000000" font-family="sans-serif" font-size="13" font-weight="bold" lengthAdjust="spacing" textLength="47.5566" x="657.6411" y="1264.5513">Status</text><text fill="#000000" font-family="sans-serif" font-size="13" lengthAdjust="spacing" textLength="82.4434" x="705.1978" y="1264.5513">: VALIDATED</text><polygon fill="#181818" points="1116.2397,1309.8828,1126.2397,1313.8828,1116.2397,1317.8828,1120.2397,1313.8828" style="stroke:#181818;stroke-width:1.0;"/><line style="stroke:#181818;stroke-width:1.0;" x1="650.6411" x2="1122.2397" y1="1313.8828" y2="1313.8828"/><text fill="#000000" font-family="sans-serif" font-size="13" lengthAdjust="spacing" textLength="173.5005" x="657.6411" y="1293.6841">Send to the specific queue</text><text fill="#000000" font-family="sans-serif" font-size="13" font-weight="bold" lengthAdjust="spacing" textLength="47.1948" x="657.6411" y="1308.8169">Queue</text><text fill="#000000" font-family="sans-serif" font-size="13" lengthAdjust="spacing" textLength="152.5977" x="704.8359" y="1308.8169">: swift-pacs.008.001.08</text><line style="stroke:#000000;stroke-width:1.0;stroke-dasharray:2.0,2.0;" x1="520.5435" x2="1398.1499" y1="1329.8828" y2="1329.8828"/><text fill="#000000" font-family="sans-serif" font-size="11" font-weight="bold" lengthAdjust="spacing" textLength="51.9868" x="525.5435" y="1340.0933">[Invalid]</text><path d="M530.5435,1350.6875 L742.5884,1350.6875 L742.5884,1357.8203 L732.5884,1367.8203 L530.5435,1367.8203 L530.5435,1350.6875 " fill="#EEEEEE" style="stroke:#000000;stroke-width:1.5;"/><rect fill="none" height="120.7969" style="stroke:#000000;stroke-width:1.5;" width="857.6064" x="530.5435" y="1350.6875"/><text fill="#000000" font-family="sans-serif" font-size="13" font-weight="bold" lengthAdjust="spacing" textLength="167.0449" x="545.5435" y="1363.7544">UnsupportedException</text><polygon fill="#181818" points="1029.7441,1430.3516,1039.7441,1434.3516,1029.7441,1438.3516,1033.7441,1434.3516" style="stroke:#181818;stroke-width:1.0;"/><line style="stroke:#181818;stroke-width:1.0;" x1="650.6411" x2="1035.7441" y1="1434.3516" y2="1434.3516"/><text fill="#000000" font-family="sans-serif" font-size="13" lengthAdjust="spacing" textLength="91.1587" x="657.6411" y="1383.8872">Update status</text><text fill="#000000" font-family="sans-serif" font-size="13" font-weight="bold" lengthAdjust="spacing" textLength="69.1831" x="657.6411" y="1399.02">Database</text><text fill="#000000" font-family="sans-serif" font-size="13" lengthAdjust="spacing" textLength="55.707" x="726.8242" y="1399.02">: swiftdb</text><text fill="#000000" font-family="sans-serif" font-size="13" font-weight="bold" lengthAdjust="spacing" textLength="40.2188" x="657.6411" y="1414.1528">Table</text><text fill="#000000" font-family="sans-serif" font-size="13" lengthAdjust="spacing" textLength="58.7539" x="697.8599" y="1414.1528">: process</text><text fill="#000000" font-family="sans-serif" font-size="13" font-weight="bold" lengthAdjust="spacing" textLength="47.5566" x="657.6411" y="1429.2856">Status</text><text fill="#000000" font-family="sans-serif" font-size="13" lengthAdjust="spacing" textLength="106.6279" x="705.1978" y="1429.2856">: UNSUPPORTED</text><polygon fill="#181818" points="1267.8574,1459.4844,1277.8574,1463.4844,1267.8574,1467.4844,1271.8574,1463.4844" style="stroke:#181818;stroke-width:1.0;"/><line style="stroke:#181818;stroke-width:1.0;" x1="650.6411" x2="1273.8574" y1="1463.4844" y2="1463.4844"/><text fill="#000000" font-family="sans-serif" font-size="13" lengthAdjust="spacing" textLength="143.311" x="657.6411" y="1458.4185">Move file to the folder</text><line style="stroke:#000000;stroke-width:1.0;stroke-dasharray:2.0,2.0;" x1="500.5435" x2="1549.0425" y1="1493.4844" y2="1493.4844"/><text fill="#000000" font-family="sans-serif" font-size="11" font-weight="bold" lengthAdjust="spacing" textLength="76.7583" x="505.5435" y="1503.6948">[Malformed]</text><path d="M530.5435,1514.2891 L754.3506,1514.2891 L754.3506,1521.4219 L744.3506,1531.4219 L530.5435,1531.4219 L530.5435,1514.2891 " fill="#EEEEEE" style="stroke:#000000;stroke-width:1.5;"/><rect fill="none" height="165.0625" style="stroke:#000000;stroke-width:1.5;" width="1008.499" x="530.5435" y="1514.2891"/><text fill="#000000" font-family="sans-serif" font-size="13" font-weight="bold" lengthAdjust="spacing" textLength="178.8071" x="545.5435" y="1527.356">MalformedXmlException</text><polygon fill="#181818" points="1029.7441,1593.9531,1039.7441,1597.9531,1029.7441,1601.9531,1033.7441,1597.9531" style="stroke:#181818;stroke-width:1.0;"/><line style="stroke:#181818;stroke-width:1.0;" x1="650.6411" x2="1035.7441" y1="1597.9531" y2="1597.9531"/><text fill="#000000" font-family="sans-serif" font-size="13" lengthAdjust="spacing" textLength="91.1587" x="657.6411" y="1547.4888">Update status</text><text fill="#000000" font-family="sans-serif" font-size="13" font-weight="bold" lengthAdjust="spacing" textLength="69.1831" x="657.6411" y="1562.6216">Database</text><text fill="#000000" font-family="sans-serif" font-size="13" lengthAdjust="spacing" textLength="55.707" x="726.8242" y="1562.6216">: swiftdb</text><text fill="#000000" font-family="sans-serif" font-size="13" font-weight="bold" lengthAdjust="spacing" textLength="40.2188" x="657.6411" y="1577.7544">Table</text><text fill="#000000" font-family="sans-serif" font-size="13" lengthAdjust="spacing" textLength="58.7539" x="697.8599" y="1577.7544">: process</text><text fill="#000000" font-family="sans-serif" font-size="13" font-weight="bold" lengthAdjust="spacing" textLength="47.5566" x="657.6411" y="1592.8872">Status</text><text fill="#000000" font-family="sans-serif" font-size="13" lengthAdjust="spacing" textLength="54.1836" x="705.1978" y="1592.8872">: FAILED</text><polygon fill="#181818" points="1116.2397,1638.2188,1126.2397,1642.2188,1116.2397,1646.2188,1120.2397,1642.2188" style="stroke:#181818;stroke-width:1.0;"/><line style="stroke:#181818;stroke-width:1.0;" x1="650.6411" x2="1122.2397" y1="1642.2188" y2="1642.2188"/><text fill="#000000" font-family="sans-serif" font-size="13" lengthAdjust="spacing" textLength="178.0327" x="657.6411" y="1622.02">Send to Dead Letter Queue</text><text fill="#000000" font-family="sans-serif" font-size="13" font-weight="bold" lengthAdjust="spacing" textLength="47.1948" x="657.6411" y="1637.1528">Queue</text><text fill="#000000" font-family="sans-serif" font-size="13" lengthAdjust="spacing" textLength="116.2002" x="704.8359" y="1637.1528">: swift-dead-letter</text><polygon fill="#181818" points="1446.5962,1667.3516,1456.5962,1671.3516,1446.5962,1675.3516,1450.5962,1671.3516" style="stroke:#181818;stroke-width:1.0;"/><line style="stroke:#181818;stroke-width:1.0;" x1="650.6411" x2="1452.5962" y1="1671.3516" y2="1671.3516"/><text fill="#000000" font-family="sans-serif" font-size="13" lengthAdjust="spacing" textLength="143.311" x="657.6411" y="1666.2856">Move file to the folder</text><rect fill="#EEEEEE" height="3" style="stroke:#EEEEEE;stroke-width:1.0;" width="1569.0425" x="0" y="1720.918"/><line style="stroke:#000000;stroke-width:1.0;" x1="0" x2="1569.0425" y1="1720.918" y2="1720.918"/><line style="stroke:#000000;stroke-width:1.0;" x1="0" x2="1569.0425" y1="1723.918" y2="1723.918"/><rect fill="#EEEEEE" height="23.1328" style="stroke:#000000;stroke-width:2.0;" width="341.0249" x="614.0088" y="1710.3516"/><text fill="#000000" font-family="sans-serif" font-size="13" font-weight="bold" lengthAdjust="spacing" textLength="322.499" x="620.0088" y="1726.4185">Specific Workflow: PACS_XXX_XXX_XXRoute</text><polygon fill="#181818" points="661.6411,1775.75,651.6411,1779.75,661.6411,1783.75,657.6411,1779.75" style="stroke:#181818;stroke-width:1.0;"/><ellipse cx="1127.7397" cy="1779" fill="#000000" rx="4" ry="4" style="stroke:#181818;stroke-width:1.5;"/><line style="stroke:#181818;stroke-width:1.0;" x1="655.6411" x2="1123.2397" y1="1779.75" y2="1779.75"/><text fill="#000000" font-family="sans-serif" font-size="13" lengthAdjust="spacing" textLength="114.0356" x="667.6411" y="1759.5513">Receive message</text><text fill="#000000" font-family="sans-serif" font-size="13" font-weight="bold" lengthAdjust="spacing" textLength="47.1948" x="667.6411" y="1774.6841">Queue</text><text fill="#000000" font-family="sans-serif" font-size="13" lengthAdjust="spacing" textLength="157.6758" x="714.8359" y="1774.6841">: swift-pacs.XXX.XXX.XX</text><path d="M357.9741,1794.75 L565.144,1794.75 L565.144,1801.8828 L555.144,1811.8828 L357.9741,1811.8828 L357.9741,1794.75 " fill="#EEEEEE" style="stroke:#000000;stroke-width:1.5;"/><rect fill="none" height="162.9297" style="stroke:#000000;stroke-width:1.5;" width="726.9404" x="357.9741" y="1794.75"/><text fill="#000000" font-family="sans-serif" font-size="13" font-weight="bold" lengthAdjust="spacing" textLength="162.1699" x="372.9741" y="1807.8169">swift-pacs.008.001.08</text><line style="stroke:#181818;stroke-width:1.0;" x1="650.6411" x2="692.6411" y1="1833.0156" y2="1833.0156"/><line style="stroke:#181818;stroke-width:1.0;" x1="692.6411" x2="692.6411" y1="1833.0156" y2="1846.0156"/><line style="stroke:#181818;stroke-width:1.0;" x1="651.6411" x2="692.6411" y1="1846.0156" y2="1846.0156"/><polygon fill="#181818" points="661.6411,1842.0156,651.6411,1846.0156,661.6411,1850.0156,657.6411,1846.0156" style="stroke:#181818;stroke-width:1.0;"/><text fill="#000000" font-family="sans-serif" font-size="13" lengthAdjust="spacing" textLength="138.4297" x="657.6411" y="1827.9497">Implement your logic</text><polygon fill="#181818" points="1029.7441,1916.5469,1039.7441,1920.5469,1029.7441,1924.5469,1033.7441,1920.5469" style="stroke:#181818;stroke-width:1.0;"/><line style="stroke:#181818;stroke-width:1.0;" x1="650.6411" x2="1035.7441" y1="1920.5469" y2="1920.5469"/><text fill="#000000" font-family="sans-serif" font-size="13" lengthAdjust="spacing" textLength="91.1587" x="657.6411" y="1870.0825">Update status</text><text fill="#000000" font-family="sans-serif" font-size="13" font-weight="bold" lengthAdjust="spacing" textLength="69.1831" x="657.6411" y="1885.2153">Database</text><text fill="#000000" font-family="sans-serif" font-size="13" lengthAdjust="spacing" textLength="55.707" x="726.8242" y="1885.2153">: swiftdb</text><text fill="#000000" font-family="sans-serif" font-size="13" font-weight="bold" lengthAdjust="spacing" textLength="40.2188" x="657.6411" y="1900.3481">Table</text><text fill="#000000" font-family="sans-serif" font-size="13" lengthAdjust="spacing" textLength="58.7539" x="697.8599" y="1900.3481">: process</text><text fill="#000000" font-family="sans-serif" font-size="13" font-weight="bold" lengthAdjust="spacing" textLength="47.5566" x="657.6411" y="1915.481">Status</text><text fill="#000000" font-family="sans-serif" font-size="13" lengthAdjust="spacing" textLength="88.499" x="705.1978" y="1915.481">: COMPLETED</text><polygon fill="#181818" points="460.2588,1945.6797,450.2588,1949.6797,460.2588,1953.6797,456.2588,1949.6797" style="stroke:#181818;stroke-width:1.0;"/><line style="stroke:#181818;stroke-width:1.0;" x1="454.2588" x2="649.6411" y1="1949.6797" y2="1949.6797"/><text fill="#000000" font-family="sans-serif" font-size="13" lengthAdjust="spacing" textLength="143.311" x="466.2588" y="1944.6138">Move file to the folder</text><!--SRC=[jLLTRnex47tVN-62LDr62gBtgKBAbIYG20bK4jA6XojT6Uy05bxRjRs1_FkExVrYWKYjT5TQsFNCdF6UEJEsUourDJGZ2seSPrnJwHOqJRdSah_xYQtiNzMnNF_SJvArEfBEvEZ0I2h84imhPz0XtHdVxjo3WRU4uALhK38I7F2FK5iy9Y1JWZW5s5IUWRtik8C0n9GGm1nNqlfNxwrpH-wLIC5qoCc52OBrSk0oPmoilHIAWONrRFCnL1l_-SkNwVqpcHpPZiejTChGeTOXBAMEhgc54lK9Kcx9vGl3pinT0-b5e8MoRcl0NW5QFBJMkeUAlfyvvD0m3P6HLvW_Ne4wCtILyTzwcT7lqkPQA-CWRREAM0thvV29CSfShMImragvkoFtN00nm41xa45uVrAv0t9tboI5ocx_YHeOa348_5HJL2t3uj8ja0q69SdMg5oJ4Sr0HDWPjmuacB1JB6W3Pyce365H755_jsX7Dxy9tA64GmHkH8Vo3iZGxebGR4-Kh5t23nMkxXgGSHzIEJGOeEbR22kug-LK9PvvKBU36hMHF7ZCrMkq4gT8fuVzR9INaUsGJI0zH850eNKNNExZ3duZUzWi-vdpKhXOBL-nKAs5KQ7T_0RQjOhqnoud8yo7VuL_qkHmyJ0epPvY7Lt-bJStuw95Rcu6n1xungLhl_nCroAiDLoNZhhS-iNHqsJuF1aNzFjE28aVmZjsKVLrvTwduzYFq7HEsZm_WKGXHQOFtEqQuRWFsF0Z-IkN75jHukgdSu29P8QpNQ77ShwG7TO1338IABqe5y0vB2rs0y7YT7h7J7G2-Wd1pT7MI3r_H6tx_a9rU1szKi5nyc1BXg7XgNlq3nN5jvL7LUoaePvl26Bg7GMV3rmoaQTWypN1smzMszDv9ZuqfWD-S6pfqEr1F3zYfj3czNCj89nJggQV0JPwsU7lxhjG7Xvv5ixAK2J28e8Gs28cGrbVRDMNXaF9wWdb5THybPpCjHPGy2CVIR__fTVlV-xrloJjgNo2-uvVgss-wv3V1l7_SSVy6CwcuxfdhkHhAybgO7p3sLKXQSfixvrl2T8wMQXbDfMXd6SnlocrThgpr8sKSofQnRwUhF9TPU8qMnHtEHwN9KSlokmtGXrmwWn7o_zMgrLn_wdQ0xa8KTobvgypt-o1QQO5PFuWVLEvmKDWordolqXhz6s-c4qgQHNunQng7LxXc8j7Lk3l5m00]--></g></svg>